<?xml version="1.0" encoding="utf-8"?>
<!-- Generator: Adobe Illustrator 16.0.0, SVG Export Plug-In . SVG Version: 6.00 Build 0)  -->
<!DOCTYPE svg PUBLIC "-//W3C//DTD SVG 1.1//EN" "http://www.w3.org/Graphics/SVG/1.1/DTD/svg11.dtd">
<svg version="1.1" id="Layer_1" xmlns="http://www.w3.org/2000/svg" xmlns:xlink="http://www.w3.org/1999/xlink" x="0px" y="0px"
	 width="148.663px" height="53.361px" viewBox="0 0 148.663 53.361" enable-background="new 0 0 148.663 53.361"
	 xml:space="preserve">
<g>
	<path fill="#FFFFFF" d="M14.964,5.14c-0.4,0.106-0.787,0.233-1.17,0.374l0.004-0.005C10.235,6.579,6.36,3.633,6.36,3.633
		C4.001,1.997,2.466,0.77,2.466,0.77c-0.449-0.32-1.275-1.013-2.1-0.684C-0.44,0.407,0.337,2.33,0.337,2.33L0.431,2.67l4.773,17.738
		l0.012,0.059c0,0,0.186,0.677,0.295,1.082c1.92,7.142,9.268,11.375,16.41,9.453c7.143-1.921,11.373-9.269,9.453-16.41
		C29.454,7.45,22.106,3.217,14.964,5.14z M20.579,23.582c-3.154,1.136-6.629-0.498-7.766-3.649s0.498-6.629,3.65-7.767
		c3.152-1.135,6.629,0.499,7.766,3.651S23.729,22.446,20.579,23.582z"/>
	<path fill="#FFFFFF" d="M41.388,37.709c1.672-7.205-2.814-14.4-10.02-16.07s-14.4,2.814-16.072,10.021
		c-0.094,0.408-0.254,1.092-0.254,1.092l-0.011,0.059l-4.148,17.895l-0.084,0.343c0,0-0.709,1.95,0.109,2.241
		c0.836,0.299,1.637-0.42,2.072-0.756c0,0,1.492-1.279,3.795-2.998c0,0,3.77-3.08,7.365-2.135l-0.002-0.006
		c0.385,0.129,0.775,0.241,1.18,0.334C32.522,49.403,39.718,44.915,41.388,37.709z M34.114,37.39
		c-1.402,3.043-5.006,4.375-8.051,2.975c-3.043-1.401-4.375-5.005-2.973-8.05c1.4-3.043,5.004-4.376,8.049-2.975
		C34.183,30.742,35.513,34.346,34.114,37.39z"/>
	<g>
		<path fill="#FFFFFF" d="M52.726,27.444c-0.789,0.729-1.816,1.092-3.074,1.092c-0.705,0.001-1.291-0.104-1.766-0.314
			c-0.473-0.21-0.906-0.59-1.299-1.14l-0.129,1.311l-2.395,0.002l1.719-17.274h2.393l-0.617,6.211
			c0.467-0.502,0.969-0.859,1.504-1.068c0.533-0.211,1.146-0.316,1.836-0.316c1.252-0.002,2.164,0.316,2.736,0.957
			c0.57,0.638,0.902,1.406,0.998,2.304s0.088,1.903-0.023,3.019c-0.119,1.199-0.311,2.226-0.568,3.082
			C53.778,26.166,53.341,26.876,52.726,27.444z M50.036,18.153c-1.014,0.001-1.73,0.362-2.148,1.082
			c-0.418,0.719-0.689,1.717-0.816,2.996c-0.131,1.309-0.059,2.319,0.219,3.031c0.273,0.711,0.918,1.067,1.934,1.066
			c1.016,0,1.727-0.356,2.135-1.069c0.41-0.712,0.68-1.722,0.811-3.031c0.129-1.295,0.059-2.297-0.209-3.009
			C51.692,18.508,51.05,18.153,50.036,18.153z"/>
		<path fill="#FFFFFF" d="M61.7,28.409l0.109-1.117c-0.508,0.461-1.004,0.781-1.482,0.965c-0.48,0.182-1.105,0.273-1.871,0.274
			c-1.436,0-2.461-0.354-3.076-1.065s-0.871-1.608-0.762-2.692c0.107-1.067,0.553-1.925,1.34-2.571s1.861-0.973,3.229-0.973
			l3.227-0.002l0.086-0.873c0.08-0.793-0.072-1.375-0.453-1.746c-0.383-0.371-1.047-0.558-1.996-0.558
			c-0.662,0.001-1.197,0.086-1.607,0.257c-0.412,0.169-0.809,0.48-1.191,0.934L55.8,17.713c0.621-0.646,1.277-1.105,1.967-1.371
			c0.689-0.268,1.543-0.402,2.564-0.402c3.334-0.002,4.861,1.408,4.58,4.227l-0.818,8.24L61.7,28.409z M62.243,22.95l-2.877,0.001
			c-1.465,0-2.256,0.592-2.373,1.772c-0.117,1.164,0.576,1.746,2.072,1.746c0.58,0,1.031-0.042,1.354-0.121
			c0.322-0.082,0.668-0.289,1.039-0.621s0.6-0.926,0.688-1.783L62.243,22.95z"/>
		<path fill="#FFFFFF" d="M70.493,28.524c-1.531,0.002-2.766-0.507-3.702-1.525c-0.935-1.02-1.294-2.611-1.08-4.779
			c0.215-2.149,0.891-3.735,2.029-4.755c1.139-1.021,2.473-1.53,4.006-1.531c0.859,0,1.58,0.128,2.16,0.388
			c0.582,0.259,1.135,0.703,1.664,1.332l-1.838,1.652c-0.627-0.777-1.363-1.165-2.207-1.164c-0.959,0-1.725,0.338-2.301,1.008
			c-0.578,0.672-0.936,1.693-1.072,3.07c-0.139,1.391,0.014,2.422,0.459,3.092c0.441,0.672,1.145,1.008,2.102,1.004
			c0.494,0,0.908-0.08,1.244-0.241c0.333-0.161,0.732-0.47,1.191-0.923l1.516,1.625C73.462,27.94,72.073,28.523,70.493,28.524z"/>
		<path fill="#FFFFFF" d="M82.81,28.409l-2.807-5.698l-2,2.081l-0.367,3.607h-2.439l1.721-17.295l2.439-0.002l-1.059,10.65
			l5.279-5.68h2.969l-4.699,4.82l3.998,7.501L82.81,28.409z"/>
		<path fill="#FFFFFF" d="M94.835,27.419c-0.795,0.728-1.818,1.092-3.072,1.093c-0.705,0-1.297-0.102-1.775-0.303
			s-0.906-0.569-1.285-1.103l-0.623,6.259l-2.395,0.002l1.721-17.298h2.393l-0.127,1.286c0.484-0.525,0.986-0.896,1.51-1.111
			c0.525-0.214,1.137-0.322,1.84-0.322c0.605,0,1.154,0.093,1.646,0.277c0.492,0.187,0.939,0.506,1.342,0.957
			c0.4,0.453,0.65,1.129,0.744,2.026c0.094,0.896,0.084,1.903-0.027,3.021c-0.117,1.196-0.309,2.223-0.57,3.08
			S95.454,26.852,94.835,27.419z M92.157,18.105c-1.016,0.001-1.732,0.362-2.15,1.085c-0.418,0.721-0.691,1.725-0.816,3.005
			c-0.133,1.314-0.061,2.327,0.215,3.042c0.277,0.713,0.92,1.068,1.938,1.068c1.014,0,1.725-0.357,2.135-1.071
			c0.408-0.716,0.68-1.728,0.809-3.042c0.131-1.298,0.063-2.303-0.207-3.017C93.812,18.461,93.171,18.105,92.157,18.105z"/>
		<path fill="#FFFFFF" d="M103.815,28.385l0.111-1.117c-0.508,0.461-1.002,0.783-1.482,0.966c-0.482,0.182-1.104,0.272-1.871,0.273
			c-1.436,0-2.461-0.354-3.076-1.066c-0.615-0.711-0.869-1.608-0.762-2.691c0.107-1.067,0.553-1.925,1.34-2.572
			c0.785-0.646,1.863-0.972,3.229-0.972l3.229-0.002l0.084-0.872c0.08-0.794-0.07-1.376-0.453-1.748
			c-0.381-0.371-1.047-0.558-1.996-0.556c-0.66,0-1.195,0.084-1.607,0.256c-0.412,0.17-0.807,0.48-1.191,0.934l-1.451-1.527
			c0.623-0.647,1.277-1.104,1.967-1.371c0.688-0.268,1.543-0.401,2.564-0.402c3.334-0.002,4.863,1.408,4.582,4.227l-0.82,8.24
			L103.815,28.385z M104.36,22.926l-2.875,0.001c-1.467,0.001-2.258,0.591-2.375,1.772c-0.115,1.165,0.576,1.746,2.072,1.746
			c0.578,0,1.031-0.041,1.354-0.123c0.322-0.08,0.668-0.287,1.041-0.619c0.369-0.332,0.598-0.926,0.682-1.783L104.36,22.926z"/>
		<path fill="#FFFFFF" d="M112.612,28.5c-1.531,0.001-2.766-0.507-3.701-1.525s-1.297-2.609-1.082-4.778
			c0.217-2.15,0.891-3.734,2.029-4.755c1.139-1.019,2.473-1.53,4.006-1.53c0.861-0.001,1.582,0.129,2.164,0.387
			c0.578,0.26,1.133,0.702,1.66,1.333l-1.838,1.652c-0.625-0.775-1.361-1.164-2.207-1.164c-0.957,0.002-1.725,0.336-2.301,1.008
			c-0.578,0.672-0.936,1.695-1.07,3.069c-0.141,1.392,0.014,2.421,0.457,3.093s1.145,1.006,2.102,1.006
			c0.494,0,0.908-0.082,1.244-0.244c0.334-0.162,0.732-0.469,1.193-0.923l1.514,1.626C115.581,27.917,114.19,28.5,112.612,28.5z"/>
		<path fill="#FFFFFF" d="M124.927,28.385l-2.807-5.699l-1.998,2.084l-0.367,3.605h-2.441l1.721-17.294l2.441-0.003l-1.061,10.649
			l5.279-5.679h2.971l-4.699,4.82l3.998,7.5L124.927,28.385z"/>
		<path fill="#FFFFFF" d="M130.659,22.911c-0.107,1.085,0.074,1.93,0.549,2.537c0.477,0.605,1.207,0.907,2.195,0.907
			c0.67-0.001,1.223-0.093,1.656-0.28c0.432-0.188,0.902-0.514,1.41-0.983l1.412,1.479c-0.723,0.664-1.436,1.148-2.143,1.457
			c-0.711,0.307-1.574,0.461-2.596,0.461c-1.676,0.002-2.959-0.491-3.85-1.477c-0.891-0.986-1.225-2.596-1.004-4.826
			c0.197-1.973,0.811-3.516,1.846-4.623c1.037-1.108,2.346-1.664,3.924-1.665c1.596,0,2.799,0.543,3.607,1.637
			c0.809,1.09,1.125,2.518,0.951,4.279l-0.109,1.092L130.659,22.911z M136.095,19.512c-0.143-0.469-0.412-0.844-0.805-1.127
			s-0.867-0.424-1.424-0.424c-0.572,0-1.078,0.139-1.516,0.412c-0.441,0.275-0.791,0.657-1.045,1.142
			c-0.254,0.484-0.414,1.042-0.477,1.675l5.434-0.004C136.321,20.586,136.267,20.03,136.095,19.512z"/>
		<path fill="#FFFFFF" d="M146.634,18.924c-0.242-0.274-0.498-0.48-0.766-0.617c-0.264-0.139-0.588-0.207-0.971-0.207
			c-0.688,0.002-1.287,0.253-1.797,0.756c-0.516,0.502-0.813,1.174-0.896,2.018l-0.744,7.489l-2.395,0.001l1.227-12.323h2.395
			l-0.135,1.334c0.332-0.438,0.801-0.793,1.41-1.067c0.611-0.276,1.25-0.414,1.92-0.414c0.639,0,1.16,0.08,1.566,0.241
			c0.408,0.161,0.813,0.47,1.215,0.921L146.634,18.924z"/>
	</g>
	<g>
		<g>
			<path fill="#FFFFFF" d="M117.724,41.79V40.9c-0.299,0.361-0.619,0.618-0.965,0.766c-0.348,0.148-0.762,0.224-1.246,0.224
				c-0.416,0-0.801-0.064-1.152-0.189c-0.354-0.127-0.684-0.344-0.988-0.651c-0.309-0.308-0.525-0.768-0.654-1.376
				c-0.125-0.611-0.186-1.301-0.186-2.07c0-1.032,0.08-1.807,0.246-2.315c0.166-0.511,0.449-0.964,0.846-1.36
				c0.4-0.396,1.029-0.593,1.893-0.593c0.475,0,0.887,0.069,1.234,0.205c0.35,0.138,0.674,0.384,0.973,0.733v-4.219h1.648V41.79
				H117.724z M115.974,34.833c-0.697,0-1.166,0.244-1.404,0.734c-0.24,0.488-0.357,1.168-0.357,2.035
				c0,0.891,0.117,1.578,0.357,2.061c0.238,0.485,0.707,0.727,1.404,0.727c0.701,0,1.168-0.241,1.4-0.727
				c0.232-0.482,0.35-1.17,0.35-2.061c0-0.879-0.117-1.561-0.35-2.044S116.675,34.833,115.974,34.833z"/>
			<path fill="#FFFFFF" d="M121.827,38.096c0,0.738,0.184,1.312,0.553,1.725c0.367,0.411,0.893,0.617,1.574,0.617
				c0.463,0,0.834-0.063,1.121-0.189c0.287-0.127,0.588-0.35,0.906-0.667l1.072,1.005c-0.451,0.451-0.91,0.781-1.377,0.988
				c-0.469,0.209-1.053,0.314-1.754,0.314c-1.154,0-2.074-0.334-2.756-1.006c-0.682-0.669-1.021-1.764-1.021-3.281
				c0-1.342,0.318-2.388,0.957-3.14c0.637-0.753,1.5-1.129,2.588-1.129c1.098,0,1.963,0.37,2.598,1.112
				c0.631,0.742,0.947,1.711,0.947,2.91v0.74H121.827z M125.339,35.79c-0.131-0.32-0.34-0.575-0.631-0.767
				c-0.291-0.192-0.627-0.289-1.01-0.289c-0.395,0-0.732,0.093-1.018,0.281c-0.285,0.187-0.498,0.444-0.641,0.774
				s-0.213,0.708-0.213,1.137h3.742C125.569,36.52,125.493,36.141,125.339,35.79z"/>
			<path fill="#FFFFFF" d="M132.493,41.807v-0.759c-0.318,0.313-0.637,0.53-0.957,0.655c-0.316,0.123-0.74,0.186-1.268,0.186
				c-0.99,0-1.721-0.241-2.193-0.726c-0.473-0.483-0.709-1.094-0.709-1.829c0-0.727,0.248-1.309,0.746-1.748s1.217-0.66,2.158-0.66
				h2.223v-0.594c0-0.538-0.143-0.933-0.434-1.188c-0.289-0.252-0.758-0.378-1.412-0.378c-0.455,0-0.818,0.058-1.09,0.173
				s-0.523,0.326-0.758,0.636l-1.104-1.04c0.385-0.439,0.807-0.75,1.26-0.93c0.457-0.182,1.037-0.272,1.74-0.272
				c2.295,0,3.445,0.957,3.445,2.873v5.601H132.493z M132.493,38.096h-1.979c-1.01,0-1.516,0.402-1.516,1.204
				c0,0.792,0.516,1.187,1.547,1.187c0.398,0,0.707-0.027,0.924-0.082c0.215-0.053,0.441-0.193,0.676-0.42
				c0.232-0.225,0.348-0.629,0.348-1.213V38.096z"/>
			<path fill="#FFFFFF" d="M137.505,41.807c-0.76,0-1.33-0.217-1.715-0.653c-0.385-0.435-0.576-0.987-0.576-1.659v-9.441h1.682
				v9.346c0,0.329,0.068,0.573,0.205,0.733c0.139,0.16,0.371,0.239,0.701,0.239h0.742v1.436H137.505z"/>
			<path fill="#FFFFFF" d="M141.626,41.889c-0.758,0-1.416-0.086-1.969-0.257c-0.557-0.169-1.07-0.485-1.541-0.946l1.104-1.104
				c0.309,0.317,0.672,0.543,1.088,0.675c0.416,0.133,0.857,0.197,1.318,0.197c0.539,0,0.977-0.096,1.318-0.287
				c0.34-0.191,0.512-0.48,0.512-0.866c0-0.308-0.088-0.55-0.266-0.726c-0.174-0.176-0.461-0.264-0.855-0.264l-1.336-0.115
				c-0.813-0.066-1.428-0.285-1.846-0.658c-0.418-0.375-0.627-0.924-0.627-1.65c0-0.801,0.295-1.428,0.883-1.879
				s1.344-0.675,2.266-0.675c0.648,0,1.232,0.073,1.748,0.223c0.516,0.147,0.967,0.388,1.354,0.716l-1.057,1.072
				c-0.24-0.209-0.547-0.362-0.916-0.463c-0.367-0.096-0.75-0.147-1.145-0.147c-0.494,0-0.871,0.097-1.129,0.289
				c-0.26,0.191-0.389,0.454-0.389,0.782c0,0.276,0.086,0.492,0.256,0.651c0.17,0.16,0.471,0.263,0.898,0.304l1.32,0.115
				c0.813,0.067,1.43,0.293,1.855,0.678c0.422,0.385,0.633,0.945,0.633,1.682c0,0.847-0.322,1.499-0.967,1.961
				C143.497,41.659,142.659,41.889,141.626,41.889z"/>
		</g>
	</g>
</g>
</svg>
