<?xml version="1.0" standalone="no"?>
<!DOCTYPE svg PUBLIC "-//W3C//DTD SVG 1.1//EN" "http://www.w3.org/Graphics/SVG/1.1/DTD/svg11.dtd" >
<svg>
<metadata>
Created by FontForge 20090622 at Fri Jul 13 06:49:18 2018
 By deploy user
&#194;&#169; Copyright (c) 2010. All rights reserved. Fakt is a design by Thomas Thiemich, published by OurType. www.ourtype.com
</metadata>
<defs>
<font id="FaktPro-Medium" horiz-adv-x="359" >
  <font-face 
    font-family="Fakt Pro Med"
    font-weight="500"
    font-stretch="normal"
    units-per-em="1000"
    panose-1="2 0 0 0 0 0 0 0 0 0"
    ascent="748"
    descent="-252"
    x-height="488"
    cap-height="688"
    bbox="-174 -313 1195 1012"
    underline-thickness="50"
    underline-position="-50"
    unicode-range="U+0020-U+FB04"
  />
<missing-glyph horiz-adv-x="712" 
d="M0 0v720h712v-720h-712zM232 184l126 129l126 -129l52 52l-127 130l127 130l-52 52l-126 -129l-126 129l-52 -52l126 -130l-126 -130z" />
    <glyph glyph-name="f_b" unicode="fb" horiz-adv-x="928" 
d="M402 0v644h-117q-45 0 -63.5 -20.5t-18.5 -66.5v-69h103v-84h-103v-404h-108v404h-92v84h92v69q0 89 42.5 132t133.5 43h239v-153q0 -100 -5 -164h4q43 85 162 85q95 0 156.5 -67t61.5 -185t-64.5 -189t-161.5 -71q-111 0 -154 85h-4v-73h-103zM510 244q0 -79 37.5 -124
t96.5 -45q58 0 95.5 47t37.5 126q0 78 -37 121.5t-96 43.5q-58 0 -95 -43t-39 -118v-8z" />
    <glyph glyph-name="f_f_b" unicode="ffb" horiz-adv-x="1234" 
d="M402 0v404h-199v-404h-108v404h-92v84h92v69q0 89 42.5 132t133.5 43h54v-88h-40q-45 0 -63.5 -20.5t-18.5 -66.5v-69h199v69q0 89 42.5 132t132.5 43h239v-153q0 -100 -5 -164h4q43 85 162 85q96 0 157 -67t61 -185t-64.5 -189t-161.5 -71q-111 0 -154 85h-4v-73h-103
v644h-116q-45 0 -63.5 -20.5t-18.5 -66.5v-69h121v-84h-121v-404h-108zM816 244q0 -78 37.5 -123.5t96.5 -45.5q58 0 95.5 47t37.5 126q0 78 -37 121.5t-96 43.5q-57 0 -94.5 -43t-39.5 -118v-8z" />
    <glyph glyph-name="f_f_h" unicode="ffh" horiz-adv-x="1216" 
d="M402 0v404h-199v-404h-108v404h-92v84h92v69q0 89 42.5 132t133.5 43h54v-88h-40q-45 0 -63.5 -20.5t-18.5 -66.5v-69h199v69q0 89 42.5 132t132.5 43h239v-151q0 -99 -5 -164h4q42 83 151 83q81 0 132.5 -48.5t51.5 -155.5v-296h-108v282q0 130 -104 130
q-53 0 -87.5 -42t-34.5 -113v-257h-108v644h-116q-45 0 -63.5 -20.5t-18.5 -66.5v-69h121v-84h-121v-404h-108z" />
    <glyph glyph-name="f_f_j" unicode="ffj" horiz-adv-x="889" 
d="M402 0v404h-199v-404h-108v404h-92v84h92v69q0 89 42.5 132t133.5 43h60v-88h-46q-45 0 -63.5 -20.5t-18.5 -66.5v-69h199v69q0 89 42.5 132t132.5 43h55v-88h-40q-45 0 -63.5 -20.5t-18.5 -66.5v-69h306v-559q0 -72 -35.5 -110.5t-117.5 -38.5h-37v88h25q31 0 44 17.5
t13 55.5v463h-198v-404h-108zM704 622v110h116v-110h-116z" />
    <glyph glyph-name="f_f_k" unicode="ffk" horiz-adv-x="1162" 
d="M402 0v404h-199v-404h-108v404h-92v84h92v69q0 89 42.5 132t133.5 43h54v-88h-40q-45 0 -63.5 -20.5t-18.5 -66.5v-69h199v69q0 89 42.5 132t132.5 43h239v-463l197 219h126l-182 -195l201 -293h-126l-147 215l-69 -74v-141h-108v644h-116q-45 0 -63.5 -20.5t-18.5 -66.5
v-69h121v-84h-121v-404h-108z" />
    <glyph glyph-name="f_f_t" unicode="fft" horiz-adv-x="958" 
d="M402 0v404h-199v-404h-108v404h-92v84h92v69q0 89 42.5 132t133.5 43h54v-88h-40q-45 0 -63.5 -20.5t-18.5 -66.5v-69h199v69q0 89 42.5 132t132.5 43h55v-88h-40q-45 0 -63.5 -20.5t-18.5 -66.5v-69h192v148h108v-148h124v-84h-124v-242q0 -38 15.5 -55t49.5 -17h59v-90
h-75q-83 0 -120 37t-37 119v248h-192v-404h-108z" />
    <glyph glyph-name="f_h" unicode="fh" horiz-adv-x="910" 
d="M402 0v644h-117q-45 0 -63.5 -20.5t-18.5 -66.5v-69h103v-84h-103v-404h-108v404h-92v84h92v69q0 89 42.5 132t133.5 43h239v-151q0 -99 -5 -164h4q42 83 151 83q81 0 132.5 -48.5t51.5 -155.5v-296h-109v282q0 130 -103 130q-53 0 -87.5 -42.5t-34.5 -113.5v-256h-108z
" />
    <glyph glyph-name="f_j" unicode="fj" horiz-adv-x="583" 
d="M320 -132h25q31 0 44 17.5t13 55.5v463h-199v-404h-108v404h-92v84h92v69q0 89 42.5 132t133.5 43h54v-88h-40q-45 0 -63.5 -20.5t-18.5 -66.5v-69h307v-559q0 -72 -35.5 -110.5t-118.5 -38.5h-36v88zM398 622v110h116v-110h-116z" />
    <glyph glyph-name="f_k" unicode="fk" horiz-adv-x="855" 
d="M402 0v644h-117q-45 0 -63.5 -20.5t-18.5 -66.5v-69h103v-84h-103v-404h-108v404h-92v84h92v69q0 89 42.5 132t133.5 43h239v-462l197 218h125l-181 -195l200 -293h-126l-146 215l-69 -74v-141h-108z" />
    <glyph glyph-name="f_t" unicode="ft" horiz-adv-x="652" 
d="M395 156v248h-192v-404h-108v404h-92v84h92v69q0 89 42.5 132t133.5 43h54v-88h-40q-45 0 -63.5 -20.5t-18.5 -66.5v-69h192v148h109v-148h124v-84h-124v-242q0 -38 15.5 -55t49.5 -17h59v-90h-75q-83 0 -120.5 37t-37.5 119z" />
    <glyph glyph-name="fi" unicode="fi" horiz-adv-x="583" 
d="M402 0v404h-199v-404h-108v404h-92v84h92v69q0 89 42.5 132t133.5 43h54v-88h-40q-45 0 -63.5 -20.5t-18.5 -66.5v-69h307v-488h-108zM398 622v110h116v-110h-116z" />
    <glyph glyph-name="fl" unicode="fl" horiz-adv-x="583" 
d="M95 0v404h-92v84h92v69q0 89 42.5 132t133.5 43h239v-732h-108v644h-117q-45 0 -63.5 -20.5t-18.5 -66.5v-69h103v-84h-103v-404h-108z" />
    <glyph glyph-name="ff" unicode="ff" horiz-adv-x="631" 
d="M95 0v404h-92v84h92v69q0 89 42.5 132t133.5 43h54v-88h-40q-45 0 -63.5 -20.5t-18.5 -66.5v-69h199v69q0 89 42.5 132t132.5 43h65v-88h-50q-45 0 -63.5 -20.5t-18.5 -66.5v-69h116v-84h-116v-404h-108v404h-199v-404h-108z" />
    <glyph glyph-name="ffi" unicode="ffi" horiz-adv-x="889" 
d="M402 0v404h-199v-404h-108v404h-92v84h92v69q0 89 42.5 132t133.5 43h60v-88h-46q-45 0 -63.5 -20.5t-18.5 -66.5v-69h199v69q0 89 42.5 132t132.5 43h55v-88h-40q-45 0 -63.5 -20.5t-18.5 -66.5v-69h306v-488h-108v404h-198v-404h-108zM704 622v110h116v-110h-116z" />
    <glyph glyph-name="ffl" unicode="ffl" horiz-adv-x="889" 
d="M402 0v404h-199v-404h-108v404h-92v84h92v69q0 89 42.5 132t133.5 43h54v-88h-40q-45 0 -63.5 -20.5t-18.5 -66.5v-69h199v69q0 89 42.5 132t132.5 43h239v-732h-108v644h-116q-45 0 -63.5 -20.5t-18.5 -66.5v-69h121v-84h-121v-404h-108z" />
    <glyph glyph-name=".notdef" horiz-adv-x="712" 
d="M0 0v720h712v-720h-712zM232 184l126 129l126 -129l52 52l-127 130l127 130l-52 52l-126 -129l-126 129l-52 -52l126 -130l-126 -130z" />
    <glyph glyph-name=".null" horiz-adv-x="0" 
 />
    <glyph glyph-name="nonmarkingreturn" horiz-adv-x="333" 
 />
    <glyph glyph-name="space" unicode=" " horiz-adv-x="220" 
 />
    <glyph glyph-name="exclam" unicode="!" horiz-adv-x="284" 
d="M111 198l-30 300v190h122v-190l-31 -300h-61zM82 0v120h119v-120h-119z" />
    <glyph glyph-name="quotedbl" unicode="&#x22;" horiz-adv-x="411" 
d="M78 421l-17 176v91h103v-91l-17 -176h-69zM264 421l-17 176v91h103v-91l-17 -176h-69z" />
    <glyph glyph-name="numbersign" unicode="#" horiz-adv-x="623" 
d="M61 450v78h124l28 160h92l-28 -160h134l28 160h92l-28 -160h102v-78h-116l-36 -209h109v-79h-123l-28 -162h-92l28 162h-134l-28 -162h-92l28 162h-103v79h117l36 209h-110zM263 450l-36 -209h134l36 209h-134z" />
    <glyph glyph-name="dollar" unicode="$" horiz-adv-x="568" 
d="M38 194h108q4 -58 40.5 -90t93.5 -32q59 0 94.5 30t35.5 83q0 44 -28 66t-87 40l-85 26q-29 9 -54 22.5t-49.5 35t-38.5 55.5t-14 76q0 74 49 125.5t129 64.5v108h96v-108q75 -12 124 -60.5t54 -121.5h-108q-6 51 -38 76t-80 25q-50 0 -82.5 -25t-32.5 -73
q0 -44 24.5 -66t82.5 -40l85 -26q83 -25 124 -71t41 -120q0 -83 -53 -137t-141 -66v-111h-96v111q-88 12 -139.5 65.5t-54.5 137.5z" />
    <glyph glyph-name="percent" unicode="%" horiz-adv-x="793" 
d="M180 336q-76 0 -115.5 50t-39.5 130t39.5 130t115.5 50t115 -50t39 -130t-39 -130t-115 -50zM180 404q67 0 67 112t-67 112q-68 0 -68 -112t68 -112zM186 -12l348 712h74l-348 -712h-74zM614 -8q-76 0 -115.5 50t-39.5 130t39.5 130t115.5 50q77 0 115.5 -50t38.5 -130
t-38.5 -130t-115.5 -50zM614 60q67 0 67 112t-67 112q-68 0 -68 -112t68 -112z" />
    <glyph glyph-name="ampersand" unicode="&#x26;" horiz-adv-x="720" 
d="M43 180q0 72 41.5 117t114.5 81q-45 48 -62.5 81t-17.5 73q0 69 53 118.5t145 49.5t144.5 -43.5t52.5 -114.5q0 -66 -43.5 -106.5t-122.5 -75.5l166 -166q27 58 27 139v11h97v-20q0 -109 -56 -198l126 -126h-129l-58 57q-82 -69 -211 -69q-127 0 -197 52t-70 140zM310 72
q91 0 148 48l-200 199q-51 -26 -78.5 -56t-27.5 -73q0 -55 44.5 -86.5t113.5 -31.5zM219 536q0 -28 15.5 -53t54.5 -64q60 28 91 54.5t31 65.5q0 37 -25 60t-69 23q-47 0 -72.5 -24.5t-25.5 -61.5z" />
    <glyph glyph-name="quotesingle" unicode="'" horiz-adv-x="225" 
d="M78 421l-17 176v91h103v-91l-17 -176h-69z" />
    <glyph glyph-name="parenleft" unicode="(" horiz-adv-x="297" 
d="M19 260q0 144 49.5 270.5t114.5 213.5h99q-56 -73 -108 -207.5t-52 -276.5q0 -141 52 -275.5t108 -212.5h-99q-65 86 -114.5 215t-49.5 273z" />
    <glyph glyph-name="parenright" unicode=")" horiz-adv-x="297" 
d="M15 -228q56 78 108 212.5t52 275.5q0 142 -52 276.5t-108 207.5h98q65 -87 114.5 -213.5t49.5 -270.5t-49.5 -273t-114.5 -215h-98z" />
    <glyph glyph-name="asterisk" unicode="*" horiz-adv-x="463" 
d="M190 696h83l-16 -129l117 56l26 -80l-127 -25l88 -93l-67 -49l-63 112l-62 -111l-67 48l86 94l-124 24l25 80l116 -54z" />
    <glyph glyph-name="plus" unicode="+" horiz-adv-x="568" 
d="M57 210v88h181v182h92v-182h181v-88h-181v-181h-92v181h-181z" />
    <glyph glyph-name="comma" unicode="," horiz-adv-x="273" 
d="M127 0h-55v128h129v-120l-50 -170h-57z" />
    <glyph glyph-name="hyphen" unicode="-" horiz-adv-x="396" 
d="M56 205v94h284v-94h-284z" />
    <glyph glyph-name="period" unicode="." horiz-adv-x="273" 
d="M72 0v128h129v-128h-129z" />
    <glyph glyph-name="slash" unicode="/" horiz-adv-x="413" 
d="M6 -12l308 712h93l-308 -712h-93z" />
    <glyph glyph-name="zero" unicode="0" horiz-adv-x="568" 
d="M284 -12q-125 0 -185.5 97.5t-60.5 258.5t60.5 258.5t185.5 97.5t185.5 -97.5t60.5 -258.5t-60.5 -258.5t-185.5 -97.5zM284 81q133 0 133 263t-133 263t-133 -263t133 -263z" />
    <glyph glyph-name="one" unicode="1" horiz-adv-x="568" 
d="M103 453l-47 80l226 155h76v-598h160v-90h-439v90h171v464z" />
    <glyph glyph-name="two" unicode="2" horiz-adv-x="568" 
d="M50 0q4 114 42 181.5t123 122.5l78 51q32 21 46.5 32.5t31.5 29t23.5 37.5t6.5 46q0 45 -29 77.5t-86 32.5q-115 0 -124 -129h-102q5 115 68.5 167t158.5 52q100 0 161.5 -53t61.5 -145q0 -42 -10.5 -74.5t-34 -58.5t-44.5 -42.5t-58 -40.5l-77 -51q-64 -42 -86 -75
t-26 -70h341l1 -90h-466z" />
    <glyph glyph-name="three" unicode="3" horiz-adv-x="568" 
d="M42 208h106q0 -66 36 -99.5t96 -33.5q59 0 95.5 31t36.5 87q0 53 -38 85.5t-94 32.5h-53v89h53q48 0 80.5 30.5t32.5 79.5q0 48 -32.5 75.5t-80.5 27.5q-49 0 -81 -29.5t-32 -85.5h-98q0 93 58.5 147.5t152.5 54.5q96 0 156 -51.5t60 -134.5q0 -49 -29.5 -93.5
t-70.5 -60.5v-4q55 -16 90.5 -62.5t35.5 -108.5q0 -91 -68.5 -144t-173.5 -53q-111 0 -174.5 55t-63.5 165z" />
    <glyph glyph-name="four" unicode="4" horiz-adv-x="568" 
d="M28 161v73l328 454h90v-437h94v-90h-94v-161h-108v161h-310zM136 251h202v278z" />
    <glyph glyph-name="five" unicode="5" horiz-adv-x="568" 
d="M44 184h108q7 -45 39.5 -76.5t91.5 -31.5q54 0 92.5 36.5t38.5 100.5t-37 101.5t-94 37.5q-66 0 -118 -65l-99 8l21 393h396v-93h-299l-11 -197h4q45 42 124 42q96 0 158.5 -59t62.5 -161q0 -112 -69 -172t-170 -60q-107 0 -169 52.5t-70 143.5z" />
    <glyph glyph-name="six" unicode="6" horiz-adv-x="568" 
d="M43 328q0 100 22 174.5t60 116t83.5 61.5t98.5 20q97 0 150 -49.5t62 -134.5h-107q-13 96 -106 96q-61 0 -103 -60.5t-47 -192.5q20 36 66 58.5t98 22.5q93 0 154 -60t61 -163q0 -106 -69.5 -167.5t-166.5 -61.5q-115 0 -185.5 81t-70.5 259zM302 352q-57 0 -95.5 -39
t-38.5 -98q0 -60 36 -99.5t92 -39.5q57 0 94 37.5t37 102.5q0 60 -36 98t-89 38z" />
    <glyph glyph-name="seven" unicode="7" horiz-adv-x="568" 
d="M131 0l280 592h-363v96h480v-71l-285 -617h-112z" />
    <glyph glyph-name="eight" unicode="8" horiz-adv-x="568" 
d="M39 185q0 62 35.5 108.5t90.5 62.5v4q-43 15 -71.5 58.5t-28.5 94.5q0 84 60 135.5t159 51.5t159 -51.5t60 -135.5q0 -51 -28.5 -94.5t-71.5 -58.5v-4q55 -16 90.5 -62.5t35.5 -108.5q0 -92 -67 -144.5t-178 -52.5t-178 52.5t-67 144.5zM149 193q0 -56 37 -87t98 -31
t98 31t37 87q0 53 -38.5 85.5t-96.5 32.5t-96.5 -32.5t-38.5 -85.5zM284 400q50 0 83 30.5t33 79.5q0 48 -33 77t-83 29t-83 -29t-33 -77q0 -49 33 -79.5t83 -30.5z" />
    <glyph glyph-name="nine" unicode="9" horiz-adv-x="568" 
d="M524 360q0 -372 -257 -372q-99 0 -153 49t-66 135h107q17 -96 113 -96q66 0 102 58.5t40 194.5q-20 -37 -65 -59t-97 -22q-94 0 -155 59.5t-61 163.5q0 106 69.5 167.5t166.5 61.5q115 0 185.5 -81t70.5 -259zM265 336q57 0 95.5 39t38.5 97q0 61 -36 100.5t-91 39.5
q-56 0 -93.5 -37.5t-37.5 -102.5q0 -60 36 -98t88 -38z" />
    <glyph glyph-name="colon" unicode=":" horiz-adv-x="273" 
d="M72 360v128h129v-128h-129zM72 0v128h129v-128h-129z" />
    <glyph glyph-name="semicolon" unicode=";" horiz-adv-x="273" 
d="M72 360v128h129v-128h-129zM127 0h-55v128h129v-120l-50 -170h-57z" />
    <glyph glyph-name="less" unicode="&#x3c;" horiz-adv-x="568" 
d="M72 210v89l424 179v-95l-320 -127l320 -128v-98z" />
    <glyph glyph-name="equal" unicode="=" horiz-adv-x="568" 
d="M56 316v88h456v-88h-456zM56 104v88h456v-88h-456z" />
    <glyph glyph-name="greater" unicode="&#x3e;" horiz-adv-x="568" 
d="M496 298v-89l-424 -179v95l320 127l-320 128v98z" />
    <glyph glyph-name="question" unicode="?" horiz-adv-x="510" 
d="M198 202v26q0 51 17.5 88.5t43 59t51 39.5t43 42t17.5 54q0 43 -29.5 71t-78.5 28q-62 0 -92.5 -36.5t-30.5 -93.5h-105q0 93 58 156.5t170 63.5q98 0 158 -49.5t60 -134.5q0 -46 -18.5 -80t-44.5 -55t-52 -40t-44.5 -45t-18.5 -60v-34h-104zM190 0v120h119v-120h-119z
" />
    <glyph glyph-name="at" unicode="@" horiz-adv-x="1033" 
d="M291 128q0 123 163 148l95 15q40 7 51.5 13.5t11.5 24.5q0 90 -96 90q-98 0 -104 -86h-102q5 76 59 121.5t144 45.5q103 0 155 -47.5t52 -137.5v-150q0 -107 73 -107q46 0 78 54t32 160q0 164 -107.5 261t-275.5 97q-176 0 -283 -114.5t-107 -285.5q0 -172 103.5 -280
t268.5 -108q140 0 212 72h107q-108 -142 -319 -142q-199 0 -326.5 129t-127.5 329q0 199 131 334.5t341 135.5q202 0 333.5 -118t131.5 -310q0 -141 -60 -211t-149 -70q-110 0 -143 79q-51 -82 -177 -82q-78 0 -121.5 38.5t-43.5 101.5zM612 200v45q-14 -17 -50 -23l-87 -14
q-77 -12 -77 -73q0 -32 22.5 -51t61.5 -19q55 0 92.5 34.5t37.5 100.5z" />
    <glyph glyph-name="A" unicode="A" horiz-adv-x="665" 
d="M10 0l256 688h133l256 -688h-119l-59 167h-294l-59 -167h-114zM333 576h-4l-112 -315h227z" />
    <glyph glyph-name="B" unicode="B" horiz-adv-x="682" 
d="M81 0v688h304q111 0 167 -47t56 -133q0 -51 -27.5 -89t-80.5 -54v-4q63 -11 99.5 -54t36.5 -103q0 -91 -60.5 -147.5t-170.5 -56.5h-324zM396 310h-202v-217h202q62 0 94 30.5t32 82.5q0 47 -32 75.5t-94 28.5zM377 595h-183v-194h182q58 0 88.5 28.5t30.5 74.5
q0 91 -118 91z" />
    <glyph glyph-name="C" unicode="C" horiz-adv-x="722" 
d="M44 344q0 155 93.5 255.5t244.5 100.5q122 0 199.5 -63t98.5 -171h-115q-37 134 -183 134q-100 0 -160.5 -71t-60.5 -185q0 -112 60.5 -184t157.5 -72q149 0 186 134h115q-21 -108 -100 -171t-202 -63q-150 0 -242 99.5t-92 256.5z" />
    <glyph glyph-name="D" unicode="D" horiz-adv-x="720" 
d="M84 0v688h229q174 0 268.5 -94.5t94.5 -249.5t-94.5 -249.5t-268.5 -94.5h-229zM308 592h-111v-496h111q129 0 189.5 69.5t60.5 178.5t-60.5 178.5t-189.5 69.5z" />
    <glyph glyph-name="E" unicode="E" horiz-adv-x="626" 
d="M84 0v688h482v-96h-369v-195h296v-93h-296v-208h378v-96h-491z" />
    <glyph glyph-name="F" unicode="F" horiz-adv-x="590" 
d="M84 0v688h472v-96h-359v-229h286v-95h-286v-268h-113z" />
    <glyph glyph-name="G" unicode="G" horiz-adv-x="767" 
d="M620 0l-15 91h-3q-69 -103 -218 -103q-151 0 -245.5 100.5t-94.5 255.5q0 156 96 256t250 100q123 0 203.5 -61.5t100.5 -157.5h-115q-16 52 -64 85.5t-125 33.5q-103 0 -166 -71.5t-63 -184.5t63 -184.5t163 -71.5q87 0 146 48t59 129v12h-202v91h303v-368h-73z" />
    <glyph glyph-name="H" unicode="H" horiz-adv-x="741" 
d="M84 0v688h113v-292h346v292h114v-688h-114v300h-346v-300h-113z" />
    <glyph glyph-name="I" unicode="I" horiz-adv-x="282" 
d="M84 0v688h113v-688h-113z" />
    <glyph glyph-name="J" unicode="J" horiz-adv-x="534" 
d="M36 201v32h112v-26q0 -123 100 -123t100 126v478h113v-482q0 -218 -213 -218q-99 0 -155.5 51.5t-56.5 161.5z" />
    <glyph glyph-name="K" unicode="K" horiz-adv-x="674" 
d="M84 0v688h113v-348l323 348h132l-281 -298l295 -390h-129l-239 313l-101 -107v-206h-113z" />
    <glyph glyph-name="L" unicode="L" horiz-adv-x="561" 
d="M84 0v688h113v-591h333v-97h-446z" />
    <glyph glyph-name="M" unicode="M" horiz-adv-x="921" 
d="M84 0v688h146l231 -535h3l228 535h144v-688h-113l9 524h-4l-224 -524h-87l-224 515h-4l8 -515h-113z" />
    <glyph glyph-name="N" unicode="N" horiz-adv-x="749" 
d="M84 0v688h105l362 -496h4l-4 496h114v-688h-104l-364 494h-4l4 -494h-113z" />
    <glyph glyph-name="O" unicode="O" horiz-adv-x="775" 
d="M44 344q0 156 94.5 256t248.5 100q151 0 247.5 -100.5t96.5 -255.5t-96.5 -255.5t-247.5 -100.5q-154 0 -248.5 100t-94.5 256zM161 344q0 -112 62.5 -184t163.5 -72q102 0 164.5 72t62.5 184t-62.5 184t-164.5 72q-101 0 -163.5 -72t-62.5 -184z" />
    <glyph glyph-name="P" unicode="P" horiz-adv-x="655" 
d="M84 0v688h279q118 0 183.5 -61.5t65.5 -162.5q0 -102 -66 -166.5t-183 -64.5h-166v-233h-113zM358 594h-161v-268h161q68 0 104 38.5t36 98.5t-36 95.5t-104 35.5z" />
    <glyph glyph-name="Q" unicode="Q" horiz-adv-x="778" 
d="M44 344q0 156 94.5 256t248.5 100q151 0 247.5 -100.5t96.5 -255.5q0 -161 -104 -263l129 -135l-74 -73l-140 148q-71 -33 -155 -33q-154 0 -248.5 100t-94.5 256zM161 344q0 -112 62.5 -184t163.5 -72q102 0 164.5 72t62.5 184t-62.5 184t-164.5 72q-101 0 -163.5 -72
t-62.5 -184z" />
    <glyph glyph-name="R" unicode="R" horiz-adv-x="673" 
d="M84 0v688h278q120 0 183.5 -55t63.5 -154q0 -76 -38 -130.5t-110 -76.5l173 -272h-123l-165 259h-149v-259h-113zM361 594h-164v-242h164q64 0 99 35t35 91q0 54 -35 85t-99 31z" />
    <glyph glyph-name="S" unicode="S" horiz-adv-x="658" 
d="M53 196h112q0 -54 43.5 -87t116.5 -33q77 0 120.5 30.5t43.5 85.5q0 34 -23.5 56t-61 32t-83 18t-90.5 19.5t-82.5 30t-61 56t-23.5 92.5q0 90 71.5 147t190.5 57q117 0 187.5 -53t70.5 -144h-111q0 51 -41 80t-106 29q-66 0 -107.5 -27.5t-41.5 -77.5q0 -34 23.5 -55.5
t61.5 -31.5t83.5 -17.5t91 -19.5t83.5 -31t61.5 -57t23.5 -94q0 -97 -74 -155t-206 -58q-129 0 -200.5 56t-71.5 152z" />
    <glyph glyph-name="T" unicode="T" horiz-adv-x="602" 
d="M8 593v95h586v-95h-237v-593h-113v593h-236z" />
    <glyph glyph-name="U" unicode="U" horiz-adv-x="713" 
d="M70 274v414h113v-413q0 -90 43.5 -138.5t129.5 -48.5t129.5 48t43.5 139v413h113v-414q0 -286 -286 -286q-134 0 -210 68.5t-76 217.5z" />
    <glyph glyph-name="V" unicode="V" horiz-adv-x="645" 
d="M257 0l-249 688h119l195 -576h4l197 576h114l-250 -688h-130z" />
    <glyph glyph-name="W" unicode="W" horiz-adv-x="957" 
d="M191 0l-180 688h120l135 -568h4l149 568h126l151 -568h4l130 568h116l-177 -688h-141l-146 551h-4l-146 -551h-141z" />
    <glyph glyph-name="X" unicode="X" horiz-adv-x="625" 
d="M8 0l239 351l-231 337h129l167 -251l166 251h123l-227 -334l243 -354h-128l-180 267l-177 -267h-124z" />
    <glyph glyph-name="Y" unicode="Y" horiz-adv-x="637" 
d="M260 0v266l-249 422h128l178 -310h4l185 310h119l-252 -417v-271h-113z" />
    <glyph glyph-name="Z" unicode="Z" horiz-adv-x="598" 
d="M52 594v94h511v-69l-383 -525h380v-94h-525v69l383 525h-366z" />
    <glyph glyph-name="bracketleft" unicode="[" horiz-adv-x="340" 
d="M180 -142h145v-86h-243v972h243v-86h-145v-800z" />
    <glyph glyph-name="backslash" unicode="\" horiz-adv-x="413" 
d="M314 -12l-308 712h93l308 -712h-93z" />
    <glyph glyph-name="bracketright" unicode="]" horiz-adv-x="340" 
d="M15 -142h145v800h-145v86h244v-972h-244v86z" />
    <glyph glyph-name="asciicircum" unicode="^" horiz-adv-x="568" 
d="M50 352l185 336h93v-1l6 1l185 -336h-104l-132 249l-132 -249h-101z" />
    <glyph glyph-name="underscore" unicode="_" horiz-adv-x="500" 
d="M0 -72h500v-85h-500v85z" />
    <glyph glyph-name="grave" unicode="`" horiz-adv-x="573" 
d="M249 568l-146 164h120l102 -164h-76z" />
    <glyph glyph-name="a" unicode="a" horiz-adv-x="541" 
d="M45 125q0 62 39 98.5t124 50.5l95 16q37 6 50 12.5t13 20.5q0 96 -96 96q-47 0 -73.5 -23t-29.5 -63h-103q5 76 60 121.5t146 45.5q101 0 152.5 -46t51.5 -133v-321h-103v61h-5q-45 -73 -156 -73q-79 0 -122 37t-43 100zM366 200v45q-14 -17 -50 -23l-84 -14
q-79 -12 -79 -72q0 -31 21.5 -49t61.5 -18q55 0 92.5 34t37.5 97z" />
    <glyph glyph-name="b" unicode="b" horiz-adv-x="600" 
d="M73 0v732h108v-153q0 -100 -4 -164h4q43 85 162 85q95 0 156.5 -67t61.5 -185t-64.5 -189t-161.5 -71q-111 0 -154 85h-4v-73h-104zM181 244q0 -78 37.5 -123.5t96.5 -45.5t96 47t37 126q0 78 -37 121.5t-96 43.5q-57 0 -94.5 -43t-39.5 -118v-8z" />
    <glyph glyph-name="c" unicode="c" horiz-adv-x="534" 
d="M38 244q0 117 68 186.5t175 69.5q97 0 155 -50t67 -129h-107q-7 41 -36 66.5t-79 25.5q-57 0 -94 -47t-37 -122t37 -122t94 -47q98 0 115 92h107q-9 -80 -66.5 -129.5t-155.5 -49.5q-113 0 -178 68t-65 188z" />
    <glyph glyph-name="d" unicode="d" horiz-adv-x="600" 
d="M39 240q0 118 64.5 189t161.5 71q111 0 154 -85h4q-5 64 -5 164v153h108v-732h-103v73h-4q-43 -85 -162 -85q-95 0 -156.5 67t-61.5 185zM151 240q0 -78 37 -121.5t96 -43.5t96.5 45t37.5 124t-37.5 124t-96.5 45q-58 0 -95.5 -47t-37.5 -126z" />
    <glyph glyph-name="e" unicode="e" horiz-adv-x="544" 
d="M38 243q0 115 68 186t174 71q104 0 166 -63t62 -175v-36h-359q5 -71 41 -112t94 -41q48 0 76.5 21.5t36.5 53.5h106q-11 -68 -71 -114t-149 -46q-117 0 -181 67.5t-64 187.5zM280 416q-48 0 -81.5 -31t-44.5 -86h244q-13 117 -118 117z" />
    <glyph glyph-name="f" unicode="f" horiz-adv-x="325" 
d="M95 0v404h-92v84h92v69q0 89 42.5 132t133.5 43h65v-88h-51q-45 0 -63.5 -20.5t-18.5 -66.5v-69h117v-84h-117v-404h-108z" />
    <glyph glyph-name="g" unicode="g" horiz-adv-x="600" 
d="M52 -60h102q1 -40 35 -63.5t88 -23.5q146 0 146 172v48h-4q-43 -85 -162 -85q-95 0 -156.5 67t-61.5 185t64.5 189t161.5 71q111 0 154 -85h4v73h103v-463q0 -131 -67 -192t-182 -61q-101 0 -162.5 43t-62.5 125zM151 240q0 -78 37 -121.5t96 -43.5t96.5 45t37.5 124v8
q-2 75 -39 118t-95 43t-95.5 -47t-37.5 -126z" />
    <glyph glyph-name="h" unicode="h" horiz-adv-x="581" 
d="M73 0v732h108v-151q0 -100 -4 -164h4q42 83 151 83q81 0 132 -48.5t51 -155.5v-296h-108v282q0 130 -104 130q-53 0 -87.5 -43.5t-34.5 -114.5v-254h-108z" />
    <glyph glyph-name="i" unicode="i" horiz-adv-x="255" 
d="M69 622v110h116v-110h-116zM73 0v488h108v-488h-108z" />
    <glyph glyph-name="j" unicode="j" horiz-adv-x="255" 
d="M69 622v110h116v-110h-116zM73 -59v547h108v-559q0 -72 -35 -110.5t-118 -38.5h-37v88h25q31 0 44 17.5t13 55.5z" />
    <glyph glyph-name="k" unicode="k" horiz-adv-x="527" 
d="M73 0v732h108v-463l198 219h125l-182 -195l201 -293h-126l-147 215l-69 -74v-141h-108z" />
    <glyph glyph-name="l" unicode="l" horiz-adv-x="255" 
d="M73 0v732h108v-732h-108z" />
    <glyph glyph-name="m" unicode="m" horiz-adv-x="887" 
d="M73 0v488h104v-71h4q42 83 148 83q116 0 155 -97q47 97 164 97q78 0 125.5 -47.5t47.5 -150.5v-302h-108v289q0 66 -23 94.5t-71 28.5q-50 0 -84 -42t-34 -113v-257h-108v289q0 66 -24 94.5t-70 28.5q-50 0 -84 -42.5t-34 -113.5v-256h-108z" />
    <glyph glyph-name="n" unicode="n" horiz-adv-x="581" 
d="M73 0v488h104v-71h4q42 83 151 83q81 0 132 -48.5t51 -155.5v-296h-108v282q0 130 -104 130q-53 0 -87.5 -42.5t-34.5 -114.5v-255h-108z" />
    <glyph glyph-name="o" unicode="o" horiz-adv-x="577" 
d="M39 244q0 117 69.5 186.5t179.5 69.5q114 0 181.5 -68.5t67.5 -187.5q0 -117 -69.5 -186.5t-179.5 -69.5q-114 0 -181.5 68.5t-67.5 187.5zM151 244q0 -76 37.5 -122.5t99.5 -46.5t99.5 46.5t37.5 122.5q0 79 -37.5 124t-99.5 45t-99.5 -46.5t-37.5 -122.5z" />
    <glyph glyph-name="p" unicode="p" horiz-adv-x="600" 
d="M181 -91v-129h-108v708h104v-73h4q43 85 162 85q95 0 156.5 -67t61.5 -185t-64.5 -189t-161.5 -71q-111 0 -154 85h-4q4 -64 4 -164zM448 248q0 78 -37 121.5t-96 43.5q-57 0 -94.5 -43t-39.5 -118v-8q0 -78 37.5 -123.5t96.5 -45.5t96 47t37 126z" />
    <glyph glyph-name="q" unicode="q" horiz-adv-x="597" 
d="M418 -91q0 100 5 164h-4q-43 -85 -162 -85q-95 0 -156.5 67t-61.5 185t64.5 189t161.5 71q111 0 154 -85h4v73h103v-708h-108v129zM151 240q0 -78 37 -121.5t96 -43.5q58 0 95 43t39 118v8q0 79 -37.5 124t-96.5 45q-58 0 -95.5 -47t-37.5 -126z" />
    <glyph glyph-name="r" unicode="r" horiz-adv-x="377" 
d="M73 0v488h104v-71h3q38 83 129 83q39 0 68 -20l-28 -96q-32 16 -60 16q-52 0 -80 -44t-28 -112v-244h-108z" />
    <glyph glyph-name="s" unicode="s" horiz-adv-x="509" 
d="M37 140h103q0 -38 32 -57t76 -19q112 0 112 71q0 26 -18 39.5t-56 19.5l-90 16q-147 24 -147 134q0 73 57.5 114.5t146.5 41.5q90 0 146 -37.5t56 -110.5h-101q0 35 -28 53.5t-73 18.5q-44 0 -72 -18t-28 -49q0 -25 18.5 -38.5t62.5 -21.5l90 -15q67 -11 105.5 -41
t38.5 -93q0 -78 -59.5 -119t-160.5 -41q-95 0 -153 39t-58 113z" />
    <glyph glyph-name="t" unicode="t" horiz-adv-x="345" 
d="M88 156v248h-92v84h92v148h108v-148h125v-84h-125v-242q0 -39 15.5 -55.5t52.5 -16.5h57v-90h-75q-84 0 -121 37t-37 119z" />
    <glyph glyph-name="u" unicode="u" horiz-adv-x="577" 
d="M65 192v296h108v-282q0 -130 104 -130q53 0 86 43t33 117v252h108v-488h-103v71h-4q-42 -83 -148 -83q-81 0 -132.5 48.5t-51.5 155.5z" />
    <glyph glyph-name="v" unicode="v" horiz-adv-x="493" 
d="M186 0l-182 488h118l127 -376h4l127 376h109l-177 -488h-126z" />
    <glyph glyph-name="w" unicode="w" horiz-adv-x="750" 
d="M146 0l-141 488h110l95 -379h4l105 379h115l106 -379h4l94 379h107l-141 -488h-126l-101 378h-4l-101 -378h-126z" />
    <glyph glyph-name="x" unicode="x" horiz-adv-x="484" 
d="M10 0l173 246l-169 242h124l110 -165l107 165h115l-169 -241l173 -247h-124l-114 171l-111 -171h-115z" />
    <glyph glyph-name="y" unicode="y" horiz-adv-x="493" 
d="M186 0l-182 488h118l127 -376h4l127 376h109l-201 -556q-57 -160 -187 -160h-54v89h32q84 0 118 95l15 44h-26z" />
    <glyph glyph-name="z" unicode="z" horiz-adv-x="461" 
d="M32 403v85h393v-67l-252 -336h256v-85h-394v61l258 342h-261z" />
    <glyph glyph-name="braceleft" unicode="{" horiz-adv-x="370" 
d="M128 -72v164q0 76 -22.5 104t-89.5 28v76q67 0 89.5 28t22.5 104v156q0 81 37.5 118.5t128.5 37.5h61v-83h-50q-45 0 -61.5 -18t-16.5 -62v-183q0 -55 -23 -87t-77 -47v-4q54 -15 77 -47t23 -87v-191q0 -44 16.5 -62t61.5 -18h50v-83h-61q-91 0 -128.5 37.5t-37.5 118.5z
" />
    <glyph glyph-name="bar" unicode="|" horiz-adv-x="271" 
d="M88 -240v1000h95v-1000h-95z" />
    <glyph glyph-name="braceright" unicode="}" horiz-adv-x="370" 
d="M15 -145h50q45 0 61.5 18t16.5 62v191q0 55 23 87t77 47v4q-54 15 -77 47t-23 87v183q0 44 -16.5 62t-61.5 18h-50v83h60q92 0 129 -37.5t37 -118.5v-156q0 -76 22.5 -104t89.5 -28v-76q-67 0 -89.5 -28t-22.5 -104v-164q0 -81 -37 -118.5t-129 -37.5h-60v83z" />
    <glyph glyph-name="asciitilde" unicode="~" horiz-adv-x="568" 
d="M52 179q0 81 38 122t95 41q39 0 76 -18t67 -36.5t53 -18.5q50 0 50 75h86q0 -80 -37.5 -121.5t-92.5 -41.5q-39 0 -77 19.5t-69 38.5t-53 19q-50 0 -50 -79h-86z" />
    <glyph glyph-name="exclamdown" unicode="&#xa1;" horiz-adv-x="284" 
d="M82 368v120h119v-120h-119zM82 -10l29 300h61l30 -300v-190h-120v190z" />
    <glyph glyph-name="cent" unicode="&#xa2;" horiz-adv-x="568" 
d="M248 -12v107q-93 15 -145.5 82t-52.5 171q0 102 56 169.5t146 82.5v100h96v-100q76 -12 121.5 -59.5t53.5 -115.5h-107q-7 41 -37 66.5t-82 25.5q-60 0 -97.5 -47t-37.5 -122t37.5 -122t97.5 -47q52 0 82 25.5t37 66.5h107q-8 -69 -54 -116.5t-125 -59.5v-107h-96z" />
    <glyph glyph-name="sterling" unicode="&#xa3;" horiz-adv-x="568" 
d="M60 322v68h83q-29 78 -29 134q0 80 52.5 128t140.5 48q85 0 132.5 -45t52.5 -131h-102q-5 49 -26 72t-60 23q-36 0 -59.5 -23.5t-23.5 -63.5q0 -48 34 -142h156v-68h-133q14 -49 14 -87q0 -55 -15 -104l44 -29t37 -18.5t41 -9.5q60 0 64 96h87q-10 -182 -147 -182
q-40 0 -76 19.5t-81 55.5q-48 -75 -131 -75q-50 0 -81 26.5t-31 71.5q0 51 33 80.5t87 29.5q33 0 66 -14q1 10 1 28q0 44 -22 112h-108zM116 46q45 0 63 68q-35 21 -61 21q-20 0 -33.5 -13t-13.5 -32q0 -20 11.5 -32t33.5 -12z" />
    <glyph glyph-name="currency" unicode="&#xa4;" horiz-adv-x="568" 
d="M135 144l-51 50l59 60q-28 44 -28 90q0 47 30 91l-60 60l51 50l59 -61q42 24 89 24q46 0 88 -24l60 61l51 -50l-60 -60q30 -44 30 -91q0 -45 -29 -90l60 -60l-51 -50l-60 60q-37 -24 -89 -24q-53 0 -89 24zM284 250q39 0 64.5 26t25.5 68t-25.5 68t-64.5 26t-64.5 -26
t-25.5 -68t25.5 -68t64.5 -26z" />
    <glyph glyph-name="yen" unicode="&#xa5;" horiz-adv-x="568" 
d="M85 241v61h145v2l-221 384h124l153 -279h4l154 279h115l-221 -385v-1h145v-61h-145v-71h145v-61h-145v-109h-108v109h-145v61h145v71h-145z" />
    <glyph glyph-name="brokenbar" unicode="&#xa6;" horiz-adv-x="271" 
d="M88 336v352h95v-352h-95zM88 -164v352h95v-352h-95z" />
    <glyph glyph-name="section" unicode="&#xa7;" horiz-adv-x="574" 
d="M62 -69h101q4 -42 35.5 -62.5t82.5 -20.5q55 0 85.5 23.5t30.5 64.5q0 34 -22.5 52.5t-71.5 33.5l-95 28q-154 45 -154 175q0 52 31 93.5t85 62.5q-96 45 -96 143q0 81 59 128.5t160 47.5q96 0 154.5 -40t64.5 -119h-101q-4 42 -36 62.5t-82 20.5q-56 0 -86 -23t-30 -65
q0 -34 22 -52.5t71 -33.5l96 -28q153 -45 153 -175q0 -52 -31 -94t-85 -63q97 -44 97 -142q0 -81 -59 -128.5t-160 -47.5q-96 0 -154.5 40t-64.5 119zM319 334l-62 18q-49 -12 -75.5 -42t-26.5 -67q0 -43 23.5 -66t76.5 -39l56 -17q52 12 80 41.5t28 66.5q0 43 -23.5 65.5
t-76.5 39.5z" />
    <glyph glyph-name="dieresis" unicode="&#xa8;" horiz-adv-x="573" 
d="M340 600v104h102v-104h-102zM130 600v104h103v-104h-103z" />
    <glyph glyph-name="copyright" unicode="&#xa9;" horiz-adv-x="776" 
d="M35 348q0 151 100 251.5t253 100.5q150 0 251.5 -101t101.5 -251q0 -152 -100.5 -256t-252.5 -104t-252.5 104t-100.5 256zM112 348q0 -124 78 -210t198 -86q118 0 197 86t79 210q0 123 -77.5 203.5t-198.5 80.5t-198.5 -80.5t-77.5 -203.5zM215 348q0 75 47.5 125.5
t126.5 50.5q62 0 102.5 -32t49.5 -86h-78q-16 51 -74 51q-41 0 -67 -31.5t-26 -77.5q0 -47 26 -78.5t67 -31.5q58 0 74 52h78q-9 -54 -49.5 -86t-102.5 -32q-79 0 -126.5 50t-47.5 126z" />
    <glyph glyph-name="ordfeminine" unicode="&#xaa;" horiz-adv-x="395" 
d="M150 336q-54 0 -84.5 27t-30.5 71q0 89 115 105l65 8q25 3 34.5 9t9.5 21q0 24 -15 39.5t-45 15.5q-60 0 -64 -56h-85q4 61 45.5 91t103.5 30q151 0 151 -128v-225h-88v41h-3q-32 -49 -109 -49zM259 479v30q-9 -12 -33 -15l-50 -6q-50 -7 -50 -46q0 -44 53 -44
q34 0 57 21t23 60z" />
    <glyph glyph-name="guillemotleft" unicode="&#xab;" horiz-adv-x="537" 
d="M255 252l143 204h89l-114 -204l114 -204h-89zM193 48l-143 204l143 204h89l-114 -204l114 -204h-89z" />
    <glyph glyph-name="logicalnot" unicode="&#xac;" horiz-adv-x="568" 
d="M57 210v88h454v-270h-93v182h-361z" />
    <glyph glyph-name="uni00AD" unicode="&#xad;" horiz-adv-x="396" 
d="M56 205v94h284v-94h-284z" />
    <glyph glyph-name="registered" unicode="&#xae;" horiz-adv-x="776" 
d="M35 348q0 151 100 251.5t253 100.5q150 0 251.5 -101t101.5 -251q0 -152 -100.5 -256t-252.5 -104t-252.5 104t-100.5 256zM112 348q0 -124 78 -210t198 -86q118 0 197 86t79 210q0 123 -77.5 203.5t-198.5 80.5t-198.5 -80.5t-77.5 -203.5zM244 176v344h163
q64 0 98.5 -29t34.5 -81q0 -35 -20 -62.5t-55 -41.5l87 -130h-87l-75 120h-65v-120h-81zM404 454h-79v-93h79q27 0 41 13t14 35q0 45 -55 45z" />
    <glyph glyph-name="macron" unicode="&#xaf;" horiz-adv-x="573" 
d="M141 611v78h287v-78h-287z" />
    <glyph glyph-name="degree" unicode="&#xb0;" horiz-adv-x="378" 
d="M189 413q-64 0 -106.5 40t-42.5 104q0 63 42.5 103t106.5 40t106.5 -40t42.5 -103q0 -64 -42.5 -104t-106.5 -40zM189 629q-29 0 -48.5 -20t-19.5 -52t19.5 -52t48.5 -20q30 0 49 19.5t19 52.5q0 32 -19 52t-49 20z" />
    <glyph glyph-name="plusminus" unicode="&#xb1;" horiz-adv-x="568" 
d="M58 322v87h180v168h92v-168h182v-87h-182v-168h-92v168h-180zM56 0v88h456v-88h-456z" />
    <glyph glyph-name="acute" unicode="&#xb4;" horiz-adv-x="573" 
d="M248 568l102 164h120l-146 -164h-76z" />
    <glyph glyph-name="mu" unicode="&#xb5;" horiz-adv-x="582" 
d="M168 11q12 -96 12 -162v-69h-109v708h109v-282q0 -70 26 -100t77 -30q53 0 86 43t33 115v254h108v-488h-103v71h-4q-41 -83 -147 -83q-47 0 -85 23h-3z" />
    <glyph glyph-name="paragraph" unicode="&#xb6;" horiz-adv-x="628" 
d="M436 0v688h102v-688h-102zM256 0v249q-101 10 -158.5 68t-57.5 151q0 100 67.5 160t184.5 60h66v-688h-102z" />
    <glyph glyph-name="periodcentered" unicode="&#xb7;" horiz-adv-x="273" 
d="M72 190v124h129v-124h-129z" />
    <glyph glyph-name="cedilla" unicode="&#xb8;" horiz-adv-x="573" 
d="M239 -86l30 86h36v-37q44 -2 68 -26.5t24 -60.5q0 -43 -30 -69.5t-87 -26.5h-61v59h53q49 0 49 38q0 37 -49 37h-33z" />
    <glyph glyph-name="ordmasculine" unicode="&#xba;" horiz-adv-x="421" 
d="M210 336q-83 0 -131.5 48.5t-48.5 131.5q0 82 49.5 131.5t130.5 49.5q84 0 133 -49t49 -132q0 -82 -50 -131t-132 -49zM210 408q40 0 63.5 30t23.5 78q0 49 -23.5 78.5t-63.5 29.5q-39 0 -62.5 -30t-23.5 -78t23.5 -78t62.5 -30z" />
    <glyph glyph-name="guillemotright" unicode="&#xbb;" horiz-adv-x="537" 
d="M255 48l114 204l-114 204h89l143 -204l-143 -204h-89zM50 48l114 204l-114 204h89l143 -204l-143 -204h-89z" />
    <glyph glyph-name="onequarter" unicode="&#xbc;" horiz-adv-x="793" 
d="M456 61v52l188 232h75v-217h47v-67h-47v-61h-88v61h-175zM222 -12l348 712h75l-348 -712h-75zM75 541l-36 61l145 86h54v-274h92v-70h-279v70h98v170zM546 128h85v107z" />
    <glyph glyph-name="onehalf" unicode="&#xbd;" horiz-adv-x="793" 
d="M464 0q0 72 31 110t85 64l21 10q69 32 69 59q0 43 -55 43q-58 0 -63 -59h-84q2 63 43.5 94t102.5 31q65 0 104 -28t39 -78q0 -43 -27.5 -68t-81.5 -50l-20 -10q-60 -27 -60 -48h188v-70h-292zM199 -12l348 712h75l-348 -712h-75zM75 541l-36 61l145 86h54v-274h92v-70
h-279v70h98v170z" />
    <glyph glyph-name="threequarters" unicode="&#xbe;" horiz-adv-x="793" 
d="M456 61v52l188 232h75v-217h47v-67h-47v-61h-88v61h-175zM34 449h83q0 -25 17 -39t46 -14q28 0 45.5 12.5t17.5 35.5q0 24 -17.5 36.5t-47.5 12.5h-24v56h24q58 0 58 44q0 43 -56 43q-26 0 -41 -13t-15 -36h-82q1 52 39 80.5t102 28.5q62 0 99.5 -27t37.5 -70
q0 -29 -15.5 -49.5t-41.5 -26.5v-3q31 -7 49.5 -29t18.5 -54q0 -49 -39.5 -75t-111.5 -26q-145 0 -146 113zM208 -12l348 712h74l-348 -712h-74zM546 128h85v107z" />
    <glyph glyph-name="questiondown" unicode="&#xbf;" horiz-adv-x="510" 
d="M204 368v120h119v-120h-119zM34 -28q0 46 18 80t44 55t52.5 40t44.5 45t18 60v34h105v-26q0 -51 -17.5 -88.5t-43 -59t-51 -39.5t-43 -42t-17.5 -54q0 -43 29.5 -71t78.5 -28q61 0 91.5 36.5t30.5 93.5h106q0 -93 -58 -156.5t-170 -63.5q-98 0 -158 49.5t-60 134.5z" />
    <glyph glyph-name="Agrave" unicode="&#xc0;" horiz-adv-x="665" 
d="M10 0l256 688h133l256 -688h-119l-59 167h-294l-59 -167h-114zM333 576h-4l-112 -315h227zM294 768l-146 164h120l102 -164h-76z" />
    <glyph glyph-name="Aacute" unicode="&#xc1;" horiz-adv-x="665" 
d="M10 0l256 688h133l256 -688h-119l-59 167h-294l-59 -167h-114zM333 576h-4l-112 -315h227zM293 768l102 164h120l-146 -164h-76z" />
    <glyph glyph-name="Acircumflex" unicode="&#xc2;" horiz-adv-x="665" 
d="M10 0l256 688h133l256 -688h-119l-59 167h-294l-59 -167h-114zM333 576h-4l-112 -315h227zM159 768l128 164h89l128 -164h-95l-78 106l-77 -106h-95z" />
    <glyph glyph-name="Atilde" unicode="&#xc3;" horiz-adv-x="665" 
d="M10 0l256 688h133l256 -688h-119l-59 167h-294l-59 -167h-114zM333 576h-4l-112 -315h227zM162 791q2 53 27.5 85t72.5 32q32 0 79.5 -23t63.5 -23q34 0 42 48h54q-2 -53 -27.5 -85t-72.5 -32q-32 0 -80 23t-63 23q-36 0 -42 -48h-54z" />
    <glyph glyph-name="Adieresis" unicode="&#xc4;" horiz-adv-x="665" 
d="M10 0l256 688h133l256 -688h-119l-59 167h-294l-59 -167h-114zM333 576h-4l-112 -315h227zM385 800v104h102v-104h-102zM175 800v104h103v-104h-103z" />
    <glyph glyph-name="Aring" unicode="&#xc5;" horiz-adv-x="665" 
d="M10 0l256 688h133l256 -688h-119l-59 167h-294l-59 -167h-114zM333 576h-4l-112 -315h227zM331 759q-43 0 -73 28t-30 71t30.5 71t72.5 28q43 0 73.5 -28t30.5 -71t-30.5 -71t-73.5 -28zM331 808q21 0 36 14.5t15 35.5t-15 35.5t-36 14.5t-35.5 -14.5t-14.5 -35.5
t15 -35.5t35 -14.5z" />
    <glyph glyph-name="AE" unicode="&#xc6;" horiz-adv-x="1091" 
d="M8 0l497 688h526v-96h-370v-195h296v-93h-296v-208h379v-96h-492v157h-297l-112 -157h-131zM544 567l-227 -317h231v317h-4z" />
    <glyph glyph-name="Ccedilla" unicode="&#xc7;" horiz-adv-x="722" 
d="M332 -86l26 75q-142 7 -228 105.5t-86 249.5q0 155 93.5 255.5t244.5 100.5q122 0 199.5 -63t98.5 -171h-115q-37 134 -183 134q-100 0 -160.5 -71t-60.5 -185q0 -112 60.5 -184t157.5 -72q149 0 186 134h115q-20 -103 -93.5 -165.5t-188.5 -67.5v-26q44 -2 68 -26.5
t24 -60.5q0 -43 -30 -69.5t-87 -26.5h-61v59h53q49 0 49 38q0 37 -49 37h-33z" />
    <glyph glyph-name="Egrave" unicode="&#xc8;" horiz-adv-x="626" 
d="M84 0v688h482v-96h-369v-195h296v-93h-296v-208h378v-96h-491zM289 768l-146 164h120l102 -164h-76z" />
    <glyph glyph-name="Eacute" unicode="&#xc9;" horiz-adv-x="626" 
d="M84 0v688h482v-96h-369v-195h296v-93h-296v-208h378v-96h-491zM288 768l102 164h120l-146 -164h-76z" />
    <glyph glyph-name="Ecircumflex" unicode="&#xca;" horiz-adv-x="626" 
d="M84 0v688h482v-96h-369v-195h296v-93h-296v-208h378v-96h-491zM154 768l128 164h89l128 -164h-95l-78 106l-77 -106h-95z" />
    <glyph glyph-name="Edieresis" unicode="&#xcb;" horiz-adv-x="626" 
d="M84 0v688h482v-96h-369v-195h296v-93h-296v-208h378v-96h-491zM380 800v104h102v-104h-102zM170 800v104h103v-104h-103z" />
    <glyph glyph-name="Igrave" unicode="&#xcc;" horiz-adv-x="282" 
d="M84 0v688h113v-688h-113zM104 768l-146 164h120l102 -164h-76z" />
    <glyph glyph-name="Iacute" unicode="&#xcd;" horiz-adv-x="282" 
d="M84 0v688h113v-688h-113zM103 768l102 164h120l-146 -164h-76z" />
    <glyph glyph-name="Icircumflex" unicode="&#xce;" horiz-adv-x="282" 
d="M84 0v688h113v-688h-113zM-31 768l128 164h89l128 -164h-95l-78 106l-77 -106h-95z" />
    <glyph glyph-name="Idieresis" unicode="&#xcf;" horiz-adv-x="282" 
d="M84 0v688h113v-688h-113zM195 800v104h102v-104h-102zM-15 800v104h103v-104h-103z" />
    <glyph glyph-name="Eth" unicode="&#xd0;" horiz-adv-x="720" 
d="M4 306v79h80v303h229q174 0 268.5 -94.5t94.5 -249.5t-94.5 -249.5t-268.5 -94.5h-229v306h-80zM308 592h-111v-207h155v-79h-155v-210h111q129 0 189.5 69.5t60.5 178.5t-60.5 178.5t-189.5 69.5z" />
    <glyph glyph-name="Ntilde" unicode="&#xd1;" horiz-adv-x="749" 
d="M84 0v688h105l362 -496h4l-4 496h114v-688h-104l-364 494h-4l4 -494h-113zM205 791q2 53 27.5 85t72.5 32q32 0 79.5 -23t63.5 -23q34 0 42 48h54q-2 -53 -27.5 -85t-72.5 -32q-32 0 -80 23t-63 23q-36 0 -42 -48h-54z" />
    <glyph glyph-name="Ograve" unicode="&#xd2;" horiz-adv-x="775" 
d="M44 344q0 156 94.5 256t248.5 100q151 0 247.5 -100.5t96.5 -255.5t-96.5 -255.5t-247.5 -100.5q-154 0 -248.5 100t-94.5 256zM161 344q0 -112 62.5 -184t163.5 -72q102 0 164.5 72t62.5 184t-62.5 184t-164.5 72q-101 0 -163.5 -72t-62.5 -184zM350 768l-146 164h120
l102 -164h-76z" />
    <glyph glyph-name="Oacute" unicode="&#xd3;" horiz-adv-x="775" 
d="M44 344q0 156 94.5 256t248.5 100q151 0 247.5 -100.5t96.5 -255.5t-96.5 -255.5t-247.5 -100.5q-154 0 -248.5 100t-94.5 256zM161 344q0 -112 62.5 -184t163.5 -72q102 0 164.5 72t62.5 184t-62.5 184t-164.5 72q-101 0 -163.5 -72t-62.5 -184zM349 768l102 164h120
l-146 -164h-76z" />
    <glyph glyph-name="Ocircumflex" unicode="&#xd4;" horiz-adv-x="775" 
d="M44 344q0 156 94.5 256t248.5 100q151 0 247.5 -100.5t96.5 -255.5t-96.5 -255.5t-247.5 -100.5q-154 0 -248.5 100t-94.5 256zM161 344q0 -112 62.5 -184t163.5 -72q102 0 164.5 72t62.5 184t-62.5 184t-164.5 72q-101 0 -163.5 -72t-62.5 -184zM215 768l128 164h89
l128 -164h-95l-78 106l-77 -106h-95z" />
    <glyph glyph-name="Otilde" unicode="&#xd5;" horiz-adv-x="775" 
d="M44 344q0 156 94.5 256t248.5 100q151 0 247.5 -100.5t96.5 -255.5t-96.5 -255.5t-247.5 -100.5q-154 0 -248.5 100t-94.5 256zM161 344q0 -112 62.5 -184t163.5 -72q102 0 164.5 72t62.5 184t-62.5 184t-164.5 72q-101 0 -163.5 -72t-62.5 -184zM218 791q2 53 27.5 85
t72.5 32q32 0 79.5 -23t63.5 -23q34 0 42 48h54q-2 -53 -27.5 -85t-72.5 -32q-32 0 -80 23t-63 23q-36 0 -42 -48h-54z" />
    <glyph glyph-name="Odieresis" unicode="&#xd6;" horiz-adv-x="775" 
d="M44 344q0 156 94.5 256t248.5 100q151 0 247.5 -100.5t96.5 -255.5t-96.5 -255.5t-247.5 -100.5q-154 0 -248.5 100t-94.5 256zM161 344q0 -112 62.5 -184t163.5 -72q102 0 164.5 72t62.5 184t-62.5 184t-164.5 72q-101 0 -163.5 -72t-62.5 -184zM441 800v104h102v-104
h-102zM231 800v104h103v-104h-103z" />
    <glyph glyph-name="multiply" unicode="&#xd7;" horiz-adv-x="568" 
d="M71 406l63 62l150 -152l150 152l63 -62l-151 -152l152 -153l-63 -62l-151 152l-151 -152l-63 62l152 153z" />
    <glyph glyph-name="Oslash" unicode="&#xd8;" horiz-adv-x="775" 
d="M57 -12l82 101q-95 98 -95 255q0 155 95.5 255.5t247.5 100.5q113 0 199 -61l49 61h83l-83 -102q96 -102 96 -254q0 -154 -97 -255t-247 -101q-115 0 -200 59l-48 -59h-82zM614 344q0 98 -50 167l-309 -381q56 -42 132 -42q102 0 164.5 72t62.5 184zM161 344
q0 -101 49 -168l309 381q-57 43 -132 43q-101 0 -163.5 -72t-62.5 -184z" />
    <glyph glyph-name="Ugrave" unicode="&#xd9;" horiz-adv-x="713" 
d="M70 274v414h113v-413q0 -90 43.5 -138.5t129.5 -48.5t129.5 48t43.5 139v413h113v-414q0 -286 -286 -286q-134 0 -210 68.5t-76 217.5zM319 768l-146 164h120l102 -164h-76z" />
    <glyph glyph-name="Uacute" unicode="&#xda;" horiz-adv-x="713" 
d="M70 274v414h113v-413q0 -90 43.5 -138.5t129.5 -48.5t129.5 48t43.5 139v413h113v-414q0 -286 -286 -286q-134 0 -210 68.5t-76 217.5zM318 768l102 164h120l-146 -164h-76z" />
    <glyph glyph-name="Ucircumflex" unicode="&#xdb;" horiz-adv-x="713" 
d="M70 274v414h113v-413q0 -90 43.5 -138.5t129.5 -48.5t129.5 48t43.5 139v413h113v-414q0 -286 -286 -286q-134 0 -210 68.5t-76 217.5zM184 768l128 164h89l128 -164h-95l-78 106l-77 -106h-95z" />
    <glyph glyph-name="Udieresis" unicode="&#xdc;" horiz-adv-x="713" 
d="M70 274v414h113v-413q0 -90 43.5 -138.5t129.5 -48.5t129.5 48t43.5 139v413h113v-414q0 -286 -286 -286q-134 0 -210 68.5t-76 217.5zM410 800v104h102v-104h-102zM200 800v104h103v-104h-103z" />
    <glyph glyph-name="Yacute" unicode="&#xdd;" horiz-adv-x="637" 
d="M260 0v266l-249 422h128l178 -310h4l185 310h119l-252 -417v-271h-113zM280 768l102 164h120l-146 -164h-76z" />
    <glyph glyph-name="Thorn" unicode="&#xde;" horiz-adv-x="655" 
d="M84 0v688h113v-109h166q118 0 183.5 -61.5t65.5 -162.5q0 -102 -66 -167t-183 -65h-166v-123h-113zM358 485h-161v-268h161q68 0 104 38.5t36 98.5q0 59 -36 95t-104 36z" />
    <glyph glyph-name="germandbls" unicode="&#xdf;" horiz-adv-x="591" 
d="M73 0v506q0 118 62.5 178t167.5 60q98 0 147.5 -45.5t49.5 -110.5q0 -34 -15.5 -63t-34 -44.5t-34 -35t-15.5 -38.5t16.5 -36.5t40.5 -34t48 -36t40.5 -51.5t16.5 -73q0 -84 -55.5 -130t-142.5 -46h-95v86h88q45 0 71 21t26 59q0 28 -16 49.5t-38.5 36.5l-45.5 31
t-39 44.5t-16 66.5q0 35 15.5 63t34.5 43.5t34.5 37.5t15.5 47q0 31 -26 53t-75 22q-55 0 -86.5 -36.5t-31.5 -114.5v-509h-108z" />
    <glyph glyph-name="agrave" unicode="&#xe0;" horiz-adv-x="541" 
d="M45 125q0 62 39 98.5t124 50.5l95 16q37 6 50 12.5t13 20.5q0 96 -96 96q-47 0 -73.5 -23t-29.5 -63h-103q5 76 60 121.5t146 45.5q101 0 152.5 -46t51.5 -133v-321h-103v61h-5q-45 -73 -156 -73q-79 0 -122 37t-43 100zM366 200v45q-14 -17 -50 -23l-84 -14
q-79 -12 -79 -72q0 -31 21.5 -49t61.5 -18q55 0 92.5 34t37.5 97zM238 568l-146 164h120l102 -164h-76z" />
    <glyph glyph-name="aacute" unicode="&#xe1;" horiz-adv-x="541" 
d="M45 125q0 62 39 98.5t124 50.5l95 16q37 6 50 12.5t13 20.5q0 96 -96 96q-47 0 -73.5 -23t-29.5 -63h-103q5 76 60 121.5t146 45.5q101 0 152.5 -46t51.5 -133v-321h-103v61h-5q-45 -73 -156 -73q-79 0 -122 37t-43 100zM366 200v45q-14 -17 -50 -23l-84 -14
q-79 -12 -79 -72q0 -31 21.5 -49t61.5 -18q55 0 92.5 34t37.5 97zM221 568l102 164h120l-146 -164h-76z" />
    <glyph glyph-name="acircumflex" unicode="&#xe2;" horiz-adv-x="541" 
d="M45 125q0 62 39 98.5t124 50.5l95 16q37 6 50 12.5t13 20.5q0 96 -96 96q-47 0 -73.5 -23t-29.5 -63h-103q5 76 60 121.5t146 45.5q101 0 152.5 -46t51.5 -133v-321h-103v61h-5q-45 -73 -156 -73q-79 0 -122 37t-43 100zM366 200v45q-14 -17 -50 -23l-84 -14
q-79 -12 -79 -72q0 -31 21.5 -49t61.5 -18q55 0 92.5 34t37.5 97zM95 568l128 164h89l128 -164h-95l-78 106l-77 -106h-95z" />
    <glyph glyph-name="atilde" unicode="&#xe3;" horiz-adv-x="541" 
d="M45 125q0 62 39 98.5t124 50.5l95 16q37 6 50 12.5t13 20.5q0 96 -96 96q-47 0 -73.5 -23t-29.5 -63h-103q5 76 60 121.5t146 45.5q101 0 152.5 -46t51.5 -133v-321h-103v61h-5q-45 -73 -156 -73q-79 0 -122 37t-43 100zM366 200v45q-14 -17 -50 -23l-84 -14
q-79 -12 -79 -72q0 -31 21.5 -49t61.5 -18q55 0 92.5 34t37.5 97zM98 591q2 53 27.5 85t72.5 32q32 0 79.5 -23t63.5 -23q34 0 42 48h54q-2 -53 -27.5 -85t-72.5 -32q-32 0 -80 23t-63 23q-36 0 -42 -48h-54z" />
    <glyph glyph-name="adieresis" unicode="&#xe4;" horiz-adv-x="541" 
d="M45 125q0 62 39 98.5t124 50.5l95 16q37 6 50 12.5t13 20.5q0 96 -96 96q-47 0 -73.5 -23t-29.5 -63h-103q5 76 60 121.5t146 45.5q101 0 152.5 -46t51.5 -133v-321h-103v61h-5q-45 -73 -156 -73q-79 0 -122 37t-43 100zM366 200v45q-14 -17 -50 -23l-84 -14
q-79 -12 -79 -72q0 -31 21.5 -49t61.5 -18q55 0 92.5 34t37.5 97zM321 600v104h102v-104h-102zM111 600v104h103v-104h-103z" />
    <glyph glyph-name="aring" unicode="&#xe5;" horiz-adv-x="541" 
d="M45 125q0 62 39 98.5t124 50.5l95 16q37 6 50 12.5t13 20.5q0 96 -96 96q-47 0 -73.5 -23t-29.5 -63h-103q5 76 60 121.5t146 45.5q101 0 152.5 -46t51.5 -133v-321h-103v61h-5q-45 -73 -156 -73q-79 0 -122 37t-43 100zM366 200v45q-14 -17 -50 -23l-84 -14
q-79 -12 -79 -72q0 -31 21.5 -49t61.5 -18q55 0 92.5 34t37.5 97zM267 559q-43 0 -73 28t-30 71t30.5 71t72.5 28q43 0 73.5 -28t30.5 -71t-30.5 -71t-73.5 -28zM267 608q21 0 36 14.5t15 35.5t-15 35.5t-36 14.5t-35.5 -14.5t-14.5 -35.5t15 -35.5t35 -14.5z" />
    <glyph glyph-name="ae" unicode="&#xe6;" horiz-adv-x="856" 
d="M64 333q6 84 63.5 125.5t142.5 41.5q117 0 165 -65q60 65 163 65q100 0 161 -63.5t61 -174.5v-36h-347q4 -73 38.5 -113t90.5 -40q87 0 107 75h106q-11 -67 -70 -113.5t-144 -46.5q-134 0 -192 98q-58 -98 -193 -98q-82 0 -126.5 37t-44.5 100q0 123 163 149l95 16
q39 6 51 13.5t12 25.5q0 39 -24 64.5t-72 25.5q-44 0 -72 -22t-31 -64h-103zM366 200v45q-14 -17 -50 -23l-84 -14q-79 -13 -79 -72q0 -67 83 -67q56 0 93 33t37 98zM598 416q-48 0 -79 -31t-42 -87h231q-4 56 -32.5 87t-77.5 31z" />
    <glyph glyph-name="ccedilla" unicode="&#xe7;" horiz-adv-x="534" 
d="M234 -86l26 75q-104 6 -163 73.5t-59 181.5q0 117 68 186.5t175 69.5q97 0 155 -50t67 -129h-107q-7 41 -36 66.5t-79 25.5q-57 0 -94 -47t-37 -122t37 -122t94 -47q98 0 115 92h107q-9 -75 -61 -124t-142 -54v-26q44 -2 68 -26.5t24 -60.5q0 -43 -30 -69.5t-87 -26.5
h-61v59h53q49 0 49 38q0 37 -49 37h-33z" />
    <glyph glyph-name="egrave" unicode="&#xe8;" horiz-adv-x="544" 
d="M38 243q0 115 68 186t174 71q104 0 166 -63t62 -175v-36h-359q5 -71 41 -112t94 -41q48 0 76.5 21.5t36.5 53.5h106q-11 -68 -71 -114t-149 -46q-117 0 -181 67.5t-64 187.5zM280 416q-48 0 -81.5 -31t-44.5 -86h244q-13 117 -118 117zM243 568l-146 164h120l102 -164
h-76z" />
    <glyph glyph-name="eacute" unicode="&#xe9;" horiz-adv-x="544" 
d="M38 243q0 115 68 186t174 71q104 0 166 -63t62 -175v-36h-359q5 -71 41 -112t94 -41q48 0 76.5 21.5t36.5 53.5h106q-11 -68 -71 -114t-149 -46q-117 0 -181 67.5t-64 187.5zM280 416q-48 0 -81.5 -31t-44.5 -86h244q-13 117 -118 117zM242 568l102 164h120l-146 -164
h-76z" />
    <glyph glyph-name="ecircumflex" unicode="&#xea;" horiz-adv-x="544" 
d="M38 243q0 115 68 186t174 71q104 0 166 -63t62 -175v-36h-359q5 -71 41 -112t94 -41q48 0 76.5 21.5t36.5 53.5h106q-11 -68 -71 -114t-149 -46q-117 0 -181 67.5t-64 187.5zM280 416q-48 0 -81.5 -31t-44.5 -86h244q-13 117 -118 117zM108 568l128 164h89l128 -164h-95
l-78 106l-77 -106h-95z" />
    <glyph glyph-name="edieresis" unicode="&#xeb;" horiz-adv-x="544" 
d="M38 243q0 115 68 186t174 71q104 0 166 -63t62 -175v-36h-359q5 -71 41 -112t94 -41q48 0 76.5 21.5t36.5 53.5h106q-11 -68 -71 -114t-149 -46q-117 0 -181 67.5t-64 187.5zM280 416q-48 0 -81.5 -31t-44.5 -86h244q-13 117 -118 117zM334 600v104h102v-104h-102z
M124 600v104h103v-104h-103z" />
    <glyph glyph-name="igrave" unicode="&#xec;" horiz-adv-x="255" 
d="M73 0v488h108v-488h-108zM90 568l-146 164h120l102 -164h-76z" />
    <glyph glyph-name="iacute" unicode="&#xed;" horiz-adv-x="255" 
d="M73 0v488h108v-488h-108zM89 568l102 164h120l-146 -164h-76z" />
    <glyph glyph-name="icircumflex" unicode="&#xee;" horiz-adv-x="255" 
d="M73 0v488h108v-488h-108zM-45 568l128 164h89l128 -164h-95l-78 106l-77 -106h-95z" />
    <glyph glyph-name="idieresis" unicode="&#xef;" horiz-adv-x="255" 
d="M73 0v488h108v-488h-108zM181 600v104h102v-104h-102zM-29 600v104h103v-104h-103z" />
    <glyph glyph-name="eth" unicode="&#xf0;" horiz-adv-x="593" 
d="M209 512l-36 51l84 58q-50 25 -119 46l26 77q104 -30 173 -68l97 67l35 -52l-75 -52q76 -57 115 -144t39 -225v-2q0 -135 -69 -207.5t-184 -72.5t-183 66.5t-68 173.5q0 105 69 172.5t170 67.5q94 0 141 -55h5q-32 111 -113 172zM155 228q0 -67 39 -110t101 -43t101 42.5
t39 110.5q0 69 -38.5 111t-101.5 42q-62 0 -101 -43t-39 -110z" />
    <glyph glyph-name="ntilde" unicode="&#xf1;" horiz-adv-x="581" 
d="M73 0v488h104v-71h4q42 83 151 83q81 0 132 -48.5t51 -155.5v-296h-108v282q0 130 -104 130q-53 0 -87.5 -42.5t-34.5 -114.5v-255h-108zM124 591q2 53 27.5 85t72.5 32q32 0 79.5 -23t63.5 -23q34 0 42 48h54q-2 -53 -27.5 -85t-72.5 -32q-32 0 -80 23t-63 23
q-36 0 -42 -48h-54z" />
    <glyph glyph-name="ograve" unicode="&#xf2;" horiz-adv-x="577" 
d="M39 244q0 117 69.5 186.5t179.5 69.5q114 0 181.5 -68.5t67.5 -187.5q0 -117 -69.5 -186.5t-179.5 -69.5q-114 0 -181.5 68.5t-67.5 187.5zM151 244q0 -76 37.5 -122.5t99.5 -46.5t99.5 46.5t37.5 122.5q0 79 -37.5 124t-99.5 45t-99.5 -46.5t-37.5 -122.5zM251 568
l-146 164h120l102 -164h-76z" />
    <glyph glyph-name="oacute" unicode="&#xf3;" horiz-adv-x="577" 
d="M39 244q0 117 69.5 186.5t179.5 69.5q114 0 181.5 -68.5t67.5 -187.5q0 -117 -69.5 -186.5t-179.5 -69.5q-114 0 -181.5 68.5t-67.5 187.5zM151 244q0 -76 37.5 -122.5t99.5 -46.5t99.5 46.5t37.5 122.5q0 79 -37.5 124t-99.5 45t-99.5 -46.5t-37.5 -122.5zM250 568
l102 164h120l-146 -164h-76z" />
    <glyph glyph-name="ocircumflex" unicode="&#xf4;" horiz-adv-x="577" 
d="M39 244q0 117 69.5 186.5t179.5 69.5q114 0 181.5 -68.5t67.5 -187.5q0 -117 -69.5 -186.5t-179.5 -69.5q-114 0 -181.5 68.5t-67.5 187.5zM151 244q0 -76 37.5 -122.5t99.5 -46.5t99.5 46.5t37.5 122.5q0 79 -37.5 124t-99.5 45t-99.5 -46.5t-37.5 -122.5zM116 568
l128 164h89l128 -164h-95l-78 106l-77 -106h-95z" />
    <glyph glyph-name="otilde" unicode="&#xf5;" horiz-adv-x="577" 
d="M39 244q0 117 69.5 186.5t179.5 69.5q114 0 181.5 -68.5t67.5 -187.5q0 -117 -69.5 -186.5t-179.5 -69.5q-114 0 -181.5 68.5t-67.5 187.5zM151 244q0 -76 37.5 -122.5t99.5 -46.5t99.5 46.5t37.5 122.5q0 79 -37.5 124t-99.5 45t-99.5 -46.5t-37.5 -122.5zM119 591
q2 53 27.5 85t72.5 32q32 0 79.5 -23t63.5 -23q34 0 42 48h54q-2 -53 -27.5 -85t-72.5 -32q-32 0 -80 23t-63 23q-36 0 -42 -48h-54z" />
    <glyph glyph-name="odieresis" unicode="&#xf6;" horiz-adv-x="577" 
d="M39 244q0 117 69.5 186.5t179.5 69.5q114 0 181.5 -68.5t67.5 -187.5q0 -117 -69.5 -186.5t-179.5 -69.5q-114 0 -181.5 68.5t-67.5 187.5zM151 244q0 -76 37.5 -122.5t99.5 -46.5t99.5 46.5t37.5 122.5q0 79 -37.5 124t-99.5 45t-99.5 -46.5t-37.5 -122.5zM342 600v104
h102v-104h-102zM132 600v104h103v-104h-103z" />
    <glyph glyph-name="divide" unicode="&#xf7;" horiz-adv-x="568" 
d="M231 380v108h106v-108h-106zM56 210v88h456v-88h-456zM231 19v108h106v-108h-106z" />
    <glyph glyph-name="oslash" unicode="&#xf8;" horiz-adv-x="575" 
d="M45 -12l58 71q-65 70 -65 185q0 116 69.5 186t179.5 70q84 0 145 -39l32 39h70l-61 -74q64 -69 64 -182q0 -116 -69.5 -186t-180.5 -70q-83 0 -143 37l-30 -37h-69zM150 244q0 -58 22 -100l197 240q-34 29 -82 29q-62 0 -99.5 -46.5t-37.5 -122.5zM424 244q0 55 -21 97
l-196 -239q33 -27 80 -27q62 0 99.5 46.5t37.5 122.5z" />
    <glyph glyph-name="ugrave" unicode="&#xf9;" horiz-adv-x="577" 
d="M65 192v296h108v-282q0 -130 104 -130q53 0 86 43t33 117v252h108v-488h-103v71h-4q-42 -83 -148 -83q-81 0 -132.5 48.5t-51.5 155.5zM253 568l-146 164h120l102 -164h-76z" />
    <glyph glyph-name="uacute" unicode="&#xfa;" horiz-adv-x="577" 
d="M65 192v296h108v-282q0 -130 104 -130q53 0 86 43t33 117v252h108v-488h-103v71h-4q-42 -83 -148 -83q-81 0 -132.5 48.5t-51.5 155.5zM252 568l102 164h120l-146 -164h-76z" />
    <glyph glyph-name="ucircumflex" unicode="&#xfb;" horiz-adv-x="577" 
d="M65 192v296h108v-282q0 -130 104 -130q53 0 86 43t33 117v252h108v-488h-103v71h-4q-42 -83 -148 -83q-81 0 -132.5 48.5t-51.5 155.5zM118 568l128 164h89l128 -164h-95l-78 106l-77 -106h-95z" />
    <glyph glyph-name="udieresis" unicode="&#xfc;" horiz-adv-x="577" 
d="M65 192v296h108v-282q0 -130 104 -130q53 0 86 43t33 117v252h108v-488h-103v71h-4q-42 -83 -148 -83q-81 0 -132.5 48.5t-51.5 155.5zM344 600v104h102v-104h-102zM134 600v104h103v-104h-103z" />
    <glyph glyph-name="yacute" unicode="&#xfd;" horiz-adv-x="493" 
d="M186 0l-182 488h118l127 -376h4l127 376h109l-201 -556q-57 -160 -187 -160h-54v89h32q84 0 118 95l15 44h-26zM207 568l102 164h120l-146 -164h-76z" />
    <glyph glyph-name="thorn" unicode="&#xfe;" horiz-adv-x="600" 
d="M561 248q0 -118 -64.5 -189t-161.5 -71q-111 0 -154 85h-4q4 -65 4 -164v-129h-108v952h108v-153q0 -100 -4 -164h4q43 85 162 85q95 0 156.5 -67t61.5 -185zM448 248q0 78 -37 121.5t-96 43.5q-57 0 -94.5 -43t-39.5 -118v-8q0 -78 37.5 -123.5t96.5 -45.5t96 47t37 126
z" />
    <glyph glyph-name="ydieresis" unicode="&#xff;" horiz-adv-x="493" 
d="M186 0l-182 488h118l127 -376h4l127 376h109l-201 -556q-57 -160 -187 -160h-54v89h32q84 0 118 95l15 44h-26zM299 600v104h102v-104h-102zM89 600v104h103v-104h-103z" />
    <glyph glyph-name="Amacron" unicode="&#x100;" horiz-adv-x="665" 
d="M10 0l256 688h133l256 -688h-119l-59 167h-294l-59 -167h-114zM333 576h-4l-112 -315h227zM186 811v78h287v-78h-287z" />
    <glyph glyph-name="amacron" unicode="&#x101;" horiz-adv-x="541" 
d="M45 125q0 62 39 98.5t124 50.5l95 16q37 6 50 12.5t13 20.5q0 96 -96 96q-47 0 -73.5 -23t-29.5 -63h-103q5 76 60 121.5t146 45.5q101 0 152.5 -46t51.5 -133v-321h-103v61h-5q-45 -73 -156 -73q-79 0 -122 37t-43 100zM366 200v45q-14 -17 -50 -23l-84 -14
q-79 -12 -79 -72q0 -31 21.5 -49t61.5 -18q55 0 92.5 34t37.5 97zM122 611v78h287v-78h-287z" />
    <glyph glyph-name="Abreve" unicode="&#x102;" horiz-adv-x="665" 
d="M10 0l256 688h133l256 -688h-119l-59 167h-294l-59 -167h-114zM333 576h-4l-112 -315h227zM331 777q-57 0 -99.5 35t-49.5 111h63q13 -81 86 -81q74 0 87 81h63q-7 -76 -49.5 -111t-100.5 -35z" />
    <glyph glyph-name="abreve" unicode="&#x103;" horiz-adv-x="541" 
d="M45 125q0 62 39 98.5t124 50.5l95 16q37 6 50 12.5t13 20.5q0 96 -96 96q-47 0 -73.5 -23t-29.5 -63h-103q5 76 60 121.5t146 45.5q101 0 152.5 -46t51.5 -133v-321h-103v61h-5q-45 -73 -156 -73q-79 0 -122 37t-43 100zM366 200v45q-14 -17 -50 -23l-84 -14
q-79 -12 -79 -72q0 -31 21.5 -49t61.5 -18q55 0 92.5 34t37.5 97zM267 577q-57 0 -99.5 35t-49.5 111h63q13 -81 86 -81q74 0 87 81h63q-7 -76 -49.5 -111t-100.5 -35z" />
    <glyph glyph-name="Aogonek" unicode="&#x104;" horiz-adv-x="665" 
d="M519 -128q0 61 81 128h-64l-59 167h-294l-59 -167h-114l256 688h133l256 -688h1q-60 -63 -60 -108q0 -46 53 -46h29v-66h-40q-58 0 -88.5 24.5t-30.5 67.5zM333 576h-4l-112 -315h227z" />
    <glyph glyph-name="aogonek" unicode="&#x105;" horiz-adv-x="541" 
d="M337 -128q0 61 81 128h-47v61h-5q-45 -73 -156 -73q-79 0 -122 37t-43 100q0 62 39 98.5t124 50.5l95 16q37 6 50 12.5t13 20.5q0 96 -96 96q-47 0 -73.5 -23t-29.5 -63h-103q5 76 60 121.5t146 45.5q101 0 152.5 -46t51.5 -133v-321q-60 -63 -60 -108q0 -46 53 -46h29
v-66h-40q-58 0 -88.5 24.5t-30.5 67.5zM366 200v45q-14 -17 -50 -23l-84 -14q-79 -12 -79 -72q0 -31 21.5 -49t61.5 -18q55 0 92.5 34t37.5 97z" />
    <glyph glyph-name="Cacute" unicode="&#x106;" horiz-adv-x="722" 
d="M44 344q0 155 93.5 255.5t244.5 100.5q122 0 199.5 -63t98.5 -171h-115q-37 134 -183 134q-100 0 -160.5 -71t-60.5 -185q0 -112 60.5 -184t157.5 -72q149 0 186 134h115q-21 -108 -100 -171t-202 -63q-150 0 -242 99.5t-92 256.5zM344 768l102 164h120l-146 -164h-76z
" />
    <glyph glyph-name="cacute" unicode="&#x107;" horiz-adv-x="534" 
d="M38 244q0 117 68 186.5t175 69.5q97 0 155 -50t67 -129h-107q-7 41 -36 66.5t-79 25.5q-57 0 -94 -47t-37 -122t37 -122t94 -47q98 0 115 92h107q-9 -80 -66.5 -129.5t-155.5 -49.5q-113 0 -178 68t-65 188zM243 568l102 164h120l-146 -164h-76z" />
    <glyph glyph-name="Ccircumflex" unicode="&#x108;" horiz-adv-x="722" 
d="M44 344q0 155 93.5 255.5t244.5 100.5q122 0 199.5 -63t98.5 -171h-115q-37 134 -183 134q-100 0 -160.5 -71t-60.5 -185q0 -112 60.5 -184t157.5 -72q149 0 186 134h115q-21 -108 -100 -171t-202 -63q-150 0 -242 99.5t-92 256.5zM210 768l128 164h89l128 -164h-95
l-78 106l-77 -106h-95z" />
    <glyph glyph-name="ccircumflex" unicode="&#x109;" horiz-adv-x="534" 
d="M38 244q0 117 68 186.5t175 69.5q97 0 155 -50t67 -129h-107q-7 41 -36 66.5t-79 25.5q-57 0 -94 -47t-37 -122t37 -122t94 -47q98 0 115 92h107q-9 -80 -66.5 -129.5t-155.5 -49.5q-113 0 -178 68t-65 188zM109 568l128 164h89l128 -164h-95l-78 106l-77 -106h-95z" />
    <glyph glyph-name="Cdotaccent" unicode="&#x10a;" horiz-adv-x="722" 
d="M44 344q0 155 93.5 255.5t244.5 100.5q122 0 199.5 -63t98.5 -171h-115q-37 134 -183 134q-100 0 -160.5 -71t-60.5 -185q0 -112 60.5 -184t157.5 -72q149 0 186 134h115q-21 -108 -100 -171t-202 -63q-150 0 -242 99.5t-92 256.5zM331 800v104h103v-104h-103z" />
    <glyph glyph-name="cdotaccent" unicode="&#x10b;" horiz-adv-x="534" 
d="M38 244q0 117 68 186.5t175 69.5q97 0 155 -50t67 -129h-107q-7 41 -36 66.5t-79 25.5q-57 0 -94 -47t-37 -122t37 -122t94 -47q98 0 115 92h107q-9 -80 -66.5 -129.5t-155.5 -49.5q-113 0 -178 68t-65 188zM230 600v104h103v-104h-103z" />
    <glyph glyph-name="Ccaron" unicode="&#x10c;" horiz-adv-x="722" 
d="M44 344q0 155 93.5 255.5t244.5 100.5q122 0 199.5 -63t98.5 -171h-115q-37 134 -183 134q-100 0 -160.5 -71t-60.5 -185q0 -112 60.5 -184t157.5 -72q149 0 186 134h115q-21 -108 -100 -171t-202 -63q-150 0 -242 99.5t-92 256.5zM338 768l-128 164h95l77 -106l78 106
h95l-128 -164h-89z" />
    <glyph glyph-name="ccaron" unicode="&#x10d;" horiz-adv-x="534" 
d="M38 244q0 117 68 186.5t175 69.5q97 0 155 -50t67 -129h-107q-7 41 -36 66.5t-79 25.5q-57 0 -94 -47t-37 -122t37 -122t94 -47q98 0 115 92h107q-9 -80 -66.5 -129.5t-155.5 -49.5q-113 0 -178 68t-65 188zM237 568l-128 164h95l77 -106l78 106h95l-128 -164h-89z" />
    <glyph glyph-name="Dcaron" unicode="&#x10e;" horiz-adv-x="720" 
d="M84 0v688h229q174 0 268.5 -94.5t94.5 -249.5t-94.5 -249.5t-268.5 -94.5h-229zM308 592h-111v-496h111q129 0 189.5 69.5t60.5 178.5t-60.5 178.5t-189.5 69.5zM288 768l-128 164h95l77 -106l78 106h95l-128 -164h-89z" />
    <glyph glyph-name="dcaron" unicode="&#x10f;" horiz-adv-x="600" 
d="M39 240q0 118 64.5 189t161.5 71q111 0 154 -85h4q-5 64 -5 164v153h108v-732h-103v73h-4q-43 -85 -162 -85q-95 0 -156.5 67t-61.5 185zM151 240q0 -78 37 -121.5t96 -43.5q58 0 95 43t39 118v8q0 79 -37.5 124t-96.5 45q-58 0 -95.5 -47t-37.5 -126zM613 516l32 112
h-45v104h109v-94l-46 -122h-50z" />
    <glyph glyph-name="Dcroat" unicode="&#x110;" horiz-adv-x="720" 
d="M4 306v79h80v303h229q174 0 268.5 -94.5t94.5 -249.5t-94.5 -249.5t-268.5 -94.5h-229v306h-80zM308 592h-111v-207h155v-79h-155v-210h111q129 0 189.5 69.5t60.5 178.5t-60.5 178.5t-189.5 69.5z" />
    <glyph glyph-name="dcroat" unicode="&#x111;" horiz-adv-x="600" 
d="M275 590v65h143v77h108v-77h74v-65h-74v-590h-103v73h-4q-43 -85 -162 -85q-95 0 -156.5 67t-61.5 185t64.5 189t161.5 71q111 0 154 -85h4q-5 64 -5 164v11h-143zM151 240q0 -78 37 -121.5t96 -43.5t96.5 45t37.5 124v8q-2 75 -39 118t-95 43t-95.5 -47t-37.5 -126z" />
    <glyph glyph-name="Emacron" unicode="&#x112;" horiz-adv-x="626" 
d="M84 0v688h482v-96h-369v-195h296v-93h-296v-208h378v-96h-491zM181 811v78h287v-78h-287z" />
    <glyph glyph-name="emacron" unicode="&#x113;" horiz-adv-x="544" 
d="M38 243q0 115 68 186t174 71q104 0 166 -63t62 -175v-36h-359q5 -71 41 -112t94 -41q48 0 76.5 21.5t36.5 53.5h106q-11 -68 -71 -114t-149 -46q-117 0 -181 67.5t-64 187.5zM280 416q-48 0 -81.5 -31t-44.5 -86h244q-13 117 -118 117zM135 611v78h287v-78h-287z" />
    <glyph glyph-name="Ebreve" unicode="&#x114;" horiz-adv-x="626" 
d="M84 0v688h482v-96h-369v-195h296v-93h-296v-208h378v-96h-491zM326 777q-57 0 -99.5 35t-49.5 111h63q13 -81 86 -81q74 0 87 81h63q-7 -76 -49.5 -111t-100.5 -35z" />
    <glyph glyph-name="ebreve" unicode="&#x115;" horiz-adv-x="544" 
d="M38 243q0 115 68 186t174 71q104 0 166 -63t62 -175v-36h-359q5 -71 41 -112t94 -41q48 0 76.5 21.5t36.5 53.5h106q-11 -68 -71 -114t-149 -46q-117 0 -181 67.5t-64 187.5zM280 416q-48 0 -81.5 -31t-44.5 -86h244q-13 117 -118 117zM280 577q-57 0 -99.5 35t-49.5 111
h63q13 -81 86 -81q74 0 87 81h63q-7 -76 -49.5 -111t-100.5 -35z" />
    <glyph glyph-name="Edotaccent" unicode="&#x116;" horiz-adv-x="626" 
d="M84 0v688h482v-96h-369v-195h296v-93h-296v-208h378v-96h-491zM275 800v104h103v-104h-103z" />
    <glyph glyph-name="edotaccent" unicode="&#x117;" horiz-adv-x="544" 
d="M38 243q0 115 68 186t174 71q104 0 166 -63t62 -175v-36h-359q5 -71 41 -112t94 -41q48 0 76.5 21.5t36.5 53.5h106q-11 -68 -71 -114t-149 -46q-117 0 -181 67.5t-64 187.5zM280 416q-48 0 -81.5 -31t-44.5 -86h244q-13 117 -118 117zM229 600v104h103v-104h-103z" />
    <glyph glyph-name="Eogonek" unicode="&#x118;" horiz-adv-x="626" 
d="M84 0v688h482v-96h-369v-195h296v-93h-296v-208h378v-96h1q-60 -63 -60 -108q0 -46 53 -46h29v-66h-40q-58 0 -88.5 24.5t-30.5 67.5q0 61 81 128h-436z" />
    <glyph glyph-name="eogonek" unicode="&#x119;" horiz-adv-x="544" 
d="M215 -123q0 61 78 111h-10q-117 0 -181 67.5t-64 187.5q0 115 68 186t174 71q104 0 166 -63t62 -175v-36h-359q5 -71 41 -112t94 -41q48 0 76.5 21.5t36.5 53.5h106q-14 -79 -92 -128q-117 -73 -117 -125q0 -49 53 -49h29v-66h-40q-121 0 -121 97zM280 416
q-48 0 -81.5 -31t-44.5 -86h244q-13 117 -118 117z" />
    <glyph glyph-name="Ecaron" unicode="&#x11a;" horiz-adv-x="626" 
d="M84 0v688h482v-96h-369v-195h296v-93h-296v-208h378v-96h-491zM282 768l-128 164h95l77 -106l78 106h95l-128 -164h-89z" />
    <glyph glyph-name="ecaron" unicode="&#x11b;" horiz-adv-x="544" 
d="M38 243q0 115 68 186t174 71q104 0 166 -63t62 -175v-36h-359q5 -71 41 -112t94 -41q48 0 76.5 21.5t36.5 53.5h106q-11 -68 -71 -114t-149 -46q-117 0 -181 67.5t-64 187.5zM280 416q-48 0 -81.5 -31t-44.5 -86h244q-13 117 -118 117zM236 568l-128 164h95l77 -106
l78 106h95l-128 -164h-89z" />
    <glyph glyph-name="Gcircumflex" unicode="&#x11c;" horiz-adv-x="767" 
d="M620 0l-15 91h-3q-69 -103 -218 -103q-151 0 -245.5 100.5t-94.5 255.5q0 156 96 256t250 100q123 0 203.5 -61.5t100.5 -157.5h-115q-16 52 -64 85.5t-125 33.5q-103 0 -166 -71.5t-63 -184.5t63 -184.5t163 -71.5q87 0 146 48t59 129v12h-202v91h303v-368h-73zM218 768
l128 164h89l128 -164h-95l-78 106l-77 -106h-95z" />
    <glyph glyph-name="gcircumflex" unicode="&#x11d;" horiz-adv-x="600" 
d="M52 -60h102q1 -40 35 -63.5t88 -23.5q146 0 146 172v48h-4q-43 -85 -162 -85q-95 0 -156.5 67t-61.5 185t64.5 189t161.5 71q111 0 154 -85h4v73h103v-463q0 -131 -67 -192t-182 -61q-101 0 -162.5 43t-62.5 125zM151 240q0 -78 37 -121.5t96 -43.5t96.5 45t37.5 124v8
q-2 75 -39 118t-95 43t-95.5 -47t-37.5 -126zM112 568l128 164h89l128 -164h-95l-78 106l-77 -106h-95z" />
    <glyph glyph-name="Gbreve" unicode="&#x11e;" horiz-adv-x="767" 
d="M620 0l-15 91h-3q-69 -103 -218 -103q-151 0 -245.5 100.5t-94.5 255.5q0 156 96 256t250 100q123 0 203.5 -61.5t100.5 -157.5h-115q-16 52 -64 85.5t-125 33.5q-103 0 -166 -71.5t-63 -184.5t63 -184.5t163 -71.5q87 0 146 48t59 129v12h-202v91h303v-368h-73zM390 777
q-57 0 -99.5 35t-49.5 111h63q13 -81 86 -81q74 0 87 81h63q-7 -76 -49.5 -111t-100.5 -35z" />
    <glyph glyph-name="gbreve" unicode="&#x11f;" horiz-adv-x="600" 
d="M52 -60h102q1 -40 35 -63.5t88 -23.5q146 0 146 172v48h-4q-43 -85 -162 -85q-95 0 -156.5 67t-61.5 185t64.5 189t161.5 71q111 0 154 -85h4v73h103v-463q0 -131 -67 -192t-182 -61q-101 0 -162.5 43t-62.5 125zM151 240q0 -78 37 -121.5t96 -43.5t96.5 45t37.5 124v8
q-2 75 -39 118t-95 43t-95.5 -47t-37.5 -126zM284 577q-57 0 -99.5 35t-49.5 111h63q13 -81 86 -81q74 0 87 81h63q-7 -76 -49.5 -111t-100.5 -35z" />
    <glyph glyph-name="Gdotaccent" unicode="&#x120;" horiz-adv-x="767" 
d="M620 0l-15 91h-3q-69 -103 -218 -103q-151 0 -245.5 100.5t-94.5 255.5q0 156 96 256t250 100q123 0 203.5 -61.5t100.5 -157.5h-115q-16 52 -64 85.5t-125 33.5q-103 0 -166 -71.5t-63 -184.5t63 -184.5t163 -71.5q87 0 146 48t59 129v12h-202v91h303v-368h-73zM339 800
v104h103v-104h-103z" />
    <glyph glyph-name="gdotaccent" unicode="&#x121;" horiz-adv-x="600" 
d="M52 -60h102q1 -40 35 -63.5t88 -23.5q146 0 146 172v48h-4q-43 -85 -162 -85q-95 0 -156.5 67t-61.5 185t64.5 189t161.5 71q111 0 154 -85h4v73h103v-463q0 -131 -67 -192t-182 -61q-101 0 -162.5 43t-62.5 125zM151 240q0 -78 37 -121.5t96 -43.5t96.5 45t37.5 124v8
q-2 75 -39 118t-95 43t-95.5 -47t-37.5 -126zM233 600v104h103v-104h-103z" />
    <glyph glyph-name="Gcommaaccent" unicode="&#x122;" horiz-adv-x="767" 
d="M620 0l-15 91h-3q-69 -103 -218 -103q-151 0 -245.5 100.5t-94.5 255.5q0 156 96 256t250 100q123 0 203.5 -61.5t100.5 -157.5h-115q-16 52 -64 85.5t-125 33.5q-103 0 -166 -71.5t-63 -184.5t63 -184.5t163 -71.5q87 0 146 48t59 129v12h-202v91h303v-368h-73zM333 -64
h103v-83l-43 -106h-47l30 94h-43v95z" />
    <glyph glyph-name="gcommaaccent" unicode="&#x123;" horiz-adv-x="600" 
d="M52 -60h102q1 -40 35 -63.5t88 -23.5q146 0 146 172v48h-4q-43 -85 -162 -85q-95 0 -156.5 67t-61.5 185t64.5 189t161.5 71q111 0 154 -85h4v73h103v-463q0 -131 -67 -192t-182 -61q-101 0 -162.5 43t-62.5 125zM151 240q0 -78 37 -121.5t96 -43.5t96.5 45t37.5 124v8
q-2 75 -39 118t-95 43t-95.5 -47t-37.5 -126zM233 568v83l43 105h47l-30 -94h43v-94h-103z" />
    <glyph glyph-name="Hcircumflex" unicode="&#x124;" horiz-adv-x="741" 
d="M84 0v688h113v-292h346v292h114v-688h-114v300h-346v-300h-113zM198 768l128 164h89l128 -164h-95l-78 106l-77 -106h-95z" />
    <glyph glyph-name="hcircumflex" unicode="&#x125;" horiz-adv-x="581" 
d="M73 0v732h108v-151q0 -100 -4 -164h4q42 83 151 83q81 0 132 -48.5t51 -155.5v-296h-108v282q0 130 -104 130q-53 0 -87.5 -43.5t-34.5 -114.5v-254h-108zM-45 809l128 164h89l128 -164h-95l-78 106l-77 -106h-95z" />
    <glyph glyph-name="Hbar" unicode="&#x126;" horiz-adv-x="741" 
d="M1 507v79h83v102h113v-102h346v102h114v-102h83v-79h-83v-507h-114v300h-346v-300h-113v507h-83zM197 507v-111h346v111h-346z" />
    <glyph glyph-name="hbar" unicode="&#x127;" horiz-adv-x="581" 
d="M0 590v65h73v77h108v-77h144v-65h-144v-9q0 -100 -4 -164h4q42 83 151 83q81 0 132 -48.5t51 -155.5v-296h-108v282q0 130 -104 130q-53 0 -87.5 -42.5t-34.5 -113.5v-256h-108v590h-73z" />
    <glyph glyph-name="Itilde" unicode="&#x128;" horiz-adv-x="282" 
d="M84 0v688h113v-688h-113zM-28 791q2 53 27.5 85t72.5 32q32 0 79.5 -23t63.5 -23q34 0 42 48h54q-2 -53 -27.5 -85t-72.5 -32q-32 0 -80 23t-63 23q-36 0 -42 -48h-54z" />
    <glyph glyph-name="itilde" unicode="&#x129;" horiz-adv-x="255" 
d="M73 0v488h108v-488h-108zM-42 591q2 53 27.5 85t72.5 32q32 0 79.5 -23t63.5 -23q34 0 42 48h54q-2 -53 -27.5 -85t-72.5 -32q-32 0 -80 23t-63 23q-36 0 -42 -48h-54z" />
    <glyph glyph-name="Imacron" unicode="&#x12a;" horiz-adv-x="282" 
d="M84 0v688h113v-688h-113zM-4 811v78h287v-78h-287z" />
    <glyph glyph-name="imacron" unicode="&#x12b;" horiz-adv-x="255" 
d="M73 0v488h108v-488h-108zM-18 611v78h287v-78h-287z" />
    <glyph glyph-name="Ibreve" unicode="&#x12c;" horiz-adv-x="282" 
d="M84 0v688h113v-688h-113zM141 777q-57 0 -99.5 35t-49.5 111h63q13 -81 86 -81q74 0 87 81h63q-7 -76 -49.5 -111t-100.5 -35z" />
    <glyph glyph-name="ibreve" unicode="&#x12d;" horiz-adv-x="255" 
d="M73 0v488h108v-488h-108zM127 577q-57 0 -99.5 35t-49.5 111h63q13 -81 86 -81q74 0 87 81h63q-7 -76 -49.5 -111t-100.5 -35z" />
    <glyph glyph-name="Iogonek" unicode="&#x12e;" horiz-adv-x="282" 
d="M84 0v688h113v-688h-1q-60 -63 -60 -108q0 -46 53 -46h29v-66h-40q-58 0 -88.5 24.5t-30.5 67.5q0 61 81 128h-56z" />
    <glyph glyph-name="iogonek" unicode="&#x12f;" horiz-adv-x="255" 
d="M73 0v488h108v-488h1q-60 -63 -60 -108q0 -46 53 -46h29v-66h-40q-58 0 -88.5 24.5t-30.5 67.5q0 61 81 128h-53zM69 622v110h116v-110h-116z" />
    <glyph glyph-name="Idotaccent" unicode="&#x130;" horiz-adv-x="282" 
d="M84 0v688h113v-688h-113zM90 800v104h103v-104h-103z" />
    <glyph glyph-name="dotlessi" unicode="&#x131;" horiz-adv-x="255" 
d="M73 0v488h108v-488h-108z" />
    <glyph glyph-name="IJ" unicode="&#x132;" horiz-adv-x="819" 
d="M84 0v688h113v-688h-113zM321 201v32h112v-29q0 -120 100 -120t100 122v482h113v-482q0 -218 -213 -218q-99 0 -155.5 51.5t-56.5 161.5z" />
    <glyph glyph-name="ij" unicode="&#x133;" horiz-adv-x="509" 
d="M69 622v110h116v-110h-116zM73 0v488h108v-488h-108zM324 622v110h116v-110h-116zM328 -59v547h108v-559q0 -72 -35.5 -110.5t-117.5 -38.5h-37v88h25q31 0 44 17.5t13 55.5z" />
    <glyph glyph-name="Jcircumflex" unicode="&#x134;" horiz-adv-x="534" 
d="M36 201v32h112v-26q0 -123 100 -123t100 126v478h113v-482q0 -218 -213 -218q-99 0 -155.5 51.5t-56.5 161.5zM235 768l128 164h89l128 -164h-95l-78 106l-77 -106h-95z" />
    <glyph glyph-name="jcircumflex" unicode="&#x135;" horiz-adv-x="255" 
d="M73 -59v547h108v-559q0 -72 -35 -110.5t-118 -38.5h-37v88h25q31 0 44 17.5t13 55.5zM-45 568l128 164h89l128 -164h-95l-78 106l-77 -106h-95z" />
    <glyph glyph-name="Kcommaaccent" unicode="&#x136;" horiz-adv-x="674" 
d="M84 0v688h113v-348l323 348h132l-281 -298l295 -390h-129l-239 313l-101 -107v-206h-113zM298 -64h103v-83l-43 -106h-47l30 94h-43v95z" />
    <glyph glyph-name="kcommaaccent" unicode="&#x137;" horiz-adv-x="527" 
d="M73 0v732h108v-463l198 219h125l-182 -195l201 -293h-126l-147 215l-69 -74v-141h-108zM228 -64h103v-83l-43 -106h-47l30 94h-43v95z" />
    <glyph glyph-name="Lacute" unicode="&#x139;" horiz-adv-x="561" 
d="M84 0v688h113v-591h333v-97h-446zM101 768l102 164h120l-146 -164h-76z" />
    <glyph glyph-name="lacute" unicode="&#x13a;" horiz-adv-x="255" 
d="M73 0v732h108v-732h-108zM89 809l102 164h120l-146 -164h-76z" />
    <glyph glyph-name="Lcommaaccent" unicode="&#x13b;" horiz-adv-x="561" 
d="M84 0v688h113v-591h333v-97h-446zM251 -64h103v-83l-43 -106h-47l30 94h-43v95z" />
    <glyph glyph-name="lcommaaccent" unicode="&#x13c;" horiz-adv-x="255" 
d="M73 0v732h108v-732h-108zM76 -64h103v-83l-43 -106h-47l30 94h-43v95z" />
    <glyph glyph-name="Lcaron" unicode="&#x13d;" horiz-adv-x="561" 
d="M84 0v688h113v-591h333v-97h-446zM341 472l32 112h-46v104h109v-94l-46 -122h-49z" />
    <glyph glyph-name="lcaron" unicode="&#x13e;" horiz-adv-x="255" 
d="M269 516l31 112h-45v104h109v-94l-46 -122h-49zM73 0v732h108v-732h-108z" />
    <glyph glyph-name="Ldot" unicode="&#x13f;" horiz-adv-x="561" 
d="M84 0v688h113v-591h333v-97h-446zM314 304v110h109v-110h-109z" />
    <glyph glyph-name="ldot" unicode="&#x140;" horiz-adv-x="351" 
d="M73 0v732h108v-732h-108zM252 278v110h109v-110h-109z" />
    <glyph glyph-name="Lslash" unicode="&#x141;" horiz-adv-x="561" 
d="M26 183l-46 63l104 74v368h113v-288l127 91l46 -62l-173 -124v-208h333v-97h-446v224z" />
    <glyph glyph-name="lslash" unicode="&#x142;" horiz-adv-x="255" 
d="M-22 250l95 87v395h108v-296l56 52l43 -52l-99 -91v-345h-108v246l-52 -48z" />
    <glyph glyph-name="Nacute" unicode="&#x143;" horiz-adv-x="749" 
d="M84 0v688h105l362 -496h4l-4 496h114v-688h-104l-364 494h-4l4 -494h-113zM336 768l102 164h120l-146 -164h-76z" />
    <glyph glyph-name="nacute" unicode="&#x144;" horiz-adv-x="581" 
d="M73 0v488h104v-71h4q42 83 151 83q81 0 132 -48.5t51 -155.5v-296h-108v282q0 130 -104 130q-53 0 -87.5 -42.5t-34.5 -114.5v-255h-108zM255 568l102 164h120l-146 -164h-76z" />
    <glyph glyph-name="Ncommaaccent" unicode="&#x145;" horiz-adv-x="749" 
d="M84 0v688h105l362 -496h4l-4 496h114v-688h-104l-364 494h-4l4 -494h-113zM323 -64h103v-83l-43 -106h-47l30 94h-43v95z" />
    <glyph glyph-name="ncommaaccent" unicode="&#x146;" horiz-adv-x="581" 
d="M73 0v488h104v-71h4q42 83 151 83q81 0 132 -48.5t51 -155.5v-296h-108v282q0 130 -104 130q-53 0 -87.5 -42.5t-34.5 -114.5v-255h-108zM238 -64h103v-83l-43 -106h-47l30 94h-43v95z" />
    <glyph glyph-name="Ncaron" unicode="&#x147;" horiz-adv-x="749" 
d="M84 0v688h105l362 -496h4l-4 496h114v-688h-104l-364 494h-4l4 -494h-113zM330 768l-128 164h95l77 -106l78 106h95l-128 -164h-89z" />
    <glyph glyph-name="ncaron" unicode="&#x148;" horiz-adv-x="581" 
d="M73 0v488h104v-71h4q42 83 151 83q81 0 132 -48.5t51 -155.5v-296h-108v282q0 130 -104 130q-53 0 -87.5 -42.5t-34.5 -114.5v-255h-108zM249 568l-128 164h95l77 -106l78 106h95l-128 -164h-89z" />
    <glyph glyph-name="napostrophe" unicode="&#x149;" horiz-adv-x="581" 
d="M73 0v488h104v-71h4q42 83 151 83q81 0 132 -48.5t51 -155.5v-296h-108v282q0 130 -104 130q-53 0 -87.5 -42.5t-34.5 -114.5v-255h-108zM87 568l30 94h-43v94h103v-83l-43 -105h-47z" />
    <glyph glyph-name="Eng" unicode="&#x14a;" horiz-adv-x="749" 
d="M84 0v688h105l363 -496h4l-5 496h114v-714q0 -107 -44.5 -150.5t-141.5 -43.5h-53v95h42q45 0 66 24.5t21 80.5v28l-358 486h-4l4 -494h-113z" />
    <glyph glyph-name="eng" unicode="&#x14b;" horiz-adv-x="581" 
d="M407 -59v341q0 130 -104 130q-53 0 -87.5 -42.5t-34.5 -113.5v-256h-108v488h104v-71h4q42 83 151 83q81 0 132 -48.5t51 -155.5v-367q0 -72 -35.5 -110.5t-117.5 -38.5h-37v88h25q31 0 44 17.5t13 55.5z" />
    <glyph glyph-name="Omacron" unicode="&#x14c;" horiz-adv-x="775" 
d="M44 344q0 156 94.5 256t248.5 100q151 0 247.5 -100.5t96.5 -255.5t-96.5 -255.5t-247.5 -100.5q-154 0 -248.5 100t-94.5 256zM161 344q0 -112 62.5 -184t163.5 -72q102 0 164.5 72t62.5 184t-62.5 184t-164.5 72q-101 0 -163.5 -72t-62.5 -184zM242 811v78h287v-78
h-287z" />
    <glyph glyph-name="omacron" unicode="&#x14d;" horiz-adv-x="577" 
d="M39 244q0 117 69.5 186.5t179.5 69.5q114 0 181.5 -68.5t67.5 -187.5q0 -117 -69.5 -186.5t-179.5 -69.5q-114 0 -181.5 68.5t-67.5 187.5zM151 244q0 -76 37.5 -122.5t99.5 -46.5t99.5 46.5t37.5 122.5q0 79 -37.5 124t-99.5 45t-99.5 -46.5t-37.5 -122.5zM143 611v78
h287v-78h-287z" />
    <glyph glyph-name="Obreve" unicode="&#x14e;" horiz-adv-x="775" 
d="M44 344q0 156 94.5 256t248.5 100q151 0 247.5 -100.5t96.5 -255.5t-96.5 -255.5t-247.5 -100.5q-154 0 -248.5 100t-94.5 256zM161 344q0 -112 62.5 -184t163.5 -72q102 0 164.5 72t62.5 184t-62.5 184t-164.5 72q-101 0 -163.5 -72t-62.5 -184zM387 777q-57 0 -99.5 35
t-49.5 111h63q13 -81 86 -81q74 0 87 81h63q-7 -76 -49.5 -111t-100.5 -35z" />
    <glyph glyph-name="obreve" unicode="&#x14f;" horiz-adv-x="577" 
d="M39 244q0 117 69.5 186.5t179.5 69.5q114 0 181.5 -68.5t67.5 -187.5q0 -117 -69.5 -186.5t-179.5 -69.5q-114 0 -181.5 68.5t-67.5 187.5zM151 244q0 -76 37.5 -122.5t99.5 -46.5t99.5 46.5t37.5 122.5q0 79 -37.5 124t-99.5 45t-99.5 -46.5t-37.5 -122.5zM288 577
q-57 0 -99.5 35t-49.5 111h63q13 -81 86 -81q74 0 87 81h63q-7 -76 -49.5 -111t-100.5 -35z" />
    <glyph glyph-name="Ohungarumlaut" unicode="&#x150;" horiz-adv-x="775" 
d="M44 344q0 156 94.5 256t248.5 100q151 0 247.5 -100.5t96.5 -255.5t-96.5 -255.5t-247.5 -100.5q-154 0 -248.5 100t-94.5 256zM161 344q0 -112 62.5 -184t163.5 -72q102 0 164.5 72t62.5 184t-62.5 184t-164.5 72q-101 0 -163.5 -72t-62.5 -184zM443 768l102 164h119
l-146 -164h-75zM253 768l102 164h120l-146 -164h-76z" />
    <glyph glyph-name="ohungarumlaut" unicode="&#x151;" horiz-adv-x="577" 
d="M39 244q0 117 69.5 186.5t179.5 69.5q114 0 181.5 -68.5t67.5 -187.5q0 -117 -69.5 -186.5t-179.5 -69.5q-114 0 -181.5 68.5t-67.5 187.5zM151 244q0 -76 37.5 -122.5t99.5 -46.5t99.5 46.5t37.5 122.5q0 79 -37.5 124t-99.5 45t-99.5 -46.5t-37.5 -122.5zM344 568
l102 164h119l-146 -164h-75zM154 568l102 164h120l-146 -164h-76z" />
    <glyph glyph-name="OE" unicode="&#x152;" horiz-adv-x="1054" 
d="M407 0q-175 0 -269 94.5t-94 249.5t94 249.5t269 94.5h587v-96h-371v-195h298v-93h-298v-208h380v-96h-596zM161 344q0 -109 60.5 -178.5t189.5 -69.5h99v496h-99q-129 0 -189.5 -69.5t-60.5 -178.5z" />
    <glyph glyph-name="oe" unicode="&#x153;" horiz-adv-x="925" 
d="M38 244q0 116 69 186t180 70q129 0 191 -92q65 92 184 92q104 0 165.5 -63t61.5 -175v-36h-358q5 -72 40.5 -112.5t94.5 -40.5q47 0 75.5 21.5t36.5 53.5h107q-11 -68 -71 -114t-149 -46q-128 0 -190 90q-65 -90 -188 -90q-114 0 -181.5 69.5t-67.5 186.5zM150 244
q0 -76 37.5 -122.5t99.5 -46.5t99.5 46t37.5 123q0 78 -37 123.5t-100 45.5q-62 0 -99.5 -46.5t-37.5 -122.5zM662 416q-48 0 -81.5 -31.5t-44.5 -86.5h243q-12 118 -117 118z" />
    <glyph glyph-name="Racute" unicode="&#x154;" horiz-adv-x="673" 
d="M84 0v688h278q120 0 183.5 -55t63.5 -154q0 -76 -38 -130.5t-110 -76.5l173 -272h-123l-165 259h-149v-259h-113zM361 594h-164v-242h164q64 0 99 35t35 91q0 54 -35 85t-99 31zM281 768l102 164h120l-146 -164h-76z" />
    <glyph glyph-name="racute" unicode="&#x155;" horiz-adv-x="377" 
d="M73 0v488h104v-71h3q38 83 129 83q39 0 68 -20l-28 -96q-32 16 -60 16q-52 0 -80 -44t-28 -112v-244h-108zM188 568l102 164h120l-146 -164h-76z" />
    <glyph glyph-name="Rcommaaccent" unicode="&#x156;" horiz-adv-x="673" 
d="M84 0v688h278q120 0 183.5 -55t63.5 -154q0 -76 -38 -130.5t-110 -76.5l173 -272h-123l-165 259h-149v-259h-113zM361 594h-164v-242h164q64 0 99 35t35 91q0 54 -35 85t-99 31zM285 -64h103v-83l-43 -106h-47l30 94h-43v95z" />
    <glyph glyph-name="rcommaaccent" unicode="&#x157;" horiz-adv-x="377" 
d="M73 0v488h104v-71h3q38 83 129 83q39 0 68 -20l-28 -96q-32 16 -60 16q-52 0 -80 -44t-28 -112v-244h-108zM75 -64h103v-83l-43 -106h-47l30 94h-43v95z" />
    <glyph glyph-name="Rcaron" unicode="&#x158;" horiz-adv-x="673" 
d="M84 0v688h278q120 0 183.5 -55t63.5 -154q0 -76 -38 -130.5t-110 -76.5l173 -272h-123l-165 259h-149v-259h-113zM361 594h-164v-242h164q64 0 99 35t35 91q0 54 -35 85t-99 31zM275 768l-128 164h95l77 -106l78 106h95l-128 -164h-89z" />
    <glyph glyph-name="rcaron" unicode="&#x159;" horiz-adv-x="377" 
d="M73 0v488h104v-71h3q38 83 129 83q39 0 68 -20l-28 -96q-32 16 -60 16q-52 0 -80 -44t-28 -112v-244h-108zM182 568l-128 164h95l77 -106l78 106h95l-128 -164h-89z" />
    <glyph glyph-name="Sacute" unicode="&#x15a;" horiz-adv-x="658" 
d="M53 196h112q0 -54 43.5 -87t116.5 -33q77 0 120.5 30.5t43.5 85.5q0 34 -23.5 56t-61 32t-83 18t-90.5 19.5t-82.5 30t-61 56t-23.5 92.5q0 90 71.5 147t190.5 57q117 0 187.5 -53t70.5 -144h-111q0 51 -41 80t-106 29q-66 0 -107.5 -27.5t-41.5 -77.5q0 -34 23.5 -55.5
t61.5 -31.5t83.5 -17.5t91 -19.5t83.5 -31t61.5 -57t23.5 -94q0 -97 -74 -155t-206 -58q-129 0 -200.5 56t-71.5 152zM288 768l102 164h120l-146 -164h-76z" />
    <glyph glyph-name="sacute" unicode="&#x15b;" horiz-adv-x="509" 
d="M37 140h103q0 -38 32 -57t76 -19q112 0 112 71q0 26 -18 39.5t-56 19.5l-90 16q-147 24 -147 134q0 73 57.5 114.5t146.5 41.5q90 0 146 -37.5t56 -110.5h-101q0 35 -28 53.5t-73 18.5q-44 0 -72 -18t-28 -49q0 -25 18.5 -38.5t62.5 -21.5l90 -15q67 -11 105.5 -41
t38.5 -93q0 -78 -59.5 -119t-160.5 -41q-95 0 -153 39t-58 113zM215 568l102 164h120l-146 -164h-76z" />
    <glyph glyph-name="Scircumflex" unicode="&#x15c;" horiz-adv-x="658" 
d="M53 196h112q0 -54 43.5 -87t116.5 -33q77 0 120.5 30.5t43.5 85.5q0 34 -23.5 56t-61 32t-83 18t-90.5 19.5t-82.5 30t-61 56t-23.5 92.5q0 90 71.5 147t190.5 57q117 0 187.5 -53t70.5 -144h-111q0 51 -41 80t-106 29q-66 0 -107.5 -27.5t-41.5 -77.5q0 -34 23.5 -55.5
t61.5 -31.5t83.5 -17.5t91 -19.5t83.5 -31t61.5 -57t23.5 -94q0 -97 -74 -155t-206 -58q-129 0 -200.5 56t-71.5 152zM154 768l128 164h89l128 -164h-95l-78 106l-77 -106h-95z" />
    <glyph glyph-name="scircumflex" unicode="&#x15d;" horiz-adv-x="509" 
d="M37 140h103q0 -38 32 -57t76 -19q112 0 112 71q0 26 -18 39.5t-56 19.5l-90 16q-147 24 -147 134q0 73 57.5 114.5t146.5 41.5q90 0 146 -37.5t56 -110.5h-101q0 35 -28 53.5t-73 18.5q-44 0 -72 -18t-28 -49q0 -25 18.5 -38.5t62.5 -21.5l90 -15q67 -11 105.5 -41
t38.5 -93q0 -78 -59.5 -119t-160.5 -41q-95 0 -153 39t-58 113zM81 568l128 164h89l128 -164h-95l-78 106l-77 -106h-95z" />
    <glyph glyph-name="Scedilla" unicode="&#x15e;" horiz-adv-x="658" 
d="M278 -86l26 75q-120 4 -185.5 59.5t-65.5 147.5h112q0 -54 43.5 -87t116.5 -33q77 0 120.5 30.5t43.5 85.5q0 34 -23.5 56t-61 32t-83 18t-90.5 19.5t-82.5 30t-61 56t-23.5 92.5q0 90 71.5 147t190.5 57q117 0 187.5 -53t70.5 -144h-111q0 51 -41 80t-106 29
q-66 0 -107.5 -27.5t-41.5 -77.5q0 -34 23.5 -55.5t61.5 -31.5t83.5 -17.5t91 -19.5t83.5 -31t61.5 -57t23.5 -94q0 -93 -69 -151t-192 -62v-25q44 -2 68 -26.5t24 -60.5q0 -43 -30 -69.5t-87 -26.5h-61v59h53q49 0 49 38q0 37 -49 37h-33z" />
    <glyph glyph-name="scedilla" unicode="&#x15f;" horiz-adv-x="509" 
d="M201 -86l26 75q-86 4 -138 42.5t-52 108.5h103q0 -38 32 -57t76 -19q112 0 112 71q0 26 -18 39.5t-56 19.5l-90 16q-147 24 -147 134q0 73 57.5 114.5t146.5 41.5q90 0 146 -37.5t56 -110.5h-101q0 35 -28 53.5t-73 18.5q-44 0 -72 -18t-28 -49q0 -25 18.5 -38.5
t62.5 -21.5l90 -15q67 -11 105.5 -41t38.5 -93q0 -74 -54.5 -114.5t-146.5 -44.5v-26q44 -2 68 -26.5t24 -60.5q0 -43 -30 -69.5t-87 -26.5h-61v59h53q49 0 49 38q0 37 -49 37h-33z" />
    <glyph glyph-name="Scaron" unicode="&#x160;" horiz-adv-x="658" 
d="M53 196h112q0 -54 43.5 -87t116.5 -33q77 0 120.5 30.5t43.5 85.5q0 34 -23.5 56t-61 32t-83 18t-90.5 19.5t-82.5 30t-61 56t-23.5 92.5q0 90 71.5 147t190.5 57q117 0 187.5 -53t70.5 -144h-111q0 51 -41 80t-106 29q-66 0 -107.5 -27.5t-41.5 -77.5q0 -34 23.5 -55.5
t61.5 -31.5t83.5 -17.5t91 -19.5t83.5 -31t61.5 -57t23.5 -94q0 -97 -74 -155t-206 -58q-129 0 -200.5 56t-71.5 152zM282 768l-128 164h95l77 -106l78 106h95l-128 -164h-89z" />
    <glyph glyph-name="scaron" unicode="&#x161;" horiz-adv-x="509" 
d="M37 140h103q0 -38 32 -57t76 -19q112 0 112 71q0 26 -18 39.5t-56 19.5l-90 16q-147 24 -147 134q0 73 57.5 114.5t146.5 41.5q90 0 146 -37.5t56 -110.5h-101q0 35 -28 53.5t-73 18.5q-44 0 -72 -18t-28 -49q0 -25 18.5 -38.5t62.5 -21.5l90 -15q67 -11 105.5 -41
t38.5 -93q0 -78 -59.5 -119t-160.5 -41q-95 0 -153 39t-58 113zM209 568l-128 164h95l77 -106l78 106h95l-128 -164h-89z" />
    <glyph glyph-name="Tcommaaccent" unicode="&#x162;" horiz-adv-x="602" 
d="M255 -86l30 86h-41v593h-236v95h586v-95h-237v-593h-36v-37q44 -2 68 -26.5t24 -60.5q0 -43 -30 -69.5t-87 -26.5h-61v59h53q49 0 49 38q0 37 -49 37h-33z" />
    <glyph glyph-name="tcommaaccent" unicode="&#x163;" horiz-adv-x="345" 
d="M150 -86l28 94q-90 24 -90 148v248h-92v84h92v148h108v-148h125v-84h-125v-242q0 -39 15.5 -55.5t52.5 -16.5h57v-90h-75q-20 0 -29 1v-38q44 -2 68 -26.5t24 -60.5q0 -43 -30 -69.5t-87 -26.5h-62v59h53q50 0 50 38q0 37 -50 37h-33z" />
    <glyph glyph-name="Tcaron" unicode="&#x164;" horiz-adv-x="602" 
d="M8 593v95h586v-95h-237v-593h-113v593h-236zM255 768l-128 164h95l77 -106l78 106h95l-128 -164h-89z" />
    <glyph glyph-name="tcaron" unicode="&#x165;" horiz-adv-x="345" 
d="M88 156v248h-92v84h92v148h108v-148h125v-84h-125v-242q0 -39 15.5 -55.5t52.5 -16.5h57v-90h-75q-84 0 -121 37t-37 119zM257 544l31 112h-45v104h109v-94l-46 -122h-49z" />
    <glyph glyph-name="Tbar" unicode="&#x166;" horiz-adv-x="602" 
d="M8 593v95h586v-95h-237v-243h180v-75h-180v-275h-113v275h-179v75h179v243h-236z" />
    <glyph glyph-name="tbar" unicode="&#x167;" horiz-adv-x="345" 
d="M-4 220v65h92v119h-92v84h92v148h108v-148h125v-84h-125v-119h125v-65h-125v-60q0 -38 15.5 -54t52.5 -16h57v-90h-76q-81 0 -119 36t-38 114v70h-92z" />
    <glyph glyph-name="Utilde" unicode="&#x168;" horiz-adv-x="713" 
d="M70 274v414h113v-413q0 -90 43.5 -138.5t129.5 -48.5t129.5 48t43.5 139v413h113v-414q0 -286 -286 -286q-134 0 -210 68.5t-76 217.5zM187 791q2 53 27.5 85t72.5 32q32 0 79.5 -23t63.5 -23q34 0 42 48h54q-2 -53 -27.5 -85t-72.5 -32q-32 0 -80 23t-63 23
q-36 0 -42 -48h-54z" />
    <glyph glyph-name="utilde" unicode="&#x169;" horiz-adv-x="577" 
d="M65 192v296h108v-282q0 -130 104 -130q53 0 86 43t33 117v252h108v-488h-103v71h-4q-42 -83 -148 -83q-81 0 -132.5 48.5t-51.5 155.5zM121 591q2 53 27.5 85t72.5 32q32 0 79.5 -23t63.5 -23q34 0 42 48h54q-2 -53 -27.5 -85t-72.5 -32q-32 0 -80 23t-63 23
q-36 0 -42 -48h-54z" />
    <glyph glyph-name="Umacron" unicode="&#x16a;" horiz-adv-x="713" 
d="M70 274v414h113v-413q0 -90 43.5 -138.5t129.5 -48.5t129.5 48t43.5 139v413h113v-414q0 -286 -286 -286q-134 0 -210 68.5t-76 217.5zM211 811v78h287v-78h-287z" />
    <glyph glyph-name="umacron" unicode="&#x16b;" horiz-adv-x="577" 
d="M65 192v296h108v-282q0 -130 104 -130q53 0 86 43t33 117v252h108v-488h-103v71h-4q-42 -83 -148 -83q-81 0 -132.5 48.5t-51.5 155.5zM145 611v78h287v-78h-287z" />
    <glyph glyph-name="Ubreve" unicode="&#x16c;" horiz-adv-x="713" 
d="M70 274v414h113v-413q0 -90 43.5 -138.5t129.5 -48.5t129.5 48t43.5 139v413h113v-414q0 -286 -286 -286q-134 0 -210 68.5t-76 217.5zM356 777q-57 0 -99.5 35t-49.5 111h63q13 -81 86 -81q74 0 87 81h63q-7 -76 -49.5 -111t-100.5 -35z" />
    <glyph glyph-name="ubreve" unicode="&#x16d;" horiz-adv-x="577" 
d="M65 192v296h108v-282q0 -130 104 -130q53 0 86 43t33 117v252h108v-488h-103v71h-4q-42 -83 -148 -83q-81 0 -132.5 48.5t-51.5 155.5zM290 577q-57 0 -99.5 35t-49.5 111h63q13 -81 86 -81q74 0 87 81h63q-7 -76 -49.5 -111t-100.5 -35z" />
    <glyph glyph-name="Uring" unicode="&#x16e;" horiz-adv-x="713" 
d="M70 274v414h113v-413q0 -90 43.5 -138.5t129.5 -48.5t129.5 48t43.5 139v413h113v-414q0 -286 -286 -286q-134 0 -210 68.5t-76 217.5zM356 759q-43 0 -73 28t-30 71t30.5 71t72.5 28q43 0 73.5 -28t30.5 -71t-30.5 -71t-73.5 -28zM356 808q21 0 36 14.5t15 35.5
t-15 35.5t-36 14.5t-35.5 -14.5t-14.5 -35.5t15 -35.5t35 -14.5z" />
    <glyph glyph-name="uring" unicode="&#x16f;" horiz-adv-x="577" 
d="M65 192v296h108v-282q0 -130 104 -130q53 0 86 43t33 117v252h108v-488h-103v71h-4q-42 -83 -148 -83q-81 0 -132.5 48.5t-51.5 155.5zM290 559q-43 0 -73 28t-30 71t30.5 71t72.5 28q43 0 73.5 -28t30.5 -71t-30.5 -71t-73.5 -28zM290 608q21 0 36 14.5t15 35.5
t-15 35.5t-36 14.5t-35.5 -14.5t-14.5 -35.5t15 -35.5t35 -14.5z" />
    <glyph glyph-name="Uhungarumlaut" unicode="&#x170;" horiz-adv-x="713" 
d="M70 274v414h113v-413q0 -90 43.5 -138.5t129.5 -48.5t129.5 48t43.5 139v413h113v-414q0 -286 -286 -286q-134 0 -210 68.5t-76 217.5zM412 768l102 164h119l-146 -164h-75zM222 768l102 164h120l-146 -164h-76z" />
    <glyph glyph-name="uhungarumlaut" unicode="&#x171;" horiz-adv-x="577" 
d="M65 192v296h108v-282q0 -130 104 -130q53 0 86 43t33 117v252h108v-488h-103v71h-4q-42 -83 -148 -83q-81 0 -132.5 48.5t-51.5 155.5zM346 568l102 164h119l-146 -164h-75zM156 568l102 164h120l-146 -164h-76z" />
    <glyph glyph-name="Uogonek" unicode="&#x172;" horiz-adv-x="713" 
d="M319 -123q0 62 77 113q-26 -2 -40 -2q-134 0 -210 68.5t-76 217.5v414h113v-413q0 -90 43.5 -138.5t129.5 -48.5t129.5 48t43.5 139v413h113v-414q0 -185 -131 -256q-52 -28 -82.5 -60.5t-30.5 -62.5q0 -49 53 -49h29v-66h-40q-121 0 -121 97z" />
    <glyph glyph-name="uogonek" unicode="&#x173;" horiz-adv-x="577" 
d="M368 -128q0 61 81 128h-48v71h-4q-42 -83 -148 -83q-81 0 -132.5 48.5t-51.5 155.5v296h108v-282q0 -130 104 -130q53 0 86 43t33 117v252h108v-488h1q-60 -63 -60 -108q0 -46 53 -46h29v-66h-40q-58 0 -88.5 24.5t-30.5 67.5z" />
    <glyph glyph-name="Wcircumflex" unicode="&#x174;" horiz-adv-x="957" 
d="M191 0l-180 688h120l135 -568h4l149 568h126l151 -568h4l130 568h116l-177 -688h-141l-146 551h-4l-146 -551h-141zM308 768l128 164h89l128 -164h-95l-78 106l-77 -106h-95z" />
    <glyph glyph-name="wcircumflex" unicode="&#x175;" horiz-adv-x="750" 
d="M146 0l-141 488h110l95 -379h4l105 379h115l106 -379h4l94 379h107l-141 -488h-126l-101 378h-4l-101 -378h-126zM203 568l128 164h89l128 -164h-95l-78 106l-77 -106h-95z" />
    <glyph glyph-name="Ycircumflex" unicode="&#x176;" horiz-adv-x="637" 
d="M260 0v266l-249 422h128l178 -310h4l185 310h119l-252 -417v-271h-113zM146 768l128 164h89l128 -164h-95l-78 106l-77 -106h-95z" />
    <glyph glyph-name="ycircumflex" unicode="&#x177;" horiz-adv-x="493" 
d="M186 0l-182 488h118l127 -376h4l127 376h109l-201 -556q-57 -160 -187 -160h-54v89h32q84 0 118 95l15 44h-26zM73 568l128 164h89l128 -164h-95l-78 106l-77 -106h-95z" />
    <glyph glyph-name="Ydieresis" unicode="&#x178;" horiz-adv-x="637" 
d="M260 0v266l-249 422h128l178 -310h4l185 310h119l-252 -417v-271h-113zM372 800v104h102v-104h-102zM162 800v104h103v-104h-103z" />
    <glyph glyph-name="Zacute" unicode="&#x179;" horiz-adv-x="598" 
d="M52 594v94h511v-69l-383 -525h380v-94h-525v69l383 525h-366zM261 768l102 164h120l-146 -164h-76z" />
    <glyph glyph-name="zacute" unicode="&#x17a;" horiz-adv-x="461" 
d="M32 403v85h393v-67l-252 -336h256v-85h-394v61l258 342h-261zM191 568l102 164h120l-146 -164h-76z" />
    <glyph glyph-name="Zdotaccent" unicode="&#x17b;" horiz-adv-x="598" 
d="M52 594v94h511v-69l-383 -525h380v-94h-525v69l383 525h-366zM248 800v104h103v-104h-103z" />
    <glyph glyph-name="zdotaccent" unicode="&#x17c;" horiz-adv-x="461" 
d="M32 403v85h393v-67l-252 -336h256v-85h-394v61l258 342h-261zM178 600v104h103v-104h-103z" />
    <glyph glyph-name="Zcaron" unicode="&#x17d;" horiz-adv-x="598" 
d="M52 594v94h511v-69l-383 -525h380v-94h-525v69l383 525h-366zM255 768l-128 164h95l77 -106l78 106h95l-128 -164h-89z" />
    <glyph glyph-name="zcaron" unicode="&#x17e;" horiz-adv-x="461" 
d="M32 403v85h393v-67l-252 -336h256v-85h-394v61l258 342h-261zM185 568l-128 164h95l77 -106l78 106h95l-128 -164h-89z" />
    <glyph glyph-name="longs" unicode="&#x17f;" horiz-adv-x="325" 
d="M95 0v404h-92v84h92v73q0 87 42.5 129t130.5 42h68v-88h-51q-46 0 -64 -20.5t-18 -66.5v-557h-108z" />
    <glyph glyph-name="florin" unicode="&#x192;" horiz-adv-x="568" 
d="M83 285v72h126l18 171q18 172 174 172q151 0 141 -156l-3 -42h-95l3 38q5 77 -49 77t-63 -89l-18 -171h148v-72h-156l-31 -305q-18 -172 -174 -172q-151 0 -141 156l3 42h95l-3 -38q-5 -77 49 -77t63 89l31 305h-118z" />
    <glyph glyph-name="AEacute" unicode="&#x1fc;" horiz-adv-x="1091" 
d="M8 0l497 688h526v-96h-370v-195h296v-93h-296v-208h379v-96h-492v157h-297l-112 -157h-131zM544 567l-227 -317h231v317h-4zM568 768l102 164h120l-146 -164h-76z" />
    <glyph glyph-name="aeacute" unicode="&#x1fd;" horiz-adv-x="856" 
d="M64 333q6 84 63.5 125.5t142.5 41.5q117 0 165 -65q60 65 163 65q100 0 161 -63.5t61 -174.5v-36h-347q4 -73 38.5 -113t90.5 -40q87 0 107 75h106q-11 -67 -70 -113.5t-144 -46.5q-134 0 -192 98q-58 -98 -193 -98q-82 0 -126.5 37t-44.5 100q0 123 163 149l95 16
q39 6 51 13.5t12 25.5q0 39 -24 64.5t-72 25.5q-44 0 -72 -22t-31 -64h-103zM366 200v45q-14 -17 -50 -23l-84 -14q-79 -13 -79 -72q0 -67 83 -67q56 0 93 33t37 98zM598 416q-48 0 -79 -31t-42 -87h231q-4 56 -32.5 87t-77.5 31zM384 568l102 164h120l-146 -164h-76z" />
    <glyph glyph-name="Oslashacute" unicode="&#x1fe;" horiz-adv-x="775" 
d="M57 -12l82 101q-95 98 -95 255q0 155 95.5 255.5t247.5 100.5q113 0 199 -61l49 61h83l-83 -102q96 -102 96 -254q0 -154 -97 -255t-247 -101q-115 0 -200 59l-48 -59h-82zM614 344q0 98 -50 167l-309 -381q56 -42 132 -42q102 0 164.5 72t62.5 184zM161 344
q0 -101 49 -168l309 381q-57 43 -132 43q-101 0 -163.5 -72t-62.5 -184zM349 768l102 164h120l-146 -164h-76z" />
    <glyph glyph-name="oslashacute" unicode="&#x1ff;" horiz-adv-x="575" 
d="M45 -12l58 71q-65 70 -65 185q0 116 69.5 186t179.5 70q84 0 145 -39l32 39h70l-61 -74q64 -69 64 -182q0 -116 -69.5 -186t-180.5 -70q-83 0 -143 37l-30 -37h-69zM150 244q0 -58 22 -100l197 240q-34 29 -82 29q-62 0 -99.5 -46.5t-37.5 -122.5zM424 244q0 55 -21 97
l-196 -239q33 -27 80 -27q62 0 99.5 46.5t37.5 122.5zM249 568l102 164h120l-146 -164h-76z" />
    <glyph glyph-name="Scommaaccent" unicode="&#x218;" horiz-adv-x="658" 
d="M53 196h112q0 -54 43.5 -87t116.5 -33q77 0 120.5 30.5t43.5 85.5q0 34 -23.5 56t-61 32t-83 18t-90.5 19.5t-82.5 30t-61 56t-23.5 92.5q0 90 71.5 147t190.5 57q117 0 187.5 -53t70.5 -144h-111q0 51 -41 80t-106 29q-66 0 -107.5 -27.5t-41.5 -77.5q0 -34 23.5 -55.5
t61.5 -31.5t83.5 -17.5t91 -19.5t83.5 -31t61.5 -57t23.5 -94q0 -97 -74 -155t-206 -58q-129 0 -200.5 56t-71.5 152zM274 -64h103v-83l-43 -106h-47l30 94h-43v95z" />
    <glyph glyph-name="scommaaccent" unicode="&#x219;" horiz-adv-x="509" 
d="M37 140h103q0 -38 32 -57t76 -19q112 0 112 71q0 26 -18 39.5t-56 19.5l-90 16q-147 24 -147 134q0 73 57.5 114.5t146.5 41.5q90 0 146 -37.5t56 -110.5h-101q0 35 -28 53.5t-73 18.5q-44 0 -72 -18t-28 -49q0 -25 18.5 -38.5t62.5 -21.5l90 -15q67 -11 105.5 -41
t38.5 -93q0 -78 -59.5 -119t-160.5 -41q-95 0 -153 39t-58 113zM197 -64h103v-83l-43 -106h-47l30 94h-43v95z" />
    <glyph glyph-name="uni021A" unicode="&#x21a;" horiz-adv-x="602" 
d="M8 593v95h586v-95h-237v-593h-113v593h-236zM251 -64h103v-83l-43 -106h-47l30 94h-43v95z" />
    <glyph glyph-name="uni021B" unicode="&#x21b;" horiz-adv-x="345" 
d="M88 156v248h-92v84h92v148h108v-148h125v-84h-125v-242q0 -39 15.5 -55.5t52.5 -16.5h57v-90h-75q-84 0 -121 37t-37 119zM148 -64h103v-83l-43 -106h-47l30 94h-43v95z" />
    <glyph glyph-name="circumflex" unicode="&#x2c6;" horiz-adv-x="573" 
d="M114 568l128 164h89l128 -164h-95l-78 106l-77 -106h-95z" />
    <glyph glyph-name="caron" unicode="&#x2c7;" horiz-adv-x="573" 
d="M242 568l-128 164h95l77 -106l78 106h95l-128 -164h-89z" />
    <glyph glyph-name="uni02C9" unicode="&#x2c9;" horiz-adv-x="573" 
d="M141 611v78h287v-78h-287z" />
    <glyph glyph-name="breve" unicode="&#x2d8;" horiz-adv-x="573" 
d="M286 577q-57 0 -99.5 35t-49.5 111h63q13 -81 86 -81q74 0 87 81h63q-7 -76 -49.5 -111t-100.5 -35z" />
    <glyph glyph-name="dotaccent" unicode="&#x2d9;" horiz-adv-x="573" 
d="M235 600v104h103v-104h-103z" />
    <glyph glyph-name="ring" unicode="&#x2da;" horiz-adv-x="573" 
d="M286 559q-43 0 -73 28t-30 71t30.5 71t72.5 28q43 0 73.5 -28t30.5 -71t-30.5 -71t-73.5 -28zM286 608q21 0 36 14.5t15 35.5t-15 35.5t-36 14.5t-35.5 -14.5t-14.5 -35.5t15 -35.5t35 -14.5z" />
    <glyph glyph-name="ogonek" unicode="&#x2db;" horiz-adv-x="573" 
d="M204 -128q0 61 81 128h56q-60 -63 -60 -108q0 -46 53 -46h29v-66h-40q-58 0 -88.5 24.5t-30.5 67.5z" />
    <glyph glyph-name="tilde" unicode="&#x2dc;" horiz-adv-x="573" 
d="M117 591q2 53 27.5 85t72.5 32q32 0 79.5 -23t63.5 -23q34 0 42 48h54q-2 -53 -27.5 -85t-72.5 -32q-32 0 -80 23t-63 23q-36 0 -42 -48h-54z" />
    <glyph glyph-name="hungarumlaut" unicode="&#x2dd;" horiz-adv-x="573" 
d="M342 568l102 164h119l-146 -164h-75zM152 568l102 164h120l-146 -164h-76z" />
    <glyph glyph-name="uni0394" unicode="&#x394;" horiz-adv-x="652" 
d="M21 0l243 688h124l244 -688h-611zM326 576h-4l-165 -486h332z" />
    <glyph glyph-name="uni03A9" unicode="&#x3a9;" horiz-adv-x="696" 
d="M404 0v222q56 16 97.5 67t41.5 127q0 88 -54 142t-141 54t-141 -54t-54 -142q0 -76 41.5 -127t97.5 -67v-222h-236v86h141v85q-70 33 -112.5 97t-42.5 149q0 121 85 202t221 81t221 -81t85 -202q0 -85 -42.5 -149t-112.5 -97v-85h141v-86h-236z" />
    <glyph glyph-name="uni03BC" unicode="&#x3bc;" horiz-adv-x="582" 
d="M168 11q12 -96 12 -162v-69h-109v708h109v-282q0 -70 26 -100t77 -30q53 0 86 43t33 115v254h108v-488h-103v71h-4q-41 -83 -147 -83q-47 0 -85 23h-3z" />
    <glyph glyph-name="pi" unicode="&#x3c0;" horiz-adv-x="599" 
d="M79 0v488h441v-488h-109v400h-223v-400h-109z" />
    <glyph glyph-name="Wgrave" unicode="&#x1e80;" horiz-adv-x="957" 
d="M191 0l-180 688h120l135 -568h4l149 568h126l151 -568h4l130 568h116l-177 -688h-141l-146 551h-4l-146 -551h-141zM443 768l-146 164h120l102 -164h-76z" />
    <glyph glyph-name="wgrave" unicode="&#x1e81;" horiz-adv-x="750" 
d="M146 0l-141 488h110l95 -379h4l105 379h115l106 -379h4l94 379h107l-141 -488h-126l-101 378h-4l-101 -378h-126zM338 568l-146 164h120l102 -164h-76z" />
    <glyph glyph-name="Wacute" unicode="&#x1e82;" horiz-adv-x="957" 
d="M191 0l-180 688h120l135 -568h4l149 568h126l151 -568h4l130 568h116l-177 -688h-141l-146 551h-4l-146 -551h-141zM442 768l102 164h120l-146 -164h-76z" />
    <glyph glyph-name="wacute" unicode="&#x1e83;" horiz-adv-x="750" 
d="M146 0l-141 488h110l95 -379h4l105 379h115l106 -379h4l94 379h107l-141 -488h-126l-101 378h-4l-101 -378h-126zM337 568l102 164h120l-146 -164h-76z" />
    <glyph glyph-name="Wdieresis" unicode="&#x1e84;" horiz-adv-x="957" 
d="M191 0l-180 688h120l135 -568h4l149 568h126l151 -568h4l130 568h116l-177 -688h-141l-146 551h-4l-146 -551h-141zM534 800v104h102v-104h-102zM324 800v104h103v-104h-103z" />
    <glyph glyph-name="wdieresis" unicode="&#x1e85;" horiz-adv-x="750" 
d="M146 0l-141 488h110l95 -379h4l105 379h115l106 -379h4l94 379h107l-141 -488h-126l-101 378h-4l-101 -378h-126zM429 600v104h102v-104h-102zM219 600v104h103v-104h-103z" />
    <glyph glyph-name="Ygrave" unicode="&#x1ef2;" horiz-adv-x="637" 
d="M260 0v266l-249 422h128l178 -310h4l185 310h119l-252 -417v-271h-113zM281 768l-146 164h120l102 -164h-76z" />
    <glyph glyph-name="ygrave" unicode="&#x1ef3;" horiz-adv-x="493" 
d="M186 0l-182 488h118l127 -376h4l127 376h109l-201 -556q-57 -160 -187 -160h-54v89h32q84 0 118 95l15 44h-26zM208 568l-146 164h120l102 -164h-76z" />
    <glyph glyph-name="endash" unicode="&#x2013;" horiz-adv-x="556" 
d="M56 205v94h444v-94h-444z" />
    <glyph glyph-name="emdash" unicode="&#x2014;" horiz-adv-x="840" 
d="M56 205v94h728v-94h-728z" />
    <glyph glyph-name="quoteleft" unicode="&#x2018;" horiz-adv-x="255" 
d="M69 421v110l43 157h54l-30 -149h50v-118h-117z" />
    <glyph glyph-name="quoteright" unicode="&#x2019;" horiz-adv-x="255" 
d="M89 421l31 149h-51v118h117v-110l-43 -157h-54z" />
    <glyph glyph-name="quotesinglbase" unicode="&#x201a;" horiz-adv-x="255" 
d="M120 0h-51v118h117v-110l-43 -157h-54z" />
    <glyph glyph-name="quotedblleft" unicode="&#x201c;" horiz-adv-x="448" 
d="M69 421v110l43 157h54l-30 -149h50v-118h-117zM262 421v110l43 157h54l-30 -149h50v-118h-117z" />
    <glyph glyph-name="quotedblright" unicode="&#x201d;" horiz-adv-x="448" 
d="M89 421l31 149h-51v118h117v-110l-43 -157h-54zM282 421l31 149h-51v118h117v-110l-43 -157h-54z" />
    <glyph glyph-name="quotedblbase" unicode="&#x201e;" horiz-adv-x="448" 
d="M120 0h-51v118h117v-110l-43 -157h-54zM313 0h-51v118h117v-110l-43 -157h-54z" />
    <glyph glyph-name="dagger" unicode="&#x2020;" horiz-adv-x="455" 
d="M44 438v82h136v168h95v-168h136v-82h-136v-438h-95v438h-136z" />
    <glyph glyph-name="daggerdbl" unicode="&#x2021;" horiz-adv-x="455" 
d="M44 443v83h136v162h95v-162h136v-83h-136v-202h136v-83h-136v-158h-95v158h-136v83h136v202h-136z" />
    <glyph glyph-name="bullet" unicode="&#x2022;" horiz-adv-x="488" 
d="M244 80q-73 0 -122.5 49.5t-49.5 122.5t49.5 122.5t122.5 49.5t122.5 -49.5t49.5 -122.5t-49.5 -122.5t-122.5 -49.5z" />
    <glyph glyph-name="ellipsis" unicode="&#x2026;" horiz-adv-x="807" 
d="M606 0v128h129v-128h-129zM339 0v128h129v-128h-129zM72 0v128h129v-128h-129z" />
    <glyph glyph-name="perthousand" unicode="&#x2030;" horiz-adv-x="1153" 
d="M180 336q-76 0 -115.5 50t-39.5 130t39.5 130t115.5 50t115 -50t39 -130t-39 -130t-115 -50zM180 404q67 0 67 112t-67 112q-68 0 -68 -112t68 -112zM186 -12l348 712h74l-348 -712h-74zM614 -8q-76 0 -115.5 50t-39.5 130t39.5 130t115.5 50q77 0 115.5 -50t38.5 -130
t-38.5 -130t-115.5 -50zM614 60q67 0 67 112t-67 112q-68 0 -68 -112t68 -112zM973 -8q-76 0 -115 50t-39 130t39 130t115 50q77 0 116 -50t39 -130t-39 -130t-116 -50zM973 60q68 0 68 112t-68 112q-67 0 -67 -112t67 -112z" />
    <glyph glyph-name="guilsinglleft" unicode="&#x2039;" horiz-adv-x="333" 
d="M194 48l-144 204l144 204h89l-114 -204l114 -204h-89z" />
    <glyph glyph-name="guilsinglright" unicode="&#x203a;" horiz-adv-x="333" 
d="M50 48l114 204l-114 204h89l144 -204l-144 -204h-89z" />
    <glyph glyph-name="fraction" unicode="&#x2044;" horiz-adv-x="75" 
d="M-174 -12l348 712h75l-348 -712h-75z" />
    <glyph glyph-name="uni2070" unicode="&#x2070;" 
d="M180 488q-76 0 -115.5 50t-39.5 130t39.5 130t115.5 50t115 -50t39 -130t-39 -130t-115 -50zM180 556q67 0 67 112t-67 112q-68 0 -68 -112t68 -112z" />
    <glyph glyph-name="uni2074" unicode="&#x2074;" 
d="M22 557v52l188 232h75v-217h47v-67h-47v-61h-88v61h-175zM112 624h85v107z" />
    <glyph glyph-name="uni2075" unicode="&#x2075;" 
d="M43 588h86q8 -41 54 -41q24 0 40 15t16 43q0 27 -16 40.5t-40 13.5q-37 0 -52 -31l-82 7l13 205h244v-70h-169l-7 -78h4q20 26 69 26q55 0 89 -27t34 -85q0 -56 -40 -87t-100 -31q-132 0 -143 100z" />
    <glyph glyph-name="uni2076" unicode="&#x2076;" 
d="M317 747h-85q0 17 -12.5 28.5t-31.5 11.5q-28 0 -45.5 -21.5t-20.5 -79.5q10 14 33.5 23t49.5 9q53 0 86.5 -27t33.5 -85q0 -55 -40 -86.5t-99 -31.5q-152 0 -152 172q0 188 155 188q61 0 93 -27.5t35 -73.5zM183 659q-24 0 -40 -13.5t-16 -40.5q0 -28 16 -43t40 -15
t40 15t16 43q0 27 -16 40.5t-40 13.5z" />
    <glyph glyph-name="uni2077" unicode="&#x2077;" 
d="M75 496l150 269h-193v75h297v-54l-160 -290h-94z" />
    <glyph glyph-name="uni2078" unicode="&#x2078;" 
d="M28 587q0 33 18.5 55.5t49.5 28.5v4q-26 6 -41.5 26.5t-15.5 49.5q0 43 38 70t103 27q64 0 102 -27t38 -70q0 -29 -15.5 -49.5t-41.5 -26.5v-4q31 -6 49.5 -28.5t18.5 -55.5q0 -48 -39.5 -73.5t-111.5 -25.5t-112 25.5t-40 73.5zM117 596q0 -23 17 -35.5t46 -12.5
q28 0 45.5 12.5t17.5 35.5q0 24 -17.5 36.5t-45.5 12.5q-63 0 -63 -49zM124 745q0 -44 56 -44t56 44q0 43 -56 43t-56 -43z" />
    <glyph glyph-name="uni2079" unicode="&#x2079;" 
d="M38 589h85q1 -16 16 -28t35 -12q27 0 41.5 21.5t16.5 78.5q-7 -13 -29.5 -22t-47.5 -9q-56 0 -90.5 26.5t-34.5 81.5t40 88.5t100 33.5q151 0 151 -172q0 -188 -148 -188q-62 0 -97 28t-38 73zM172 677q23 0 39.5 13.5t16.5 40.5q0 28 -16 43t-40 15q-23 0 -39.5 -15
t-16.5 -43q0 -27 16 -40.5t40 -13.5z" />
    <glyph glyph-name="parenleft.superior" unicode="&#x207d;" horiz-adv-x="230" 
d="M140 424q-32 39 -56 105.5t-24 138.5t24 138.5t56 105.5h82q-30 -37 -55 -105t-25 -139t25 -139t55 -105h-82z" />
    <glyph glyph-name="parenright.superior" unicode="&#x207e;" horiz-adv-x="230" 
d="M8 424q30 37 55 105t25 139t-25 139t-55 105h82q32 -39 56 -105.5t24 -138.5t-24 -138.5t-56 -105.5h-82z" />
    <glyph glyph-name="n.superior" unicode="&#x207f;" horiz-adv-x="419" 
d="M49 496v344h87v-51h4q27 60 108 60q55 0 90.5 -33t35.5 -103v-217h-91v196q0 83 -67 83q-33 0 -54.5 -25.5t-21.5 -71.5v-182h-91z" />
    <glyph glyph-name="uni2080" unicode="&#x2080;" 
d="M180 -160q-76 0 -115.5 50t-39.5 130t39.5 130t115.5 50t115 -50t39 -130t-39 -130t-115 -50zM180 -92q67 0 67 112t-67 112q-68 0 -68 -112t68 -112z" />
    <glyph glyph-name="uni2081" unicode="&#x2081;" 
d="M75 45l-36 61l145 86h54v-274h92v-70h-279v70h98v170z" />
    <glyph glyph-name="uni2082" unicode="&#x2082;" 
d="M30 -152q0 72 31 110t85 64l21 10q69 32 69 59q0 43 -55 43q-60 0 -63 -59h-84q2 63 43.5 94t102.5 31q65 0 104 -28t39 -78q0 -43 -27.5 -68t-81.5 -50l-21 -10q-59 -28 -59 -48h188v-70h-292z" />
    <glyph glyph-name="uni2083" unicode="&#x2083;" 
d="M34 -47h83q0 -25 17 -39t46 -14q28 0 45.5 12.5t17.5 35.5q0 24 -17.5 36.5t-47.5 12.5h-24v56h24q58 0 58 44q0 43 -56 43q-26 0 -41 -13t-15 -36h-82q1 52 39 80.5t102 28.5q62 0 99.5 -27t37.5 -70q0 -29 -15.5 -49.5t-41.5 -26.5v-3q31 -7 49.5 -29t18.5 -54
q0 -49 -39.5 -75t-111.5 -26q-145 0 -146 113z" />
    <glyph glyph-name="uni2084" unicode="&#x2084;" 
d="M22 -91v52l188 232h75v-217h47v-67h-47v-61h-88v61h-175zM112 -24h85v107z" />
    <glyph glyph-name="uni2085" unicode="&#x2085;" 
d="M43 -60h86q8 -41 54 -41q24 0 40 15t16 43q0 27 -16 40.5t-40 13.5q-37 0 -52 -31l-82 7l13 205h244v-70h-169l-7 -78h4q20 26 69 26q55 0 89 -27t34 -85q0 -56 -40 -87t-100 -31q-132 0 -143 100z" />
    <glyph glyph-name="uni2086" unicode="&#x2086;" 
d="M317 99h-85q0 17 -12.5 28.5t-31.5 11.5q-28 0 -45.5 -21.5t-20.5 -79.5q10 14 33.5 23t49.5 9q53 0 86.5 -27t33.5 -85q0 -55 -40 -86.5t-99 -31.5q-152 0 -152 172q0 188 155 188q61 0 93 -27.5t35 -73.5zM183 11q-24 0 -40 -13.5t-16 -40.5q0 -28 16 -43t40 -15t40 15
t16 43q0 27 -16 40.5t-40 13.5z" />
    <glyph glyph-name="uni2087" unicode="&#x2087;" 
d="M75 -152l150 269h-193v75h297v-54l-160 -290h-94z" />
    <glyph glyph-name="uni2088" unicode="&#x2088;" 
d="M28 -61q0 33 18.5 55.5t49.5 28.5v4q-26 6 -41.5 26.5t-15.5 49.5q0 43 38 70t103 27q64 0 102 -27t38 -70q0 -29 -15.5 -49.5t-41.5 -26.5v-4q31 -6 49.5 -28.5t18.5 -55.5q0 -48 -39.5 -73.5t-111.5 -25.5t-112 25.5t-40 73.5zM117 -52q0 -23 17 -35.5t46 -12.5
q28 0 45.5 12.5t17.5 35.5q0 24 -17.5 36.5t-45.5 12.5q-63 0 -63 -49zM124 97q0 -44 56 -44t56 44q0 43 -56 43t-56 -43z" />
    <glyph glyph-name="uni2089" unicode="&#x2089;" 
d="M38 -59h85q1 -16 16 -28t35 -12q27 0 41.5 21.5t16.5 78.5q-7 -13 -29.5 -22t-47.5 -9q-56 0 -90.5 26.5t-34.5 81.5t40 88.5t100 33.5q151 0 151 -172q0 -188 -148 -188q-62 0 -97 28t-38 73zM172 29q23 0 39.5 13.5t16.5 40.5q0 28 -16 43t-40 15q-23 0 -39.5 -15
t-16.5 -43q0 -27 16 -40.5t40 -13.5z" />
    <glyph glyph-name="parenleft.inferior" unicode="&#x208d;" horiz-adv-x="230" 
d="M140 -224q-32 39 -56 105.5t-24 138.5t24 138.5t56 105.5h82q-30 -37 -55 -105t-25 -139t25 -139t55 -105h-82z" />
    <glyph glyph-name="parenright.inferior" unicode="&#x208e;" horiz-adv-x="230" 
d="M8 -224q30 37 55 105t25 139t-25 139t-55 105h82q32 -39 56 -105.5t24 -138.5t-24 -138.5t-56 -105.5h-82z" />
    <glyph glyph-name="Euro" unicode="&#x20ac;" horiz-adv-x="568" 
d="M12 390l18 61h53q20 115 82.5 182t167.5 67q184 0 220 -187h-103q-15 50 -41.5 73.5t-72.5 23.5q-112 0 -140 -159h193l-18 -61h-182q-1 -15 -1 -46q0 -25 1 -37h178l-18 -62h-154q25 -167 141 -167q43 0 68 19.5t40 62.5h104q-41 -172 -215 -172q-107 0 -170 69.5
t-81 187.5h-89l18 62h65q-1 12 -1 37q0 31 1 46h-64z" />
    <glyph glyph-name="afii61289" unicode="&#x2113;" horiz-adv-x="412" 
d="M129 26q-38 41 -38 139v74l-2 1l-59 -41l-12 24l73 61v136q0 102 18 157t55 89q37 33 85 33q47 0 74 -34.5t27 -93.5q0 -46 -17.5 -89.5t-50 -80.5t-55.5 -58.5t-58 -48.5v-109q0 -138 91 -138q63 0 118 80l22 -16q-24 -58 -68 -90.5t-101 -32.5q-66 0 -102 38zM171 342
q121 103 121 230q0 91 -55 91q-68 0 -68 -179v-141z" />
    <glyph glyph-name="afii61352" unicode="&#x2116;" horiz-adv-x="1213" 
d="M81 0v688h107l360 -498h4l-4 498h113v-688h-107l-360 496h-4l4 -496h-113zM792 516q0 82 50 131.5t131 49.5q84 0 132.5 -49t48.5 -132q0 -82 -49.5 -131t-131.5 -49q-84 0 -132.5 48.5t-48.5 131.5zM887 516q0 -49 23.5 -79t62.5 -30q40 0 63.5 30t23.5 79
q0 50 -23.5 79.5t-63.5 29.5t-63 -29.5t-23 -79.5zM792 0v70h362v-70h-362zM792 175v70h362v-70h-362z" />
    <glyph glyph-name="trademark" unicode="&#x2122;" horiz-adv-x="816" 
d="M363 344v344h114l91 -235h4l91 235h115v-344h-82l4 241h-4l-93 -241h-65l-93 241h-4l4 -241h-82zM4 619v69h314v-69h-115v-275h-82v275h-117z" />
    <glyph glyph-name="Omega" unicode="&#x2126;" horiz-adv-x="696" 
d="M404 0v222q56 16 97.5 67t41.5 127q0 88 -54 142t-141 54t-141 -54t-54 -142q0 -76 41.5 -127t97.5 -67v-222h-236v86h141v85q-70 33 -112.5 97t-42.5 149q0 121 85 202t221 81t221 -81t85 -202q0 -85 -42.5 -149t-112.5 -97v-85h141v-86h-236z" />
    <glyph glyph-name="estimated" unicode="&#x212e;" horiz-adv-x="850" 
d="M184 113q98 -103 243 -103q76 0 142 31t113 86h58q-55 -64 -137.5 -101.5t-176.5 -37.5q-165 0 -281 104t-116 252t116.5 252t280.5 104t280 -104t116 -252v-10h-641q-7 0 -7 -4v-194q0 -11 10 -23zM181 355h492q4 0 4 6v193q0 14 -10 24q-98 100 -240 100t-242 -103
q-11 -11 -11 -26v-188q0 -6 7 -6z" />
    <glyph glyph-name="uni2153" unicode="&#x2153;" horiz-adv-x="793" 
d="M469 105h82q0 -25 17 -39t46 -14t46 12.5t17 35.5q0 49 -65 49h-24v56h24q58 0 58 44q0 43 -56 43q-26 0 -41 -13t-15 -36h-81q1 52 38.5 80.5t101.5 28.5q62 0 99.5 -27t37.5 -70q0 -29 -15.5 -49.5t-41.5 -26.5v-3q31 -7 49.5 -29t18.5 -54q0 -49 -39.5 -75t-111.5 -26
q-144 0 -145 113zM204 -12l348 712h75l-348 -712h-75zM75 541l-36 61l145 86h54v-274h92v-70h-279v70h98v170z" />
    <glyph glyph-name="uni2154" unicode="&#x2154;" horiz-adv-x="793" 
d="M30 344q0 72 31 110t85 64l21 10q69 32 69 59q0 43 -55 43q-60 0 -63 -59h-84q2 63 43.5 94t102.5 31q65 0 104 -28t39 -78q0 -43 -27.5 -68t-81.5 -50l-21 -10q-59 -28 -59 -48h188v-70h-292zM469 105h82q0 -25 17 -39t46 -14t46 12.5t17 35.5q0 49 -65 49h-24v56h24
q58 0 58 44q0 43 -56 43q-26 0 -41 -13t-15 -36h-81q1 52 38.5 80.5t101.5 28.5q62 0 99.5 -27t37.5 -70q0 -29 -15.5 -49.5t-41.5 -26.5v-3q31 -7 49.5 -29t18.5 -54q0 -49 -39.5 -75t-111.5 -26q-144 0 -145 113zM203 -12l348 712h75l-348 -712h-75z" />
    <glyph glyph-name="uni2155" unicode="&#x2155;" horiz-adv-x="793" 
d="M478 92h85q8 -41 55 -41q23 0 39.5 15t16.5 43q0 27 -16 40.5t-40 13.5q-38 0 -52 -31l-83 7l13 205h245v-70h-170l-7 -78h4q20 26 69 26q55 0 89 -27t34 -85q0 -56 -40 -87t-100 -31q-133 0 -142 100zM198 -12l348 712h75l-348 -712h-75zM75 541l-36 61l145 86h54v-274
h92v-70h-279v70h98v170z" />
    <glyph glyph-name="uni2156" unicode="&#x2156;" horiz-adv-x="793" 
d="M30 344q0 72 31 110t85 64l21 10q69 32 69 59q0 43 -55 43q-60 0 -63 -59h-84q2 63 43.5 94t102.5 31q65 0 104 -28t39 -78q0 -43 -27.5 -68t-81.5 -50l-21 -10q-59 -28 -59 -48h188v-70h-292zM478 92h85q8 -41 55 -41q23 0 39.5 15t16.5 43q0 27 -16 40.5t-40 13.5
q-38 0 -52 -31l-83 7l13 205h245v-70h-170l-7 -78h4q20 26 69 26q55 0 89 -27t34 -85q0 -56 -40 -87t-100 -31q-133 0 -142 100zM198 -12l348 712h74l-348 -712h-74z" />
    <glyph glyph-name="uni2157" unicode="&#x2157;" horiz-adv-x="793" 
d="M478 92h85q8 -41 55 -41q23 0 39.5 15t16.5 43q0 27 -16 40.5t-40 13.5q-38 0 -52 -31l-83 7l13 205h245v-70h-170l-7 -78h4q20 26 69 26q55 0 89 -27t34 -85q0 -56 -40 -87t-100 -31q-133 0 -142 100zM34 449h83q0 -25 17 -39t46 -14q28 0 45.5 12.5t17.5 35.5
q0 24 -17.5 36.5t-47.5 12.5h-24v56h24q58 0 58 44q0 43 -56 43q-26 0 -41 -13t-15 -36h-82q1 52 39 80.5t102 28.5q62 0 99.5 -27t37.5 -70q0 -29 -15.5 -49.5t-41.5 -26.5v-3q31 -7 49.5 -29t18.5 -54q0 -49 -39.5 -75t-111.5 -26q-145 0 -146 113zM187 -12l348 712h74
l-348 -712h-74z" />
    <glyph glyph-name="uni2158" unicode="&#x2158;" horiz-adv-x="793" 
d="M478 92h85q8 -41 55 -41q23 0 39.5 15t16.5 43q0 27 -16 40.5t-40 13.5q-38 0 -52 -31l-83 7l13 205h245v-70h-170l-7 -78h4q20 26 69 26q55 0 89 -27t34 -85q0 -56 -40 -87t-100 -31q-133 0 -142 100zM22 405v52l188 232h75v-217h47v-67h-47v-61h-88v61h-175zM189 -12
l348 712h74l-348 -712h-74zM112 472h85v107z" />
    <glyph glyph-name="uni2159" unicode="&#x2159;" horiz-adv-x="793" 
d="M751 251h-85q0 17 -12.5 28.5t-31.5 11.5q-28 0 -45.5 -22t-20.5 -80h4q21 33 79 33q53 0 86.5 -27t33.5 -85q0 -55 -40 -86.5t-99 -31.5q-152 0 -152 172q0 99 42 143.5t113 44.5q62 0 94 -27.5t34 -73.5zM207 -12l348 712h75l-348 -712h-75zM75 541l-36 61l145 86h54
v-274h92v-70h-279v70h98v170zM617 163q-24 0 -40 -13.5t-16 -40.5q0 -28 16 -43t40 -15t40 15t16 43q0 27 -16 40.5t-40 13.5z" />
    <glyph glyph-name="uni215A" unicode="&#x215a;" horiz-adv-x="793" 
d="M751 251h-85q0 17 -12.5 28.5t-31.5 11.5q-28 0 -45.5 -22t-20.5 -80h4q21 33 79 33q53 0 86.5 -27t33.5 -85q0 -55 -40 -86.5t-99 -31.5q-152 0 -152 172q0 99 42 143.5t113 44.5q62 0 94 -27.5t34 -73.5zM43 436h86q8 -41 54 -41q24 0 40 15t16 43q0 27 -16 40.5
t-40 13.5q-37 0 -52 -31l-82 7l13 205h244v-70h-169l-7 -78h4q20 26 69 26q55 0 89 -27t34 -85q0 -56 -40 -87t-100 -31q-132 0 -143 100zM186 -12l348 712h74l-348 -712h-74zM617 163q-24 0 -40 -13.5t-16 -40.5q0 -28 16 -43t40 -15t40 15t16 43q0 27 -16 40.5t-40 13.5z
" />
    <glyph glyph-name="uni215B" unicode="&#x215b;" horiz-adv-x="793" 
d="M462 91q0 33 18.5 55.5t49.5 28.5v4q-26 6 -41.5 27t-15.5 49q0 43 38 70t103 27q64 0 102 -27t38 -70q0 -29 -15.5 -49.5t-41.5 -26.5v-4q31 -6 49.5 -28.5t18.5 -55.5q0 -48 -39.5 -73.5t-111.5 -25.5t-112 25.5t-40 73.5zM203 -12l348 712h75l-348 -712h-75zM75 541
l-36 61l145 86h54v-274h92v-70h-279v70h98v170zM551 100q0 -23 17 -35.5t46 -12.5t46 12.5t17 35.5q0 49 -63 49t-63 -49zM558 249q0 -44 56 -44t56 44q0 43 -56 43t-56 -43z" />
    <glyph glyph-name="uni215C" unicode="&#x215c;" horiz-adv-x="793" 
d="M462 91q0 33 18.5 55.5t49.5 28.5v4q-26 6 -41.5 27t-15.5 49q0 43 38 70t103 27q64 0 102 -27t38 -70q0 -29 -15.5 -49.5t-41.5 -26.5v-4q31 -6 49.5 -28.5t18.5 -55.5q0 -48 -39.5 -73.5t-111.5 -25.5t-112 25.5t-40 73.5zM34 449h83q0 -25 17 -39t46 -14
q28 0 45.5 12.5t17.5 35.5q0 24 -17.5 36.5t-47.5 12.5h-24v56h24q58 0 58 44q0 43 -56 43q-26 0 -41 -13t-15 -36h-82q1 52 39 80.5t102 28.5q62 0 99.5 -27t37.5 -70q0 -29 -15.5 -49.5t-41.5 -26.5v-3q31 -7 49.5 -29t18.5 -54q0 -49 -39.5 -75t-111.5 -26
q-145 0 -146 113zM186 -12l348 712h75l-348 -712h-75zM551 100q0 -23 17 -35.5t46 -12.5t46 12.5t17 35.5q0 49 -63 49t-63 -49zM558 249q0 -44 56 -44t56 44q0 43 -56 43t-56 -43z" />
    <glyph glyph-name="uni215D" unicode="&#x215d;" horiz-adv-x="793" 
d="M462 91q0 33 18.5 55.5t49.5 28.5v4q-26 6 -41.5 27t-15.5 49q0 43 38 70t103 27q64 0 102 -27t38 -70q0 -29 -15.5 -49.5t-41.5 -26.5v-4q31 -6 49.5 -28.5t18.5 -55.5q0 -48 -39.5 -73.5t-111.5 -25.5t-112 25.5t-40 73.5zM43 436h86q8 -41 54 -41q24 0 40 15t16 43
q0 27 -16 40.5t-40 13.5q-37 0 -52 -31l-82 7l13 205h244v-70h-169l-7 -78h4q20 26 69 26q55 0 89 -27t34 -85q0 -56 -40 -87t-100 -31q-132 0 -143 100zM186 -12l348 712h74l-348 -712h-74zM551 100q0 -23 17 -35.5t46 -12.5t46 12.5t17 35.5q0 49 -63 49t-63 -49zM558 249
q0 -44 56 -44t56 44q0 43 -56 43t-56 -43z" />
    <glyph glyph-name="uni215E" unicode="&#x215e;" horiz-adv-x="793" 
d="M462 91q0 33 18.5 55.5t49.5 28.5v4q-26 6 -41.5 27t-15.5 49q0 43 38 70t103 27q64 0 102 -27t38 -70q0 -29 -15.5 -49.5t-41.5 -26.5v-4q31 -6 49.5 -28.5t18.5 -55.5q0 -48 -39.5 -73.5t-111.5 -25.5t-112 25.5t-40 73.5zM158 -12l348 712h74l-348 -712h-74zM75 344
l150 269h-193v75h297v-54l-160 -290h-94zM551 100q0 -23 17 -35.5t46 -12.5t46 12.5t17 35.5q0 49 -63 49t-63 -49zM558 249q0 -44 56 -44t56 44q0 43 -56 43t-56 -43z" />
    <glyph glyph-name="uni2190" unicode="&#x2190;" horiz-adv-x="660" 
d="M335 54l-57 -52l-250 250l250 250l57 -52l-163 -161q64 4 165 4h295v-82h-295q-101 0 -165 4z" />
    <glyph glyph-name="uni2191" unicode="&#x2191;" horiz-adv-x="660" 
d="M134 247l-52 57l250 250l251 -250l-53 -57l-161 163q4 -64 4 -165v-295h-82v295q0 101 4 165z" />
    <glyph glyph-name="uni2192" unicode="&#x2192;" horiz-adv-x="660" 
d="M382 2l-57 52l162 161q-63 -4 -164 -4h-295v82h295q101 0 164 -4l-162 161l57 52l250 -250z" />
    <glyph glyph-name="uni2193" unicode="&#x2193;" horiz-adv-x="660" 
d="M528 257l52 -57l-250 -250l-250 250l52 57l161 -163q-4 64 -4 165v295h82v-295q0 -101 -4 -165z" />
    <glyph glyph-name="uni2196" unicode="&#x2196;" horiz-adv-x="660" 
d="M104 482h354v-75h-225q22 -19 45 -41l45.5 -44.5l28.5 -28.5l207 -208l-56 -60l-208 210q-68 65 -115 120v-227h-76v354z" />
    <glyph glyph-name="uni2197" unicode="&#x2197;" horiz-adv-x="660" 
d="M205 407v75h354v-354h-75v227q-36 -41 -115 -120l-208 -210l-57 60l208 208q90 90 118 114h-225z" />
    <glyph glyph-name="uni2198" unicode="&#x2198;" horiz-adv-x="660" 
d="M205 25v76h225q-49 42 -118 114l-208 208l57 59l208 -209q79 -79 115 -120v226h75v-354h-354z" />
    <glyph glyph-name="uni2199" unicode="&#x2199;" horiz-adv-x="660" 
d="M233 101h225v-76h-354v354h76v-226q47 55 115 120l208 209l56 -59l-207 -208q-84 -84 -119 -114z" />
    <glyph glyph-name="partialdiff" unicode="&#x2202;" horiz-adv-x="568" 
d="M18 193q0 114 70 180.5t170 66.5q52 0 96 -21.5t61 -56.5q1 14 1 41q0 109 -35.5 159t-90.5 50q-97 0 -118 -96h-106q18 85 76.5 134.5t155.5 49.5q99 0 163.5 -73.5t64.5 -224.5q0 -114 -25 -197.5t-68 -129t-93.5 -66.5t-109.5 -21q-89 0 -150.5 55.5t-61.5 149.5z
M244 76q57 0 100 45.5t43 106.5q0 57 -31.5 90.5t-86.5 33.5q-60 0 -100.5 -42.5t-40.5 -113.5q0 -56 32.5 -88t83.5 -32z" />
    <glyph glyph-name="Delta" unicode="&#x2206;" horiz-adv-x="652" 
d="M21 0l243 688h124l244 -688h-611zM326 576h-4l-165 -486h332z" />
    <glyph glyph-name="product" unicode="&#x220f;" horiz-adv-x="732" 
d="M87 0v688h558v-688h-108v598h-341v-598h-109z" />
    <glyph glyph-name="summation" unicode="&#x2211;" horiz-adv-x="539" 
d="M19 0v53l223 286l-215 289v60h476v-89h-331l191 -254l-202 -256h354v-89h-496z" />
    <glyph glyph-name="minus" unicode="&#x2212;" horiz-adv-x="568" 
d="M57 210v88h454v-88h-454z" />
    <glyph glyph-name="uni2215" unicode="&#x2215;" horiz-adv-x="75" 
d="M-174 -12l348 712h75l-348 -712h-75z" />
    <glyph glyph-name="uni2219" unicode="&#x2219;" horiz-adv-x="273" 
d="M72 190v124h129v-124h-129z" />
    <glyph glyph-name="radical" unicode="&#x221a;" horiz-adv-x="598" 
d="M27 292v88l154 49l120 -311h4l198 570h105l-243 -688h-120l-130 320z" />
    <glyph glyph-name="infinity" unicode="&#x221e;" horiz-adv-x="708" 
d="M190 88q-73 0 -119 46t-46 119t46 119t119 46q94 0 166 -102q73 102 162 102q73 0 119 -46t46 -119t-46 -119t-119 -46q-95 0 -166 101q-74 -101 -162 -101zM187 168q56 0 118 85q-62 85 -118 85q-35 0 -56.5 -25t-21.5 -60t21.5 -60t56.5 -25zM403 253q62 -85 118 -85
q35 0 56.5 25t21.5 60t-21.5 60t-56.5 25q-56 0 -118 -85z" />
    <glyph glyph-name="integral" unicode="&#x222b;" horiz-adv-x="364" 
d="M27 -96h29q45 0 66.5 22.5t22.5 60.5t-1 88l-30 498q-4 58 1.5 100t24 78.5t57.5 55t98 18.5h40v-88h-29q-45 0 -66.5 -22.5t-22.5 -60.5t1 -88l30 -498q3 -57 -2.5 -99t-23.5 -78.5t-57 -55.5t-98 -19h-40v88z" />
    <glyph glyph-name="approxequal" unicode="&#x2248;" horiz-adv-x="568" 
d="M52 282q0 81 38 122t95 41q39 0 76 -18.5t67 -36.5t53 -18q50 0 50 75h86q0 -80 -37.5 -121.5t-92.5 -41.5q-39 0 -77 19t-69 38t-53 19q-50 0 -50 -78h-86zM52 64q0 80 38 121.5t95 41.5q39 0 76 -18.5t67 -36.5t53 -18q50 0 50 75h86q0 -80 -37.5 -121.5t-92.5 -41.5
q-39 0 -77 19t-69 38t-53 19q-50 0 -50 -78h-86z" />
    <glyph glyph-name="notequal" unicode="&#x2260;" horiz-adv-x="568" 
d="M56 316v88h261l74 138l70 -38l-54 -100h105v-88h-152l-66 -124h218v-88h-265l-74 -138l-70 38l53 100h-100v88h147l67 124h-214z" />
    <glyph glyph-name="lessequal" unicode="&#x2264;" horiz-adv-x="568" 
d="M72 324v89l424 175v-95l-318 -123l318 -124v-98zM72 0v88h424v-88h-424z" />
    <glyph glyph-name="greaterequal" unicode="&#x2265;" horiz-adv-x="568" 
d="M496 413v-90l-424 -175v95l318 123l-318 124v98zM72 0v88h424v-88h-424z" />
    <glyph glyph-name="uni25A0" unicode="&#x25a0;" horiz-adv-x="688" 
d="M0 0v688h688v-688h-688z" />
    <glyph glyph-name="uni25A1" unicode="&#x25a1;" horiz-adv-x="688" 
d="M0 0v688h688v-688h-688zM96 90h496v508h-496v-508z" />
    <glyph glyph-name="uni25B6" unicode="&#x25b6;" horiz-adv-x="502" 
d="M44 -12v512l446 -256z" />
    <glyph glyph-name="uni25B7" unicode="&#x25b7;" horiz-adv-x="502" 
d="M44 -12v512l446 -256zM130 131l204 113l-204 113v-226z" />
    <glyph glyph-name="uni25C0" unicode="&#x25c0;" horiz-adv-x="502" 
d="M12 244l446 256v-512z" />
    <glyph glyph-name="uni25C1" unicode="&#x25c1;" horiz-adv-x="502" 
d="M12 244l446 256v-512zM168 244l204 -113v226z" />
    <glyph glyph-name="lozenge" unicode="&#x25ca;" horiz-adv-x="653" 
d="M276 0l-246 344l246 344h101l246 -344l-246 -344h-101zM328 599h-5l-178 -253l181 -257h4l178 252z" />
    <glyph glyph-name="uni25CB" unicode="&#x25cb;" horiz-adv-x="552" 
d="M22 244q0 108 73.5 182t180.5 74q108 0 181 -73t73 -183q0 -108 -73.5 -182t-180.5 -74q-108 0 -181 73t-73 183zM117 244q0 -74 45.5 -122.5t113.5 -48.5q71 0 115 48t44 123q0 74 -45.5 122.5t-113.5 48.5q-71 0 -115 -48t-44 -123z" />
    <glyph glyph-name="uni25CF" unicode="&#x25cf;" horiz-adv-x="552" 
d="M22 244q0 108 73.5 182t180.5 74q108 0 181 -73t73 -183q0 -108 -73.5 -182t-180.5 -74q-108 0 -181 73t-73 183z" />
    <glyph glyph-name="uni25FB" unicode="&#x25fb;" horiz-adv-x="488" 
d="M0 0v488h488v-488h-488zM92 85h304v318h-304v-318z" />
    <glyph glyph-name="uni25FC" unicode="&#x25fc;" horiz-adv-x="488" 
d="M0 0v488h488v-488h-488z" />
    <glyph glyph-name="uni2605" unicode="&#x2605;" horiz-adv-x="546" 
d="M106 13l68 183l-162 108l5 16l195 -9l53 189h16l52 -189l196 9l5 -16l-163 -108l69 -183l-14 -10l-153 121l-153 -121z" />
    <glyph glyph-name="dotlessi.sc" unicode="&#xe08e;" horiz-adv-x="277" 
d="M84 0v520h109v-520h-109z" />
    <glyph glyph-name="g.superior" unicode="&#xe0a3;" horiz-adv-x="435" 
d="M42 454h86q1 -25 22 -38.5t55 -13.5q94 0 94 117v30h-3q-29 -61 -115 -61q-64 0 -107 46.5t-43 130.5q0 85 46 134.5t110 49.5q79 0 109 -62h3v53h87v-322q0 -98 -47.5 -140.5t-134.5 -42.5q-73 0 -116 30t-46 89zM125 665q0 -49 23 -77.5t62 -28.5q38 0 61.5 29.5
t23.5 79.5v5q-1 47 -25 75.5t-60 28.5q-38 0 -61.5 -30.5t-23.5 -81.5z" />
    <glyph glyph-name="germandbls.sc" unicode="&#xe0a4;" horiz-adv-x="1082" 
d="M42 149h107q0 -38 31.5 -59t85.5 -21q117 0 117 76q0 27 -24.5 42.5t-61.5 20t-79.5 13.5t-79.5 21t-61.5 44.5t-24.5 81.5q0 73 58.5 118.5t159.5 45.5q99 0 154 -42.5t55 -114.5h-104q0 35 -29 55.5t-76 20.5q-50 0 -79.5 -18t-29.5 -54q0 -33 34.5 -49t83.5 -22.5
t98.5 -17.5t84 -44t34.5 -90q0 -78 -60 -123t-170 -45q-106 0 -165 43t-59 118zM583 149h107q0 -38 31.5 -59t85.5 -21q117 0 117 76q0 27 -24.5 42.5t-61.5 20t-79.5 13.5t-79.5 21t-61.5 44.5t-24.5 81.5q0 73 58.5 118.5t159.5 45.5q99 0 154 -42.5t55 -114.5h-104
q0 35 -29 55.5t-76 20.5q-50 0 -79.5 -18t-29.5 -54q0 -33 34.5 -49t84 -22.5t98.5 -17.5t83.5 -44t34.5 -90q0 -78 -60 -123t-170 -45q-106 0 -165 43t-59 118z" />
    <glyph glyph-name="onesuperior" unicode="&#xe105;" 
d="M75 693l-36 61l145 86h54v-274h92v-70h-279v70h98v170z" />
    <glyph glyph-name="twosuperior" unicode="&#xe107;" 
d="M30 496q0 72 31 110t85 64l21 10q69 32 69 59q0 43 -55 43q-60 0 -63 -59h-84q2 63 43.5 94t102.5 31q65 0 104 -28t39 -78q0 -43 -27.5 -68t-81.5 -50l-21 -10q-59 -28 -59 -48h188v-70h-292z" />
    <glyph glyph-name="threesuperior" unicode="&#xe108;" 
d="M34 601h83q0 -25 17 -39t46 -14q28 0 45.5 12.5t17.5 35.5q0 24 -17.5 36.5t-47.5 12.5h-24v56h24q58 0 58 44q0 43 -56 43q-26 0 -41 -13t-15 -36h-82q1 52 39 80.5t102 28.5q62 0 99.5 -27t37.5 -70q0 -29 -15.5 -49.5t-41.5 -26.5v-3q31 -7 49.5 -29t18.5 -54
q0 -49 -39.5 -75t-111.5 -26q-145 0 -146 113z" />
    <glyph glyph-name="cent.denominator" unicode="&#xf629;" 
d="M34 171q0 52 30.5 86t86.5 42v53h70v-53q47 -8 74 -35t30 -61h-87q-9 37 -52 37q-29 0 -45.5 -18.5t-16.5 -50.5t16.5 -50.5t45.5 -18.5q43 0 52 37h87q-3 -35 -30 -62t-74 -35v-50h-70v50q-56 9 -86.5 43t-30.5 86z" />
    <glyph glyph-name="dollar.denominator" unicode="&#xf62a;" 
d="M28 100h82q2 -22 21 -35.5t49 -13.5q27 0 44.5 10.5t17.5 30.5q0 19 -21.5 29t-52 15t-60.5 13.5t-51.5 31.5t-21.5 61q0 42 29 71t81 36v55h69v-55q47 -7 75 -33t31 -63h-85q-6 39 -55 39q-59 0 -59 -38q0 -19 21.5 -30t52 -16.5t60.5 -14t51.5 -31.5t21.5 -60
q0 -46 -29.5 -74t-84.5 -34v-62h-69v62q-56 7 -86 34.5t-31 71.5z" />
    <glyph glyph-name="hyphen.denominator" unicode="&#xf62b;" horiz-adv-x="282" 
d="M35 137v74h211v-74h-211z" />
    <glyph glyph-name="parenleft.denominator" unicode="&#xf62c;" horiz-adv-x="230" 
d="M140 -72q-32 39 -56 105.5t-24 138.5t24 138.5t56 105.5h82q-30 -37 -55 -105t-25 -139t25 -139t55 -105h-82z" />
    <glyph glyph-name="parenright.denominator" unicode="&#xf62d;" horiz-adv-x="230" 
d="M8 -72q30 37 55 105t25 139t-25 139t-55 105h82q32 -39 56 -105.5t24 -138.5t-24 -138.5t-56 -105.5h-82z" />
    <glyph glyph-name="cent.numerator" unicode="&#xf62e;" 
d="M34 515q0 52 30.5 86t86.5 42v53h70v-53q47 -8 74 -35t30 -61h-87q-9 37 -52 37q-29 0 -45.5 -18.5t-16.5 -50.5t16.5 -50.5t45.5 -18.5q43 0 52 37h87q-3 -35 -30 -62t-74 -35v-50h-70v50q-56 9 -86.5 43t-30.5 86z" />
    <glyph glyph-name="dollar.numerator" unicode="&#xf62f;" 
d="M28 444h82q2 -22 21 -35.5t49 -13.5q27 0 44.5 10.5t17.5 30.5q0 19 -21.5 29t-52 15t-60.5 13.5t-51.5 31.5t-21.5 61q0 42 29 71t81 36v55h69v-55q47 -7 75 -33t31 -63h-85q-6 39 -55 39q-59 0 -59 -38q0 -19 21.5 -30t52 -16.5t60.5 -14t51.5 -31.5t21.5 -60
q0 -46 -29.5 -74t-84.5 -34v-62h-69v62q-56 7 -86 34.5t-31 71.5z" />
    <glyph glyph-name="hyphen.numerator" unicode="&#xf630;" horiz-adv-x="282" 
d="M35 481v74h211v-74h-211z" />
    <glyph glyph-name="parenleft.numerator" unicode="&#xf631;" horiz-adv-x="230" 
d="M140 272q-32 39 -56 105.5t-24 138.5t24 138.5t56 105.5h82q-30 -37 -55 -105t-25 -139t25 -139t55 -105h-82z" />
    <glyph glyph-name="parenright.numerator" unicode="&#xf632;" horiz-adv-x="230" 
d="M8 272q30 37 55 105t25 139t-25 139t-55 105h82q32 -39 56 -105.5t24 -138.5t-24 -138.5t-56 -105.5h-82z" />
    <glyph glyph-name="h.superior" unicode="&#xf637;" horiz-adv-x="419" 
d="M49 496v516h91v-109q0 -64 -4 -114h4q27 60 108 60q55 0 90.5 -33t35.5 -103v-217h-91v196q0 83 -67 83q-34 0 -55 -26.5t-21 -71.5v-181h-91z" />
    <glyph glyph-name="zero.denominator" unicode="&#xf655;" 
d="M180 -8q-76 0 -115.5 50t-39.5 130t39.5 130t115.5 50t115 -50t39 -130t-39 -130t-115 -50zM180 60q67 0 67 112t-67 112q-68 0 -68 -112t68 -112z" />
    <glyph glyph-name="one.denominator" unicode="&#xf656;" 
d="M75 197l-36 61l145 86h54v-274h92v-70h-279v70h98v170z" />
    <glyph glyph-name="two.denominator" unicode="&#xf657;" 
d="M30 0q0 72 31 110t85 64l21 10q69 32 69 59q0 43 -55 43q-60 0 -63 -59h-84q2 63 43.5 94t102.5 31q65 0 104 -28t39 -78q0 -43 -27.5 -68t-81.5 -50l-21 -10q-59 -28 -59 -48h188v-70h-292z" />
    <glyph glyph-name="three.denominator" unicode="&#xf658;" 
d="M34 105h83q0 -25 17 -39t46 -14q28 0 45.5 12.5t17.5 35.5q0 24 -17.5 36.5t-47.5 12.5h-24v56h24q58 0 58 44q0 43 -56 43q-26 0 -41 -13t-15 -36h-82q1 52 39 80.5t102 28.5q62 0 99.5 -27t37.5 -70q0 -29 -15.5 -49.5t-41.5 -26.5v-3q31 -7 49.5 -29t18.5 -54
q0 -49 -39.5 -75t-111.5 -26q-145 0 -146 113z" />
    <glyph glyph-name="four.denominator" unicode="&#xf659;" 
d="M22 61v52l188 232h75v-217h47v-67h-47v-61h-88v61h-175zM112 128h85v107z" />
    <glyph glyph-name="five.denominator" unicode="&#xf65a;" 
d="M43 92h86q8 -41 54 -41q24 0 40 15t16 43q0 27 -16 40.5t-40 13.5q-37 0 -52 -31l-82 7l13 205h244v-70h-169l-7 -78h4q20 26 69 26q55 0 89 -27t34 -85q0 -56 -40 -87t-100 -31q-132 0 -143 100z" />
    <glyph glyph-name="six.denominator" unicode="&#xf65b;" 
d="M317 251h-85q0 17 -12.5 28.5t-31.5 11.5q-28 0 -45.5 -21.5t-20.5 -79.5q10 14 33.5 23t49.5 9q53 0 86.5 -27t33.5 -85q0 -55 -40 -86.5t-99 -31.5q-152 0 -152 172q0 188 155 188q61 0 93 -27.5t35 -73.5zM183 163q-24 0 -40 -13.5t-16 -40.5q0 -28 16 -43t40 -15
t40 15t16 43q0 27 -16 40.5t-40 13.5z" />
    <glyph glyph-name="seven.denominator" unicode="&#xf65c;" 
d="M75 0l150 269h-193v75h297v-54l-160 -290h-94z" />
    <glyph glyph-name="eight.denominator" unicode="&#xf65d;" 
d="M28 91q0 33 18.5 55.5t49.5 28.5v4q-26 6 -41.5 26.5t-15.5 49.5q0 43 38 70t103 27q64 0 102 -27t38 -70q0 -29 -15.5 -49.5t-41.5 -26.5v-4q31 -6 49.5 -28.5t18.5 -55.5q0 -48 -39.5 -73.5t-111.5 -25.5t-112 25.5t-40 73.5zM117 100q0 -23 17 -35.5t46 -12.5
q28 0 45.5 12.5t17.5 35.5q0 24 -17.5 36.5t-45.5 12.5q-63 0 -63 -49zM124 249q0 -44 56 -44t56 44q0 43 -56 43t-56 -43z" />
    <glyph glyph-name="nine.denominator" unicode="&#xf65e;" 
d="M38 93h85q1 -16 16 -28t35 -12q27 0 41.5 21.5t16.5 78.5q-7 -13 -29.5 -22t-47.5 -9q-56 0 -90.5 26.5t-34.5 81.5t40 88.5t100 33.5q151 0 151 -172q0 -188 -148 -188q-62 0 -97 28t-38 73zM172 181q23 0 39.5 13.5t16.5 40.5q0 28 -16 43t-40 15q-23 0 -39.5 -15
t-16.5 -43q0 -27 16 -40.5t40 -13.5z" />
    <glyph glyph-name="comma.denominator" unicode="&#xf65f;" horiz-adv-x="193" 
d="M50 0v98h93v-94l-29 -120h-47l23 116h-40z" />
    <glyph glyph-name="period.denominator" unicode="&#xf660;" horiz-adv-x="193" 
d="M50 0v98h93v-98h-93z" />
    <glyph glyph-name="zero.numerator" unicode="&#xf661;" 
d="M180 336q-76 0 -115.5 50t-39.5 130t39.5 130t115.5 50t115 -50t39 -130t-39 -130t-115 -50zM180 404q67 0 67 112t-67 112q-68 0 -68 -112t68 -112z" />
    <glyph glyph-name="one.numerator" unicode="&#xf662;" 
d="M75 541l-36 61l145 86h54v-274h92v-70h-279v70h98v170z" />
    <glyph glyph-name="two.numerator" unicode="&#xf663;" 
d="M30 344q0 72 31 110t85 64l21 10q69 32 69 59q0 43 -55 43q-60 0 -63 -59h-84q2 63 43.5 94t102.5 31q65 0 104 -28t39 -78q0 -43 -27.5 -68t-81.5 -50l-21 -10q-59 -28 -59 -48h188v-70h-292z" />
    <glyph glyph-name="three.numerator" unicode="&#xf664;" 
d="M34 449h83q0 -25 17 -39t46 -14q28 0 45.5 12.5t17.5 35.5q0 24 -17.5 36.5t-47.5 12.5h-24v56h24q58 0 58 44q0 43 -56 43q-26 0 -41 -13t-15 -36h-82q1 52 39 80.5t102 28.5q62 0 99.5 -27t37.5 -70q0 -29 -15.5 -49.5t-41.5 -26.5v-3q31 -7 49.5 -29t18.5 -54
q0 -49 -39.5 -75t-111.5 -26q-145 0 -146 113z" />
    <glyph glyph-name="four.numerator" unicode="&#xf665;" 
d="M22 405v52l188 232h75v-217h47v-67h-47v-61h-88v61h-175zM112 472h85v107z" />
    <glyph glyph-name="five.numerator" unicode="&#xf666;" 
d="M43 436h86q8 -41 54 -41q24 0 40 15t16 43q0 27 -16 40.5t-40 13.5q-37 0 -52 -31l-82 7l13 205h244v-70h-169l-7 -78h4q20 26 69 26q55 0 89 -27t34 -85q0 -56 -40 -87t-100 -31q-132 0 -143 100z" />
    <glyph glyph-name="six.numerator" unicode="&#xf667;" 
d="M317 595h-85q0 17 -12.5 28.5t-31.5 11.5q-28 0 -45.5 -21.5t-20.5 -79.5q10 14 33.5 23t49.5 9q53 0 86.5 -27t33.5 -85q0 -55 -40 -86.5t-99 -31.5q-152 0 -152 172q0 188 155 188q61 0 93 -27.5t35 -73.5zM183 507q-24 0 -40 -13.5t-16 -40.5q0 -28 16 -43t40 -15
t40 15t16 43q0 27 -16 40.5t-40 13.5z" />
    <glyph glyph-name="seven.numerator" unicode="&#xf668;" 
d="M75 344l150 269h-193v75h297v-54l-160 -290h-94z" />
    <glyph glyph-name="eight.numerator" unicode="&#xf669;" 
d="M28 435q0 33 18.5 55.5t49.5 28.5v4q-26 6 -41.5 26.5t-15.5 49.5q0 43 38 70t103 27q64 0 102 -27t38 -70q0 -29 -15.5 -49.5t-41.5 -26.5v-4q31 -6 49.5 -28.5t18.5 -55.5q0 -48 -39.5 -73.5t-111.5 -25.5t-112 25.5t-40 73.5zM117 444q0 -23 17 -35.5t46 -12.5
q28 0 45.5 12.5t17.5 35.5q0 24 -17.5 36.5t-45.5 12.5q-63 0 -63 -49zM124 593q0 -44 56 -44t56 44q0 43 -56 43t-56 -43z" />
    <glyph glyph-name="nine.numerator" unicode="&#xf66a;" 
d="M38 437h85q1 -16 16 -28t35 -12q27 0 41.5 21.5t16.5 78.5q-7 -13 -29.5 -22t-47.5 -9q-56 0 -90.5 26.5t-34.5 81.5t40 88.5t100 33.5q151 0 151 -172q0 -188 -148 -188q-62 0 -97 28t-38 73zM172 525q23 0 39.5 13.5t16.5 40.5q0 28 -16 43t-40 15q-23 0 -39.5 -15
t-16.5 -43q0 -27 16 -40.5t40 -13.5z" />
    <glyph glyph-name="comma.numerator" unicode="&#xf66b;" horiz-adv-x="193" 
d="M50 344v98h93v-94l-29 -120h-47l23 116h-40z" />
    <glyph glyph-name="period.numerator" unicode="&#xf66c;" horiz-adv-x="193" 
d="M50 344v98h93v-98h-93z" />
    <glyph glyph-name="abreve.sc" unicode="&#xf66d;" horiz-adv-x="547" 
d="M7 0l204 520h128l201 -520h-114l-42 115h-226l-42 -115h-109zM275 417h-4l-82 -219h165zM274 609q-57 0 -99.5 35t-49.5 111h63q13 -81 86 -81q74 0 87 81h63q-7 -76 -49.5 -111t-100.5 -35z" />
    <glyph glyph-name="amacron.sc" unicode="&#xf66e;" horiz-adv-x="547" 
d="M7 0l204 520h128l201 -520h-114l-42 115h-226l-42 -115h-109zM275 417h-4l-82 -219h165zM129 643v78h287v-78h-287z" />
    <glyph glyph-name="aogonek.sc" unicode="&#xf66f;" horiz-adv-x="547" 
d="M406 -128q0 61 81 128h-61l-42 115h-226l-42 -115h-109l204 520h128l201 -520h3q-60 -63 -60 -108q0 -46 53 -46h29v-66h-40q-58 0 -88.5 24.5t-30.5 67.5zM275 417h-4l-82 -219h165z" />
    <glyph glyph-name="aeacute.sc" unicode="&#xf670;" horiz-adv-x="895" 
d="M-2 0l397 520h434v-87h-289v-127h234v-84h-234v-135h298v-87h-406v115h-228l-85 -115h-121zM428 417l-162 -218h166v218h-4zM450 600l102 164h120l-146 -164h-76z" />
    <glyph glyph-name="cacute.sc" unicode="&#xf671;" horiz-adv-x="591" 
d="M41 260q0 120 74.5 196t197.5 76q98 0 163 -50.5t81 -134.5h-107q-26 91 -135 91q-74 0 -118 -49t-44 -129q0 -78 44 -128t118 -50q105 0 135 91h107q-16 -84 -81 -134.5t-164 -50.5q-123 0 -197 78t-74 194zM275 600l102 164h120l-146 -164h-76z" />
    <glyph glyph-name="ccaron.sc" unicode="&#xf672;" horiz-adv-x="591" 
d="M41 260q0 120 74.5 196t197.5 76q98 0 163 -50.5t81 -134.5h-107q-26 91 -135 91q-74 0 -118 -49t-44 -129q0 -78 44 -128t118 -50q105 0 135 91h107q-16 -84 -81 -134.5t-164 -50.5q-123 0 -197 78t-74 194zM269 600l-128 164h95l77 -106l78 106h95l-128 -164h-89z" />
    <glyph glyph-name="ccircumflex.sc" unicode="&#xf673;" horiz-adv-x="591" 
d="M41 260q0 120 74.5 196t197.5 76q98 0 163 -50.5t81 -134.5h-107q-26 91 -135 91q-74 0 -118 -49t-44 -129q0 -78 44 -128t118 -50q105 0 135 91h107q-16 -84 -81 -134.5t-164 -50.5q-123 0 -197 78t-74 194zM141 600l128 164h89l128 -164h-95l-78 106l-77 -106h-95z" />
    <glyph glyph-name="cdotaccent.sc" unicode="&#xf674;" horiz-adv-x="591" 
d="M41 260q0 120 74.5 196t197.5 76q98 0 163 -50.5t81 -134.5h-107q-26 91 -135 91q-74 0 -118 -49t-44 -129q0 -78 44 -128t118 -50q105 0 135 91h107q-16 -84 -81 -134.5t-164 -50.5q-123 0 -197 78t-74 194zM262 632v104h103v-104h-103z" />
    <glyph glyph-name="dcaron.sc" unicode="&#xf675;" horiz-adv-x="612" 
d="M84 0v520h210q131 0 204 -71.5t73 -188.5q0 -115 -73.5 -187.5t-203.5 -72.5h-210zM286 431h-93v-342h93q88 0 130 48.5t42 122.5q0 75 -41.5 123t-130.5 48zM246 600l-128 164h95l77 -106l78 106h95l-128 -164h-89z" />
    <glyph glyph-name="dcroat.sc" unicode="&#xf676;" horiz-adv-x="612" 
d="M4 226v68h80v226h210q131 0 204 -71.5t73 -188.5q0 -115 -73.5 -187.5t-203.5 -72.5h-210v226h-80zM286 431h-93v-137h106v-68h-106v-137h93q88 0 130 48.5t42 122.5q0 75 -41.5 123t-130.5 48z" />
    <glyph glyph-name="ebreve.sc" unicode="&#xf677;" horiz-adv-x="544" 
d="M84 0v520h398v-87h-289v-127h234v-84h-234v-135h298v-87h-407zM282 609q-57 0 -99.5 35t-49.5 111h63q13 -81 86 -81q74 0 87 81h63q-7 -76 -49.5 -111t-100.5 -35z" />
    <glyph glyph-name="ecaron.sc" unicode="&#xf678;" horiz-adv-x="544" 
d="M84 0v520h398v-87h-289v-127h234v-84h-234v-135h298v-87h-407zM238 600l-128 164h95l77 -106l78 106h95l-128 -164h-89z" />
    <glyph glyph-name="edotaccent.sc" unicode="&#xf679;" horiz-adv-x="544" 
d="M84 0v520h398v-87h-289v-127h234v-84h-234v-135h298v-87h-407zM231 632v104h103v-104h-103z" />
    <glyph glyph-name="emacron.sc" unicode="&#xf67a;" horiz-adv-x="544" 
d="M84 0v520h398v-87h-289v-127h234v-84h-234v-135h298v-87h-407zM137 643v78h287v-78h-287z" />
    <glyph glyph-name="eng.sc" unicode="&#xf67b;" horiz-adv-x="640" 
d="M84 0v520h96l267 -343h4l-4 343h109v-546q0 -107 -44 -150.5t-141 -43.5h-51v91h42q45 0 66 24.5t21 80.5v43l-256 324h-4l4 -343h-109z" />
    <glyph glyph-name="eogonek.sc" unicode="&#xf67c;" horiz-adv-x="544" 
d="M84 0v520h398v-87h-289v-127h234v-84h-234v-135h298v-87h1q-60 -63 -60 -108q0 -46 53 -46h29v-66h-40q-58 0 -88.5 24.5t-30.5 67.5q0 61 81 128h-352z" />
    <glyph glyph-name="gbreve.sc" unicode="&#xf67d;" horiz-adv-x="646" 
d="M329 199v82h243v-281h-69l-11 61h-2q-57 -73 -171 -73q-122 0 -198 78t-76 194q0 119 78 195.5t205 76.5q99 0 164.5 -49t79.5 -123h-110q-11 33 -45.5 56t-88.5 23q-78 0 -124.5 -49.5t-46.5 -129.5q0 -79 46 -129.5t123 -50.5q64 0 107 31.5t43 86.5v1h-147zM328 609
q-57 0 -99.5 35t-49.5 111h63q13 -81 86 -81q74 0 87 81h63q-7 -76 -49.5 -111t-100.5 -35z" />
    <glyph glyph-name="gcircumflex.sc" unicode="&#xf67e;" horiz-adv-x="646" 
d="M329 199v82h243v-281h-69l-11 61h-2q-57 -73 -171 -73q-122 0 -198 78t-76 194q0 119 78 195.5t205 76.5q99 0 164.5 -49t79.5 -123h-110q-11 33 -45.5 56t-88.5 23q-78 0 -124.5 -49.5t-46.5 -129.5q0 -79 46 -129.5t123 -50.5q64 0 107 31.5t43 86.5v1h-147zM156 600
l128 164h89l128 -164h-95l-78 106l-77 -106h-95z" />
    <glyph glyph-name="gcommaaccent.sc" unicode="&#xf67f;" horiz-adv-x="646" 
d="M329 199v82h243v-281h-69l-11 61h-2q-57 -73 -171 -73q-122 0 -198 78t-76 194q0 119 78 195.5t205 76.5q99 0 164.5 -49t79.5 -123h-110q-11 33 -45.5 56t-88.5 23q-78 0 -124.5 -49.5t-46.5 -129.5q0 -79 46 -129.5t123 -50.5q64 0 107 31.5t43 86.5v1h-147zM268 -64
h103v-83l-43 -106h-47l30 94h-43v95z" />
    <glyph glyph-name="gdotaccent.sc" unicode="&#xf680;" horiz-adv-x="646" 
d="M329 199v82h243v-281h-69l-11 61h-2q-57 -73 -171 -73q-122 0 -198 78t-76 194q0 119 78 195.5t205 76.5q99 0 164.5 -49t79.5 -123h-110q-11 33 -45.5 56t-88.5 23q-78 0 -124.5 -49.5t-46.5 -129.5q0 -79 46 -129.5t123 -50.5q64 0 107 31.5t43 86.5v1h-147zM277 632
v104h103v-104h-103z" />
    <glyph glyph-name="hbar.sc" unicode="&#xf681;" horiz-adv-x="640" 
d="M11 382v68h73v70h109v-70h254v70h109v-70h73v-68h-73v-382h-109v217h-254v-217h-109v382h-73zM193 382v-75h254v75h-254z" />
    <glyph glyph-name="hcircumflex.sc" unicode="&#xf682;" horiz-adv-x="640" 
d="M84 0v520h109v-213h254v213h109v-520h-109v217h-254v-217h-109zM148 600l128 164h89l128 -164h-95l-78 106l-77 -106h-95z" />
    <glyph glyph-name="ibreve.sc" unicode="&#xf683;" horiz-adv-x="277" 
d="M84 0v520h109v-520h-109zM137 609q-57 0 -99.5 35t-49.5 111h63q13 -81 86 -81q74 0 87 81h63q-7 -76 -49.5 -111t-100.5 -35z" />
    <glyph glyph-name="ij.sc" unicode="&#xf684;" horiz-adv-x="745" 
d="M84 0v520h109v-520h-109zM319 158v23h104v-23q0 -40 19.5 -60.5t52.5 -20.5t52.5 21.5t19.5 62.5v359h108v-351q0 -92 -48 -136.5t-132 -44.5q-82 0 -129 41.5t-47 128.5z" />
    <glyph glyph-name="imacron.sc" unicode="&#xf685;" horiz-adv-x="277" 
d="M84 0v520h109v-520h-109zM-8 643v78h287v-78h-287z" />
    <glyph glyph-name="iogonek.sc" unicode="&#xf686;" horiz-adv-x="277" 
d="M84 0v520h109v-520h-1q-60 -63 -60 -108q0 -46 53 -46h29v-66h-40q-58 0 -88.5 24.5t-30.5 67.5q0 61 81 128h-52z" />
    <glyph glyph-name="itilde.sc" unicode="&#xf687;" horiz-adv-x="277" 
d="M84 0v520h109v-520h-109zM-32 623q2 53 27.5 85t72.5 32q32 0 79.5 -23t63.5 -23q34 0 42 48h54q-2 -53 -27.5 -85t-72.5 -32q-32 0 -80 23t-63 23q-36 0 -42 -48h-54z" />
    <glyph glyph-name="jcircumflex.sc" unicode="&#xf688;" horiz-adv-x="464" 
d="M39 158v23h104v-26q0 -78 72 -78t72 81v362h108v-351q0 -92 -48 -136.5t-132 -44.5q-82 0 -129 41.5t-47 128.5zM172 600l128 164h89l128 -164h-95l-78 106l-77 -106h-95z" />
    <glyph glyph-name="kcommaaccent.sc" unicode="&#xf689;" horiz-adv-x="580" 
d="M84 0v520h109v-254l236 254h126l-217 -228l231 -292h-127l-174 219l-75 -78v-141h-109zM257 -64h103v-83l-43 -106h-47l30 94h-43v95z" />
    <glyph glyph-name="lacute.sc" unicode="&#xf68a;" horiz-adv-x="478" 
d="M84 0v520h109v-426h263v-94h-372zM97 600l102 164h120l-146 -164h-76z" />
    <glyph glyph-name="lcaron.sc" unicode="&#xf68b;" horiz-adv-x="478" 
d="M84 0v520h109v-429h263v-91h-372zM313 332l30 94h-43v94h103v-83l-43 -105h-47z" />
    <glyph glyph-name="lcommaaccent.sc" unicode="&#xf68c;" horiz-adv-x="478" 
d="M84 0v520h109v-426h263v-94h-372zM219 -64h103v-83l-43 -106h-47l30 94h-43v95z" />
    <glyph glyph-name="ldot.sc" unicode="&#xf68d;" horiz-adv-x="478" 
d="M84 0v520h109v-429h263v-91h-372zM277 223v104h103v-104h-103z" />
    <glyph glyph-name="nacute.sc" unicode="&#xf68e;" horiz-adv-x="640" 
d="M84 0v520h96l267 -347h4l-4 347h109v-520h-95l-268 347h-4l4 -347h-109zM282 600l102 164h120l-146 -164h-76z" />
    <glyph glyph-name="ncaron.sc" unicode="&#xf68f;" horiz-adv-x="640" 
d="M84 0v520h96l267 -347h4l-4 347h109v-520h-95l-268 347h-4l4 -347h-109zM276 600l-128 164h95l77 -106l78 106h95l-128 -164h-89z" />
    <glyph glyph-name="ncommaaccent.sc" unicode="&#xf690;" horiz-adv-x="640" 
d="M84 0v520h96l267 -347h4l-4 347h109v-520h-95l-268 347h-4l4 -347h-109zM269 -64h103v-83l-43 -106h-47l30 94h-43v95z" />
    <glyph glyph-name="obreve.sc" unicode="&#xf691;" horiz-adv-x="641" 
d="M41 260q0 118 79 195t201 77t200.5 -77t78.5 -195t-78.5 -195t-200.5 -77t-201 77.5t-79 194.5zM153 260q0 -78 46.5 -128t121.5 -50t121 50t46 128t-46.5 128t-120.5 50q-75 0 -121.5 -49.5t-46.5 -128.5zM321 609q-57 0 -99.5 35t-49.5 111h63q13 -81 86 -81
q74 0 87 81h63q-7 -76 -49.5 -111t-100.5 -35z" />
    <glyph glyph-name="ohungarumlaut.sc" unicode="&#xf692;" horiz-adv-x="641" 
d="M41 260q0 118 79 195t201 77t200.5 -77t78.5 -195t-78.5 -195t-200.5 -77t-201 77.5t-79 194.5zM153 260q0 -78 46.5 -128t121.5 -50t121 50t46 128t-46.5 128t-120.5 50q-75 0 -121.5 -49.5t-46.5 -128.5zM377 600l102 164h119l-146 -164h-75zM187 600l102 164h120
l-146 -164h-76z" />
    <glyph glyph-name="omacron.sc" unicode="&#xf693;" horiz-adv-x="641" 
d="M41 260q0 118 79 195t201 77t200.5 -77t78.5 -195t-78.5 -195t-200.5 -77t-201 77.5t-79 194.5zM153 260q0 -78 46.5 -128t121.5 -50t121 50t46 128t-46.5 128t-120.5 50q-75 0 -121.5 -49.5t-46.5 -128.5zM176 643v78h287v-78h-287z" />
    <glyph glyph-name="oslashacute.sc" unicode="&#xf694;" horiz-adv-x="641" 
d="M57 -12l64 76q-80 78 -80 196t79 195t201 77q87 0 154 -42l35 42h77l-65 -78q78 -78 78 -194q0 -118 -78.5 -195t-200.5 -77q-84 0 -153 40l-33 -40h-78zM153 260q0 -68 35 -115l223 268q-39 25 -90 25q-75 0 -121.5 -49.5t-46.5 -128.5zM488 260q0 66 -34 112l-222 -267
q38 -23 89 -23q75 0 121 50t46 128zM283 600l102 164h120l-146 -164h-76z" />
    <glyph glyph-name="racute.sc" unicode="&#xf695;" horiz-adv-x="585" 
d="M84 0v520h249q92 0 141 -43.5t49 -120.5q0 -123 -114 -158l138 -198h-120l-127 188h-107v-188h-109zM326 433h-133v-159h133q44 0 66 21.5t22 59.5q0 36 -23 57t-65 21zM242 600l102 164h120l-146 -164h-76z" />
    <glyph glyph-name="rcaron.sc" unicode="&#xf696;" horiz-adv-x="585" 
d="M84 0v520h249q92 0 141 -43.5t49 -120.5q0 -123 -114 -158l138 -198h-120l-127 188h-107v-188h-109zM326 433h-133v-159h133q44 0 66 21.5t22 59.5q0 36 -23 57t-65 21zM236 600l-128 164h95l77 -106l78 106h95l-128 -164h-89z" />
    <glyph glyph-name="rcommaaccent.sc" unicode="&#xf697;" horiz-adv-x="585" 
d="M84 0v520h249q92 0 141 -43.5t49 -120.5q0 -123 -114 -158l138 -198h-120l-127 188h-107v-188h-109zM326 433h-133v-159h133q44 0 66 21.5t22 59.5q0 36 -23 57t-65 21zM245 -64h103v-83l-43 -106h-47l30 94h-43v95z" />
    <glyph glyph-name="sacute.sc" unicode="&#xf698;" horiz-adv-x="541" 
d="M42 149h107q0 -38 31.5 -59t85.5 -21q117 0 117 76q0 27 -24.5 42.5t-61.5 20t-79.5 13.5t-79.5 21t-61.5 44.5t-24.5 81.5q0 73 58.5 118.5t159.5 45.5q99 0 154 -42.5t55 -114.5h-104q0 35 -29 55.5t-76 20.5q-50 0 -79.5 -18t-29.5 -54q0 -33 34.5 -49t83.5 -22.5
t98.5 -17.5t84 -44t34.5 -90q0 -78 -60 -123t-170 -45q-106 0 -165 43t-59 118zM232 600l102 164h120l-146 -164h-76z" />
    <glyph glyph-name="scedilla.sc" unicode="&#xf699;" horiz-adv-x="541" 
d="M219 -86l26 75q-97 4 -150 46.5t-53 113.5h107q0 -38 31.5 -59t85.5 -21q117 0 117 76q0 27 -24.5 42.5t-61.5 20t-79.5 13.5t-79.5 21t-61.5 44.5t-24.5 81.5q0 73 58.5 118.5t159.5 45.5q99 0 154 -42.5t55 -114.5h-104q0 35 -29 55.5t-76 20.5q-50 0 -79.5 -18
t-29.5 -54q0 -33 34.5 -49t83.5 -22.5t98.5 -17.5t84 -44t34.5 -90q0 -75 -54.5 -119t-156.5 -48v-26q44 -2 68 -26.5t24 -60.5q0 -43 -30 -69.5t-87 -26.5h-61v59h53q49 0 49 38q0 37 -49 37h-33z" />
    <glyph glyph-name="scircumflex.sc" unicode="&#xf69a;" horiz-adv-x="541" 
d="M42 149h107q0 -38 31.5 -59t85.5 -21q117 0 117 76q0 27 -24.5 42.5t-61.5 20t-79.5 13.5t-79.5 21t-61.5 44.5t-24.5 81.5q0 73 58.5 118.5t159.5 45.5q99 0 154 -42.5t55 -114.5h-104q0 35 -29 55.5t-76 20.5q-50 0 -79.5 -18t-29.5 -54q0 -33 34.5 -49t83.5 -22.5
t98.5 -17.5t84 -44t34.5 -90q0 -78 -60 -123t-170 -45q-106 0 -165 43t-59 118zM98 600l128 164h89l128 -164h-95l-78 106l-77 -106h-95z" />
    <glyph glyph-name="scommaaccent.sc" unicode="&#xf69b;" horiz-adv-x="541" 
d="M42 149h107q0 -38 31.5 -59t85.5 -21q117 0 117 76q0 27 -24.5 42.5t-61.5 20t-79.5 13.5t-79.5 21t-61.5 44.5t-24.5 81.5q0 73 58.5 118.5t159.5 45.5q99 0 154 -42.5t55 -114.5h-104q0 35 -29 55.5t-76 20.5q-50 0 -79.5 -18t-29.5 -54q0 -33 34.5 -49t83.5 -22.5
t98.5 -17.5t84 -44t34.5 -90q0 -78 -60 -123t-170 -45q-106 0 -165 43t-59 118zM215 -64h103v-83l-43 -106h-47l30 94h-43v95z" />
    <glyph glyph-name="tbar.sc" unicode="&#xf69c;" horiz-adv-x="525" 
d="M22 429v91h481v-91h-186v-167h145v-67h-145v-195h-109v195h-139v67h139v167h-186z" />
    <glyph glyph-name="tcaron.sc" unicode="&#xf69d;" horiz-adv-x="525" 
d="M22 429v91h481v-91h-186v-429h-109v429h-186zM217 600l-128 164h95l77 -106l78 106h95l-128 -164h-89z" />
    <glyph glyph-name="tcommaaccent.sc" unicode="&#xf69e;" horiz-adv-x="525" 
d="M219 -86l30 86h-41v429h-186v91h481v-91h-186v-429h-32v-37q44 -2 68 -26.5t24 -60.5q0 -43 -30 -69.5t-87 -26.5h-61v59h53q49 0 49 38q0 37 -49 37h-33z" />
    <glyph glyph-name="ubreve.sc" unicode="&#xf69f;" horiz-adv-x="608" 
d="M68 210v310h109v-308q0 -129 125 -129q64 0 96.5 33.5t32.5 95.5v308h109v-310q0 -222 -238 -222q-234 0 -234 222zM304 609q-57 0 -99.5 35t-49.5 111h63q13 -81 86 -81q74 0 87 81h63q-7 -76 -49.5 -111t-100.5 -35z" />
    <glyph glyph-name="uhungarumlaut.sc" unicode="&#xf6a0;" horiz-adv-x="608" 
d="M68 210v310h109v-308q0 -129 125 -129q64 0 96.5 33.5t32.5 95.5v308h109v-310q0 -222 -238 -222q-234 0 -234 222zM360 600l102 164h119l-146 -164h-75zM170 600l102 164h120l-146 -164h-76z" />
    <glyph glyph-name="umacron.sc" unicode="&#xf6a1;" horiz-adv-x="608" 
d="M68 210v310h109v-308q0 -129 125 -129q64 0 96.5 33.5t32.5 95.5v308h109v-310q0 -222 -238 -222q-234 0 -234 222zM159 643v78h287v-78h-287z" />
    <glyph glyph-name="uogonek.sc" unicode="&#xf6a2;" horiz-adv-x="608" 
d="M251 -123q0 60 76 112q-8 -1 -25 -1q-234 0 -234 222v310h109v-308q0 -129 125 -129q64 0 96.5 33.5t32.5 95.5v308h109v-310q0 -140 -103 -196q-49 -27 -77.5 -58t-28.5 -61q0 -49 53 -49h29v-66h-40q-122 0 -122 97z" />
    <glyph glyph-name="uring.sc" unicode="&#xf6a3;" horiz-adv-x="608" 
d="M68 210v310h109v-308q0 -129 125 -129q64 0 96.5 33.5t32.5 95.5v308h109v-310q0 -222 -238 -222q-234 0 -234 222zM304 591q-43 0 -73 28t-30 71t30.5 71t72.5 28q43 0 73.5 -28t30.5 -71t-30.5 -71t-73.5 -28zM304 640q21 0 36 14.5t15 35.5t-15 35.5t-36 14.5
t-35.5 -14.5t-14.5 -35.5t15 -35.5t35 -14.5z" />
    <glyph glyph-name="utilde.sc" unicode="&#xf6a4;" horiz-adv-x="608" 
d="M68 210v310h109v-308q0 -129 125 -129q64 0 96.5 33.5t32.5 95.5v308h109v-310q0 -222 -238 -222q-234 0 -234 222zM135 623q2 53 27.5 85t72.5 32q32 0 79.5 -23t63.5 -23q34 0 42 48h54q-2 -53 -27.5 -85t-72.5 -32q-32 0 -80 23t-63 23q-36 0 -42 -48h-54z" />
    <glyph glyph-name="wacute.sc" unicode="&#xf6a5;" horiz-adv-x="791" 
d="M151 0l-137 520h114l97 -406h4l118 406h105l118 -406h4l92 406h111l-135 -520h-135l-108 380h-3l-109 -380h-136zM359 600l102 164h120l-146 -164h-76z" />
    <glyph glyph-name="wcircumflex.sc" unicode="&#xf6a6;" horiz-adv-x="791" 
d="M151 0l-137 520h114l97 -406h4l118 406h105l118 -406h4l92 406h111l-135 -520h-135l-108 380h-3l-109 -380h-136zM225 600l128 164h89l128 -164h-95l-78 106l-77 -106h-95z" />
    <glyph glyph-name="wdieresis.sc" unicode="&#xf6a7;" horiz-adv-x="791" 
d="M151 0l-137 520h114l97 -406h4l118 406h105l118 -406h4l92 406h111l-135 -520h-135l-108 380h-3l-109 -380h-136zM451 632v104h102v-104h-102zM241 632v104h103v-104h-103z" />
    <glyph glyph-name="wgrave.sc" unicode="&#xf6a8;" horiz-adv-x="791" 
d="M151 0l-137 520h114l97 -406h4l118 406h105l118 -406h4l92 406h111l-135 -520h-135l-108 380h-3l-109 -380h-136zM360 600l-146 164h120l102 -164h-76z" />
    <glyph glyph-name="ycircumflex.sc" unicode="&#xf6a9;" horiz-adv-x="530" 
d="M209 0v199l-205 321h125l137 -222h2l142 222h116l-209 -318v-202h-108zM93 600l128 164h89l128 -164h-95l-78 106l-77 -106h-95z" />
    <glyph glyph-name="ygrave.sc" unicode="&#xf6aa;" horiz-adv-x="530" 
d="M209 0v199l-205 321h125l137 -222h2l142 222h116l-209 -318v-202h-108zM228 600l-146 164h120l102 -164h-76z" />
    <glyph glyph-name="zacute.sc" unicode="&#xf6ab;" horiz-adv-x="518" 
d="M48 430v90h426v-64l-289 -366h286v-90h-433v64l289 366h-279zM221 600l102 164h120l-146 -164h-76z" />
    <glyph glyph-name="zdotaccent.sc" unicode="&#xf6ac;" horiz-adv-x="518" 
d="M48 430v90h426v-64l-289 -366h286v-90h-433v64l289 366h-279zM208 632v104h103v-104h-103z" />
    <glyph glyph-name="idotaccent.sc" unicode="&#xf6ad;" horiz-adv-x="277" 
d="M84 0v520h109v-520h-109zM86 632v104h103v-104h-103z" />
    <glyph glyph-name="parenleft.cap" unicode="&#xf6ae;" horiz-adv-x="335" 
d="M222 -59q-60 78 -100 182t-40 221t40 221t100 182h98q-136 -194 -136 -403t136 -403h-98z" />
    <glyph glyph-name="parenright.cap" unicode="&#xf6af;" horiz-adv-x="335" 
d="M15 -59q136 194 136 403t-136 403h98q60 -78 100 -182t40 -221t-40 -221t-100 -182h-98z" />
    <glyph glyph-name="bracketleft.cap" unicode="&#xf6b0;" horiz-adv-x="340" 
d="M82 -59v806h243v-86h-145v-634h145v-86h-243z" />
    <glyph glyph-name="bracketright.cap" unicode="&#xf6b1;" horiz-adv-x="340" 
d="M15 27h145v634h-145v86h244v-806h-244v86z" />
    <glyph glyph-name="braceleft.cap" unicode="&#xf6b2;" horiz-adv-x="370" 
d="M128 96v88q0 70 -22.5 97t-89.5 27v76q67 0 89.5 27t22.5 97v84q0 79 37.5 117t128.5 38h61v-83h-49q-45 0 -62 -18t-17 -62v-106q0 -53 -23 -84t-77 -46v-4q54 -15 77 -46t23 -84v-110q0 -44 17 -62t62 -18h49v-83h-61q-91 0 -128.5 38t-37.5 117z" />
    <glyph glyph-name="braceright.cap" unicode="&#xf6b3;" horiz-adv-x="370" 
d="M15 24h49q45 0 62 18t17 62v110q0 53 23 84t77 46v4q-54 15 -77 46t-23 84v106q0 44 -17 62t-62 18h-49v83h60q91 0 128.5 -38t37.5 -117v-84q0 -70 22.5 -97t89.5 -27v-76q-67 0 -89.5 -27t-22.5 -97v-88q0 -79 -37.5 -117t-128.5 -38h-60v83z" />
    <glyph glyph-name="exclamdown.cap" unicode="&#xf6b4;" horiz-adv-x="284" 
d="M82 568v120h119v-120h-119zM81 0v190l30 300h61l31 -300v-190h-122z" />
    <glyph glyph-name="questiondown.cap" unicode="&#xf6b5;" horiz-adv-x="510" 
d="M204 568v120h119v-120h-119zM34 172q0 46 18 80t44 55t52.5 40t44.5 45t18 60v34h105v-26q0 -51 -17.5 -88.5t-43 -59t-51 -39.5t-43 -42t-17.5 -54q0 -43 29.5 -71t78.5 -28q61 0 91.5 36.5t30.5 93.5h106q0 -93 -58 -156.5t-170 -63.5q-98 0 -158 49.5t-60 134.5z" />
    <glyph glyph-name="guillemotleft.cap" unicode="&#xf6b6;" horiz-adv-x="537" 
d="M398 144l-143 204l143 204h89l-114 -204l114 -204h-89zM193 144l-143 204l143 204h89l-114 -204l114 -204h-89z" />
    <glyph glyph-name="guillemotright.cap" unicode="&#xf6b7;" horiz-adv-x="537" 
d="M255 144l114 204l-114 204h89l143 -204l-143 -204h-89zM50 144l114 204l-114 204h89l143 -204l-143 -204h-89z" />
    <glyph glyph-name="guilsinglleft.cap" unicode="&#xf6b8;" horiz-adv-x="333" 
d="M194 144l-144 204l144 204h89l-114 -204l114 -204h-89z" />
    <glyph glyph-name="guilsinglright.cap" unicode="&#xf6b9;" horiz-adv-x="333" 
d="M50 144l114 204l-114 204h89l144 -204l-144 -204h-89z" />
    <glyph glyph-name="hyphen.cap" unicode="&#xf6ba;" horiz-adv-x="396" 
d="M56 301v94h284v-94h-284z" />
    <glyph glyph-name="endash.cap" unicode="&#xf6bb;" horiz-adv-x="556" 
d="M56 301v94h444v-94h-444z" />
    <glyph glyph-name="emdash.cap" unicode="&#xf6bc;" horiz-adv-x="840" 
d="M56 301v94h728v-94h-728z" />
    <glyph glyph-name="periodcentered.cap" unicode="&#xf6bd;" horiz-adv-x="273" 
d="M73 286v124h125v-124h-125z" />
    <glyph glyph-name="dotlessj" unicode="&#xf6be;" horiz-adv-x="255" 
d="M73 -59v547h108v-559q0 -72 -35 -110.5t-118 -38.5h-37v88h25q31 0 44 17.5t13 55.5z" />
    <glyph glyph-name="space_uni0326" unicode="&#xf6c3;" horiz-adv-x="573" 
d="M235 -64h103v-83l-43 -106h-47l30 94h-43v95z" />
    <glyph glyph-name="cent.inferior" unicode="&#xf6df;" 
d="M34 19q0 52 30.5 86t86.5 42v53h70v-53q47 -8 74 -35t30 -61h-87q-9 37 -52 37q-29 0 -45.5 -18.5t-16.5 -50.5t16.5 -50.5t45.5 -18.5q43 0 52 37h87q-3 -35 -30 -62t-74 -35v-50h-70v50q-56 9 -86.5 43t-30.5 86z" />
    <glyph glyph-name="cent.superior" unicode="&#xf6e0;" 
d="M34 667q0 52 30.5 86t86.5 42v53h70v-53q47 -8 74 -35t30 -61h-87q-9 37 -52 37q-29 0 -45.5 -18.5t-16.5 -50.5t16.5 -50.5t45.5 -18.5q43 0 52 37h87q-3 -35 -30 -62t-74 -35v-50h-70v50q-56 9 -86.5 43t-30.5 86z" />
    <glyph glyph-name="comma.inferior" unicode="&#xf6e1;" horiz-adv-x="193" 
d="M50 -152v98h93v-94l-29 -120h-47l23 116h-40z" />
    <glyph glyph-name="comma.superior" unicode="&#xf6e2;" horiz-adv-x="193" 
d="M50 496v98h93v-94l-29 -120h-47l23 116h-40z" />
    <glyph glyph-name="dollar.inferior" unicode="&#xf6e3;" 
d="M28 -52h82q2 -22 21 -35.5t49 -13.5q27 0 44.5 10.5t17.5 30.5q0 19 -21.5 29t-52 15t-60.5 13.5t-51.5 31.5t-21.5 61q0 42 29 71t81 36v55h69v-55q47 -7 75 -33t31 -63h-85q-6 39 -55 39q-59 0 -59 -38q0 -19 21.5 -30t52 -16.5t60.5 -14t51.5 -31.5t21.5 -60
q0 -46 -29.5 -74t-84.5 -34v-62h-69v62q-56 7 -86 34.5t-31 71.5z" />
    <glyph glyph-name="dollar.superior" unicode="&#xf6e4;" 
d="M28 596h82q2 -22 21 -35.5t49 -13.5q27 0 44.5 10.5t17.5 30.5q0 19 -21.5 29t-52 15t-60.5 13.5t-51.5 31.5t-21.5 61q0 42 29 71t81 36v55h69v-55q47 -7 75 -33t31 -63h-85q-6 39 -55 39q-59 0 -59 -38q0 -19 21.5 -30t52 -16.5t60.5 -14t51.5 -31.5t21.5 -60
q0 -46 -29.5 -74t-84.5 -34v-62h-69v62q-56 7 -86 34.5t-31 71.5z" />
    <glyph glyph-name="hyphen.inferior" unicode="&#xf6e5;" horiz-adv-x="282" 
d="M35 -15v74h211v-74h-211z" />
    <glyph glyph-name="hyphen.superior" unicode="&#xf6e6;" horiz-adv-x="282" 
d="M35 633v74h211v-74h-211z" />
    <glyph glyph-name="period.inferior" unicode="&#xf6e7;" horiz-adv-x="193" 
d="M50 -152v98h93v-98h-93z" />
    <glyph glyph-name="period.superior" unicode="&#xf6e8;" horiz-adv-x="193" 
d="M50 496v98h93v-98h-93z" />
    <glyph glyph-name="a.superior" unicode="&#xf6e9;" horiz-adv-x="396" 
d="M35 586q0 89 115 105l65 8q27 4 35.5 9.5t8.5 20.5q0 23 -15 38.5t-44 15.5q-61 0 -65 -55h-85q4 61 45.5 90.5t104.5 29.5q150 0 150 -127v-225h-88v41h-3q-30 -49 -109 -49q-54 0 -84.5 27t-30.5 71zM259 629v33q-8 -12 -33 -15l-50 -6q-50 -7 -50 -46q0 -21 14 -33
t39 -12q34 0 56.5 20t23.5 59z" />
    <glyph glyph-name="b.superior" unicode="&#xf6ea;" horiz-adv-x="435" 
d="M49 496v516h91v-110q0 -64 -4 -115h4q29 62 115 62q64 0 106.5 -47t42.5 -131q0 -85 -45.5 -134t-110.5 -49q-80 0 -108 61h-4v-53h-87zM140 668q0 -50 23.5 -79.5t62.5 -29.5q38 0 61 31t23 81q0 49 -23 77.5t-61 28.5t-61.5 -28t-24.5 -76v-5z" />
    <glyph glyph-name="d.superior" unicode="&#xf6eb;" horiz-adv-x="434" 
d="M31 665q0 85 46 134.5t110 49.5q79 0 109 -62h3q-4 51 -4 115v110h91v-516h-87v53h-3q-29 -61 -115 -61q-64 0 -107 46.5t-43 130.5zM125 665q0 -49 23 -77.5t62 -28.5q38 0 61.5 29.5t23.5 79.5v5q-1 47 -25 75.5t-60 28.5q-38 0 -61.5 -30.5t-23.5 -81.5z" />
    <glyph glyph-name="e.superior" unicode="&#xf6ec;" horiz-adv-x="408" 
d="M31 668q0 81 49.5 130.5t127.5 49.5q77 0 123 -46t46 -127v-24h-253q7 -93 88 -93q59 0 72 42h86q-9 -49 -51.5 -80t-109.5 -31q-82 0 -130 47.5t-48 131.5zM208 779q-67 0 -81 -71h155q-11 71 -74 71z" />
    <glyph glyph-name="i.superior" unicode="&#xf6ed;" horiz-adv-x="183" 
d="M43 923v89h97v-89h-97zM46 496v344h91v-344h-91z" />
    <glyph glyph-name="l.superior" unicode="&#xf6ee;" horiz-adv-x="190" 
d="M49 496v516h91v-516h-91z" />
    <glyph glyph-name="m.superior" unicode="&#xf6ef;" horiz-adv-x="635" 
d="M49 496v344h87v-51h4q29 60 104 60q81 0 109 -68q32 68 116 68q53 0 87 -31.5t34 -100.5v-221h-91v201q0 78 -61 78q-33 0 -53 -25t-20 -72v-182h-91v200q0 79 -61 79q-31 0 -52 -24.5t-21 -72.5v-182h-91z" />
    <glyph glyph-name="o.superior" unicode="&#xf6f0;" horiz-adv-x="424" 
d="M31 668q0 82 49.5 131.5t131.5 49.5q84 0 132.5 -49t48.5 -132q0 -82 -49.5 -131t-131.5 -49q-84 0 -132.5 48.5t-48.5 131.5zM125 668q0 -49 23.5 -79t63.5 -30t63.5 30t23.5 79q0 50 -23.5 79.5t-63.5 29.5t-63.5 -29.5t-23.5 -79.5z" />
    <glyph glyph-name="r.superior" unicode="&#xf6f1;" horiz-adv-x="283" 
d="M49 496v344h88v-65h3q29 74 90 74q27 0 48 -15l-18 -83q-21 12 -43 12q-37 0 -56.5 -33t-19.5 -83v-151h-92z" />
    <glyph glyph-name="s.superior" unicode="&#xf6f2;" horiz-adv-x="379" 
d="M30 601h85q6 -52 75 -52q67 0 67 40q0 18 -13 26t-41 13l-60 12q-106 18 -106 100q0 51 42.5 80t110.5 29q66 0 106.5 -27.5t44.5 -79.5h-85q-6 45 -64 45q-65 0 -65 -37q0 -17 12 -24.5t41 -13.5l61 -12q52 -10 79.5 -31t27.5 -69q0 -54 -44 -83t-115 -29
q-150 0 -159 113z" />
    <glyph glyph-name="t.superior" unicode="&#xf6f3;" horiz-adv-x="261" 
d="M70 614v153h-62v73h62v104h92v-104h82v-73h-82v-143q0 -28 9.5 -39.5t34.5 -11.5h38v-77h-49q-70 0 -97.5 26.5t-27.5 91.5z" />
    <glyph glyph-name="lslash.sc" unicode="&#xf6f9;" horiz-adv-x="478" 
d="M32 111l-41 56l93 64v289h109v-214l105 73l41 -55l-146 -102v-131h263v-91h-372v147z" />
    <glyph glyph-name="oe.sc" unicode="&#xf6fa;" horiz-adv-x="882" 
d="M817 433h-289v-127h234v-84h-234v-135h298v-87h-508q-131 0 -204 71.5t-73 188.5q0 115 73.5 187.5t203.5 72.5h499v-87zM153 260q0 -75 42 -123t131 -48h93v342h-93q-89 0 -131 -48.5t-42 -122.5z" />
    <glyph glyph-name="scaron.sc" unicode="&#xf6fd;" horiz-adv-x="541" 
d="M42 149h107q0 -38 31.5 -59t85.5 -21q117 0 117 76q0 27 -24.5 42.5t-61.5 20t-79.5 13.5t-79.5 21t-61.5 44.5t-24.5 81.5q0 73 58.5 118.5t159.5 45.5q99 0 154 -42.5t55 -114.5h-104q0 35 -29 55.5t-76 20.5q-50 0 -79.5 -18t-29.5 -54q0 -33 34.5 -49t83.5 -22.5
t98.5 -17.5t84 -44t34.5 -90q0 -78 -60 -123t-170 -45q-106 0 -165 43t-59 118zM226 600l-128 164h95l77 -106l78 106h95l-128 -164h-89z" />
    <glyph glyph-name="zcaron.sc" unicode="&#xf6ff;" horiz-adv-x="518" 
d="M48 430v90h426v-64l-289 -366h286v-90h-433v64l289 366h-279zM215 600l-128 164h95l77 -106l78 106h95l-128 -164h-89z" />
    <glyph glyph-name="exclam.sc" unicode="&#xf721;" horiz-adv-x="280" 
d="M110 158l-29 220v142h118v-142l-29 -220h-60zM82 0v111h116v-111h-116z" />
    <glyph glyph-name="ampersand.sc" unicode="&#xf726;" horiz-adv-x="596" 
d="M43 138q0 52 32.5 86t88.5 60q-54 60 -54 113q0 55 41 93.5t120 38.5q78 0 117 -33t39 -91q0 -49 -32.5 -79t-91.5 -57l122 -115q21 42 21 92v14h90v-15q0 -83 -46 -151l102 -94h-120l-39 36q-70 -48 -170 -48q-106 0 -163 40t-57 110zM265 67q61 0 104 27l-151 137
q-71 -36 -71 -85q0 -36 32.5 -57.5t85.5 -21.5zM202 400q0 -32 47 -79q41 18 63 36t22 43q0 58 -67 58q-29 0 -47 -16.5t-18 -41.5z" />
    <glyph glyph-name="zero.oldstyle" unicode="&#xf730;" horiz-adv-x="597" 
d="M38 244q0 112 72.5 184t187.5 72q119 0 190 -71.5t71 -184.5q0 -112 -72.5 -184t-188.5 -72q-118 0 -189 71.5t-71 184.5zM149 244q0 -76 42.5 -122t106.5 -46q65 0 107.5 46t42.5 122q0 78 -42 123t-108 45q-64 0 -106.5 -46t-42.5 -122z" />
    <glyph glyph-name="one.oldstyle" unicode="&#xf731;" horiz-adv-x="365" 
d="M58 275l-46 80l195 133h76v-488h-108v354z" />
    <glyph glyph-name="two.oldstyle" unicode="&#xf732;" horiz-adv-x="508" 
d="M37 0q0 102 43.5 155t125.5 84l55 22q28 10 40 15.5t28.5 15.5t22.5 23t6 31q0 29 -23 50.5t-76 21.5q-106 0 -115 -105h-101q3 97 66 142t151 45q94 0 149.5 -42t55.5 -112q0 -29 -9.5 -52.5t-20.5 -37.5t-35.5 -28.5t-39.5 -20.5l-46 -18l-56 -21q-93 -35 -94 -82h300
v-86h-427z" />
    <glyph glyph-name="three.oldstyle" unicode="&#xf733;" horiz-adv-x="541" 
d="M20 8h105q0 -64 37 -98.5t99 -34.5q61 0 98.5 32t37.5 86q0 53 -38.5 85.5t-97.5 32.5h-51v89h51q49 0 82 31t33 79t-32.5 75.5t-82.5 27.5q-51 0 -83 -29.5t-32 -85.5h-99q0 93 59 147.5t155 54.5q98 0 158 -51.5t60 -134.5q0 -50 -30 -94.5t-72 -59.5v-4
q56 -14 92.5 -60t36.5 -107q0 -93 -69 -147t-176 -54q-111 0 -176 56t-65 164z" />
    <glyph glyph-name="four.oldstyle" unicode="&#xf734;" horiz-adv-x="552" 
d="M21 -12v73l335 431h88v-414h97v-90h-97v-188h-109v188h-314zM135 78h200v251z" />
    <glyph glyph-name="five.oldstyle" unicode="&#xf735;" horiz-adv-x="521" 
d="M31 -16h107q7 -45 39.5 -76.5t89.5 -31.5q54 0 91.5 36.5t37.5 99.5q0 65 -36.5 102.5t-89.5 37.5q-68 0 -118 -64l-97 6l22 394h388v-93h-292l-11 -199h4q46 44 123 44q90 0 153 -58t63 -162q0 -110 -69 -171t-167 -61q-106 0 -168 52.5t-70 143.5z" />
    <glyph glyph-name="six.oldstyle" unicode="&#xf736;" horiz-adv-x="571" 
d="M42 325q0 194 71.5 284.5t186.5 90.5q99 0 153.5 -50t63.5 -136h-106q-12 98 -111 98q-138 0 -146 -253q20 37 63.5 59t97.5 22q95 0 156.5 -59.5t61.5 -163.5q0 -106 -69 -167.5t-167 -61.5q-255 0 -255 337zM297 352q-59 0 -95 -38t-36 -99t35.5 -100t92.5 -39
q58 0 94.5 37.5t36.5 102.5q0 60 -36.5 98t-91.5 38z" />
    <glyph glyph-name="seven.oldstyle" unicode="&#xf737;" horiz-adv-x="475" 
d="M62 -200l280 592h-326v96h443v-71l-285 -617h-112z" />
    <glyph glyph-name="eight.oldstyle" unicode="&#xf738;" horiz-adv-x="563" 
d="M33 185q0 63 37 110t92 61v4q-44 14 -73 57.5t-29 95.5q0 83 61 135t161 52q99 0 160 -51.5t61 -135.5q0 -52 -29 -95.5t-73 -57.5v-4q55 -14 92 -61t37 -110q0 -92 -67.5 -144.5t-180.5 -52.5t-181 52.5t-68 144.5zM142 193q0 -55 38.5 -86.5t101.5 -31.5
q62 0 100.5 31.5t38.5 86.5q0 53 -39.5 85.5t-99.5 32.5q-61 0 -100.5 -32.5t-39.5 -85.5zM282 400q50 0 83.5 31t33.5 79t-33 77t-84 29t-84.5 -29t-33.5 -77t33.5 -79t84.5 -31z" />
    <glyph glyph-name="nine.oldstyle" unicode="&#xf739;" horiz-adv-x="565" 
d="M520 166q0 -378 -258 -378q-98 0 -155 51t-62 135h106q5 -44 33 -71t78 -27q67 0 104 58t41 195q-20 -37 -62.5 -59t-96.5 -22q-95 0 -157 59.5t-62 163.5q0 106 69 167.5t167 61.5q255 0 255 -334zM265 136q60 0 95.5 39t35.5 103q0 58 -36 96t-92 38q-58 0 -94.5 -37.5
t-36.5 -102.5q0 -60 37 -98t91 -38z" />
    <glyph glyph-name="question.sc" unicode="&#xf73f;" horiz-adv-x="473" 
d="M181 158v18q0 38 16 66.5t38.5 44.5t44.5 29.5t38 30.5t16 38q0 28 -27.5 47t-70.5 19q-49 0 -75.5 -25t-26.5 -65h-100q0 73 52 122t151 49q91 0 146.5 -38.5t55.5 -106.5q0 -42 -25 -73t-54.5 -46t-54.5 -38t-25 -51v-21h-99zM174 0v111h112v-111h-112z" />
    <glyph glyph-name="a.sc" unicode="&#xf761;" horiz-adv-x="547" 
d="M7 0l204 520h128l201 -520h-114l-42 115h-226l-42 -115h-109zM275 417h-4l-82 -219h165z" />
    <glyph glyph-name="b.sc" unicode="&#xf762;" horiz-adv-x="595" 
d="M84 0v520h262q87 0 131.5 -35.5t44.5 -100.5q0 -37 -21.5 -66t-65.5 -40v-3q51 -8 81 -42t30 -81q0 -68 -48.5 -110t-134.5 -42h-279zM351 226h-158v-141h158q40 0 61.5 19.5t21.5 53.5q0 31 -22 49.5t-61 18.5zM335 435h-142v-126h142q37 0 56.5 18.5t19.5 49.5
q0 58 -76 58z" />
    <glyph glyph-name="c.sc" unicode="&#xf763;" horiz-adv-x="591" 
d="M41 260q0 120 74.5 196t197.5 76q98 0 163 -50.5t81 -134.5h-107q-26 91 -135 91q-74 0 -118 -49t-44 -129q0 -78 44 -128t118 -50q105 0 135 91h107q-16 -84 -81 -134.5t-164 -50.5q-123 0 -197 78t-74 194z" />
    <glyph glyph-name="d.sc" unicode="&#xf764;" horiz-adv-x="612" 
d="M84 0v520h210q131 0 204 -71.5t73 -188.5q0 -115 -73.5 -187.5t-203.5 -72.5h-210zM286 431h-93v-342h93q88 0 130 48.5t42 122.5q0 75 -41.5 123t-130.5 48z" />
    <glyph glyph-name="e.sc" unicode="&#xf765;" horiz-adv-x="544" 
d="M84 0v520h398v-87h-289v-127h234v-84h-234v-135h298v-87h-407z" />
    <glyph glyph-name="f.sc" unicode="&#xf766;" horiz-adv-x="515" 
d="M84 0v520h391v-87h-282v-155h225v-85h-225v-193h-109z" />
    <glyph glyph-name="g.sc" unicode="&#xf767;" horiz-adv-x="646" 
d="M329 199v82h243v-281h-69l-11 61h-2q-57 -73 -171 -73q-122 0 -198 78t-76 194q0 119 78 195.5t205 76.5q99 0 164.5 -49t79.5 -123h-110q-11 33 -45.5 56t-88.5 23q-78 0 -124.5 -49.5t-46.5 -129.5q0 -79 46 -129.5t123 -50.5q64 0 107 31.5t43 86.5v1h-147z" />
    <glyph glyph-name="h.sc" unicode="&#xf768;" horiz-adv-x="640" 
d="M84 0v520h109v-213h254v213h109v-520h-109v217h-254v-217h-109z" />
    <glyph glyph-name="i.sc" unicode="&#xf769;" horiz-adv-x="277" 
d="M84 0v520h109v-520h-109z" />
    <glyph glyph-name="j.sc" unicode="&#xf76a;" horiz-adv-x="464" 
d="M39 158v23h104v-26q0 -78 72 -78t72 81v362h108v-351q0 -92 -48 -136.5t-132 -44.5q-82 0 -129 41.5t-47 128.5z" />
    <glyph glyph-name="k.sc" unicode="&#xf76b;" horiz-adv-x="580" 
d="M84 0v520h109v-254l236 254h126l-217 -228l231 -292h-127l-174 219l-75 -78v-141h-109z" />
    <glyph glyph-name="l.sc" unicode="&#xf76c;" horiz-adv-x="478" 
d="M84 0v520h109v-426h263v-94h-372z" />
    <glyph glyph-name="m.sc" unicode="&#xf76d;" horiz-adv-x="784" 
d="M84 0v520h143l165 -378h2l168 378h137v-520h-107l8 371h-3l-167 -371h-78l-165 371h-4l9 -371h-108z" />
    <glyph glyph-name="n.sc" unicode="&#xf76e;" horiz-adv-x="640" 
d="M84 0v520h96l267 -347h4l-4 347h109v-520h-95l-268 347h-4l4 -347h-109z" />
    <glyph glyph-name="o.sc" unicode="&#xf76f;" horiz-adv-x="641" 
d="M41 260q0 118 79 195t201 77t200.5 -77t78.5 -195t-78.5 -195t-200.5 -77t-201 77.5t-79 194.5zM153 260q0 -78 46.5 -128t121.5 -50t121 50t46 128t-46.5 128t-120.5 50q-75 0 -121.5 -49.5t-46.5 -128.5z" />
    <glyph glyph-name="p.sc" unicode="&#xf770;" horiz-adv-x="565" 
d="M84 0v520h246q92 0 142.5 -48t50.5 -127t-50.5 -127.5t-142.5 -48.5h-137v-169h-109zM322 433h-129v-177h129q45 0 68.5 24t23.5 64t-24 64.5t-68 24.5z" />
    <glyph glyph-name="q.sc" unicode="&#xf771;" horiz-adv-x="641" 
d="M41 260q0 118 79 195t201 77t200.5 -77t78.5 -195t-80 -196l102 -103l-70 -65l-112 115q-58 -23 -119 -23q-122 0 -201 77.5t-79 194.5zM153 260q0 -78 46.5 -128t121.5 -50t121 50t46 128t-46.5 128t-120.5 50q-75 0 -121.5 -49.5t-46.5 -128.5z" />
    <glyph glyph-name="r.sc" unicode="&#xf772;" horiz-adv-x="585" 
d="M84 0v520h249q92 0 141 -43.5t49 -120.5q0 -123 -114 -158l138 -198h-120l-127 188h-107v-188h-109zM326 433h-133v-159h133q44 0 66 21.5t22 59.5q0 36 -23 57t-65 21z" />
    <glyph glyph-name="s.sc" unicode="&#xf773;" horiz-adv-x="541" 
d="M42 149h107q0 -38 31.5 -59t85.5 -21q117 0 117 76q0 27 -24.5 42.5t-61.5 20t-79.5 13.5t-79.5 21t-61.5 44.5t-24.5 81.5q0 73 58.5 118.5t159.5 45.5q99 0 154 -42.5t55 -114.5h-104q0 35 -29 55.5t-76 20.5q-50 0 -79.5 -18t-29.5 -54q0 -33 34.5 -49t83.5 -22.5
t98.5 -17.5t84 -44t34.5 -90q0 -78 -60 -123t-170 -45q-106 0 -165 43t-59 118z" />
    <glyph glyph-name="t.sc" unicode="&#xf774;" horiz-adv-x="525" 
d="M22 429v91h481v-91h-186v-429h-109v429h-186z" />
    <glyph glyph-name="u.sc" unicode="&#xf775;" horiz-adv-x="608" 
d="M68 210v310h109v-308q0 -129 125 -129q64 0 96.5 33.5t32.5 95.5v308h109v-310q0 -222 -238 -222q-234 0 -234 222z" />
    <glyph glyph-name="v.sc" unicode="&#xf776;" horiz-adv-x="539" 
d="M200 0l-193 520h115l148 -417h4l150 417h108l-195 -520h-137z" />
    <glyph glyph-name="w.sc" unicode="&#xf777;" horiz-adv-x="791" 
d="M151 0l-137 520h114l97 -406h4l118 406h105l118 -406h4l92 406h111l-135 -520h-135l-108 380h-3l-109 -380h-136z" />
    <glyph glyph-name="x.sc" unicode="&#xf778;" horiz-adv-x="525" 
d="M7 0l193 266l-185 254h128l123 -176l120 176h123l-185 -252l193 -268h-120l-138 193l-135 -193h-117z" />
    <glyph glyph-name="y.sc" unicode="&#xf779;" horiz-adv-x="530" 
d="M209 0v199l-205 321h125l137 -222h2l142 222h116l-209 -318v-202h-108z" />
    <glyph glyph-name="z.sc" unicode="&#xf77a;" horiz-adv-x="518" 
d="M48 430v90h426v-64l-289 -366h286v-90h-433v64l289 366h-279z" />
    <glyph glyph-name="exclamdown.sc" unicode="&#xf7a1;" horiz-adv-x="280" 
d="M82 409v111h116v-111h-116zM81 0v142l29 220h60l29 -220v-142h-118z" />
    <glyph glyph-name="questiondown.sc" unicode="&#xf7bf;" horiz-adv-x="473" 
d="M292 362v-18q0 -38 -16 -66.5t-38.5 -44.5t-44.5 -29.5t-38 -30.5t-16 -38q0 -28 27 -47t71 -19q49 0 75 25t26 65h101q0 -73 -52 -122t-151 -49q-91 0 -146.5 38.5t-55.5 106.5q0 42 24.5 73t54.5 46t54.5 38t24.5 51v21h100zM298 520v-111h-112v111h112z" />
    <glyph glyph-name="agrave.sc" unicode="&#xf7e0;" horiz-adv-x="547" 
d="M7 0l204 520h128l201 -520h-114l-42 115h-226l-42 -115h-109zM275 417h-4l-82 -219h165zM237 600l-146 164h120l102 -164h-76z" />
    <glyph glyph-name="aacute.sc" unicode="&#xf7e1;" horiz-adv-x="547" 
d="M7 0l204 520h128l201 -520h-114l-42 115h-226l-42 -115h-109zM275 417h-4l-82 -219h165zM236 600l102 164h120l-146 -164h-76z" />
    <glyph glyph-name="acircumflex.sc" unicode="&#xf7e2;" horiz-adv-x="547" 
d="M7 0l204 520h128l201 -520h-114l-42 115h-226l-42 -115h-109zM275 417h-4l-82 -219h165zM102 600l128 164h89l128 -164h-95l-78 106l-77 -106h-95z" />
    <glyph glyph-name="atilde.sc" unicode="&#xf7e3;" horiz-adv-x="547" 
d="M7 0l204 520h128l201 -520h-114l-42 115h-226l-42 -115h-109zM275 417h-4l-82 -219h165zM105 623q2 53 27.5 85t72.5 32q32 0 79.5 -23t63.5 -23q34 0 42 48h54q-2 -53 -27.5 -85t-72.5 -32q-32 0 -80 23t-63 23q-36 0 -42 -48h-54z" />
    <glyph glyph-name="adieresis.sc" unicode="&#xf7e4;" horiz-adv-x="547" 
d="M7 0l204 520h128l201 -520h-114l-42 115h-226l-42 -115h-109zM275 417h-4l-82 -219h165zM328 632v104h102v-104h-102zM118 632v104h103v-104h-103z" />
    <glyph glyph-name="aring.sc" unicode="&#xf7e5;" horiz-adv-x="547" 
d="M7 0l204 520h128l201 -520h-114l-42 115h-226l-42 -115h-109zM275 417h-4l-82 -219h165zM274 591q-43 0 -73 28t-30 71t30.5 71t72.5 28q43 0 73.5 -28t30.5 -71t-30.5 -71t-73.5 -28zM274 640q21 0 36 14.5t15 35.5t-15 35.5t-36 14.5t-35.5 -14.5t-14.5 -35.5t15 -35.5
t35 -14.5z" />
    <glyph glyph-name="ae.sc" unicode="&#xf7e6;" horiz-adv-x="895" 
d="M-2 0l397 520h434v-87h-289v-127h234v-84h-234v-135h298v-87h-406v115h-228l-85 -115h-121zM428 417l-162 -218h166v218h-4z" />
    <glyph glyph-name="ccedilla.sc" unicode="&#xf7e7;" horiz-adv-x="591" 
d="M265 -86l26 75q-114 7 -182 83.5t-68 187.5q0 120 74.5 196t197.5 76q98 0 163 -50.5t81 -134.5h-107q-26 91 -135 91q-74 0 -118 -49t-44 -129q0 -78 44 -128t118 -50q105 0 135 91h107q-15 -80 -75 -130t-151 -54v-26q44 -2 68 -26.5t24 -60.5q0 -43 -30 -69.5
t-87 -26.5h-61v59h53q49 0 49 38q0 37 -49 37h-33z" />
    <glyph glyph-name="egrave.sc" unicode="&#xf7e8;" horiz-adv-x="544" 
d="M84 0v520h398v-87h-289v-127h234v-84h-234v-135h298v-87h-407zM245 600l-146 164h120l102 -164h-76z" />
    <glyph glyph-name="eacute.sc" unicode="&#xf7e9;" horiz-adv-x="544" 
d="M84 0v520h398v-87h-289v-127h234v-84h-234v-135h298v-87h-407zM244 600l102 164h120l-146 -164h-76z" />
    <glyph glyph-name="ecircumflex.sc" unicode="&#xf7ea;" horiz-adv-x="544" 
d="M84 0v520h398v-87h-289v-127h234v-84h-234v-135h298v-87h-407zM110 600l128 164h89l128 -164h-95l-78 106l-77 -106h-95z" />
    <glyph glyph-name="edieresis.sc" unicode="&#xf7eb;" horiz-adv-x="544" 
d="M84 0v520h398v-87h-289v-127h234v-84h-234v-135h298v-87h-407zM336 632v104h102v-104h-102zM126 632v104h103v-104h-103z" />
    <glyph glyph-name="igrave.sc" unicode="&#xf7ec;" horiz-adv-x="277" 
d="M84 0v520h109v-520h-109zM100 600l-146 164h120l102 -164h-76z" />
    <glyph glyph-name="iacute.sc" unicode="&#xf7ed;" horiz-adv-x="277" 
d="M84 0v520h109v-520h-109zM99 600l102 164h120l-146 -164h-76z" />
    <glyph glyph-name="icircumflex.sc" unicode="&#xf7ee;" horiz-adv-x="277" 
d="M84 0v520h109v-520h-109zM-35 600l128 164h89l128 -164h-95l-78 106l-77 -106h-95z" />
    <glyph glyph-name="idieresis.sc" unicode="&#xf7ef;" horiz-adv-x="277" 
d="M84 0v520h109v-520h-109zM191 632v104h102v-104h-102zM-19 632v104h103v-104h-103z" />
    <glyph glyph-name="eth.sc" unicode="&#xf7f0;" horiz-adv-x="612" 
d="M4 226v68h80v226h210q131 0 204 -71.5t73 -188.5q0 -115 -73.5 -187.5t-203.5 -72.5h-210v226h-80zM286 431h-93v-137h106v-68h-106v-137h93q88 0 130 48.5t42 122.5q0 75 -41.5 123t-130.5 48z" />
    <glyph glyph-name="ntilde.sc" unicode="&#xf7f1;" horiz-adv-x="640" 
d="M84 0v520h96l267 -347h4l-4 347h109v-520h-95l-268 347h-4l4 -347h-109zM151 623q2 53 27.5 85t72.5 32q32 0 79.5 -23t63.5 -23q34 0 42 48h54q-2 -53 -27.5 -85t-72.5 -32q-32 0 -80 23t-63 23q-36 0 -42 -48h-54z" />
    <glyph glyph-name="ograve.sc" unicode="&#xf7f2;" horiz-adv-x="641" 
d="M41 260q0 118 79 195t201 77t200.5 -77t78.5 -195t-78.5 -195t-200.5 -77t-201 77.5t-79 194.5zM153 260q0 -78 46.5 -128t121.5 -50t121 50t46 128t-46.5 128t-120.5 50q-75 0 -121.5 -49.5t-46.5 -128.5zM284 600l-146 164h120l102 -164h-76z" />
    <glyph glyph-name="oacute.sc" unicode="&#xf7f3;" horiz-adv-x="641" 
d="M41 260q0 118 79 195t201 77t200.5 -77t78.5 -195t-78.5 -195t-200.5 -77t-201 77.5t-79 194.5zM153 260q0 -78 46.5 -128t121.5 -50t121 50t46 128t-46.5 128t-120.5 50q-75 0 -121.5 -49.5t-46.5 -128.5zM283 600l102 164h120l-146 -164h-76z" />
    <glyph glyph-name="ocircumflex.sc" unicode="&#xf7f4;" horiz-adv-x="641" 
d="M41 260q0 118 79 195t201 77t200.5 -77t78.5 -195t-78.5 -195t-200.5 -77t-201 77.5t-79 194.5zM153 260q0 -78 46.5 -128t121.5 -50t121 50t46 128t-46.5 128t-120.5 50q-75 0 -121.5 -49.5t-46.5 -128.5zM149 600l128 164h89l128 -164h-95l-78 106l-77 -106h-95z" />
    <glyph glyph-name="otilde.sc" unicode="&#xf7f5;" horiz-adv-x="641" 
d="M41 260q0 118 79 195t201 77t200.5 -77t78.5 -195t-78.5 -195t-200.5 -77t-201 77.5t-79 194.5zM153 260q0 -78 46.5 -128t121.5 -50t121 50t46 128t-46.5 128t-120.5 50q-75 0 -121.5 -49.5t-46.5 -128.5zM152 623q2 53 27.5 85t72.5 32q32 0 79.5 -23t63.5 -23
q34 0 42 48h54q-2 -53 -27.5 -85t-72.5 -32q-32 0 -80 23t-63 23q-36 0 -42 -48h-54z" />
    <glyph glyph-name="odieresis.sc" unicode="&#xf7f6;" horiz-adv-x="641" 
d="M41 260q0 118 79 195t201 77t200.5 -77t78.5 -195t-78.5 -195t-200.5 -77t-201 77.5t-79 194.5zM153 260q0 -78 46.5 -128t121.5 -50t121 50t46 128t-46.5 128t-120.5 50q-75 0 -121.5 -49.5t-46.5 -128.5zM375 632v104h102v-104h-102zM165 632v104h103v-104h-103z" />
    <glyph glyph-name="oslash.sc" unicode="&#xf7f8;" horiz-adv-x="641" 
d="M57 -12l64 76q-80 78 -80 196t79 195t201 77q87 0 154 -42l35 42h77l-65 -78q78 -78 78 -194q0 -118 -78.5 -195t-200.5 -77q-84 0 -153 40l-33 -40h-78zM153 260q0 -68 35 -115l223 268q-39 25 -90 25q-75 0 -121.5 -49.5t-46.5 -128.5zM488 260q0 66 -34 112l-222 -267
q38 -23 89 -23q75 0 121 50t46 128z" />
    <glyph glyph-name="ugrave.sc" unicode="&#xf7f9;" horiz-adv-x="608" 
d="M68 210v310h109v-308q0 -129 125 -129q64 0 96.5 33.5t32.5 95.5v308h109v-310q0 -222 -238 -222q-234 0 -234 222zM267 600l-146 164h120l102 -164h-76z" />
    <glyph glyph-name="uacute.sc" unicode="&#xf7fa;" horiz-adv-x="608" 
d="M68 210v310h109v-308q0 -129 125 -129q64 0 96.5 33.5t32.5 95.5v308h109v-310q0 -222 -238 -222q-234 0 -234 222zM266 600l102 164h120l-146 -164h-76z" />
    <glyph glyph-name="ucircumflex.sc" unicode="&#xf7fb;" horiz-adv-x="608" 
d="M68 210v310h109v-308q0 -129 125 -129q64 0 96.5 33.5t32.5 95.5v308h109v-310q0 -222 -238 -222q-234 0 -234 222zM132 600l128 164h89l128 -164h-95l-78 106l-77 -106h-95z" />
    <glyph glyph-name="udieresis.sc" unicode="&#xf7fc;" horiz-adv-x="608" 
d="M68 210v310h109v-308q0 -129 125 -129q64 0 96.5 33.5t32.5 95.5v308h109v-310q0 -222 -238 -222q-234 0 -234 222zM358 632v104h102v-104h-102zM148 632v104h103v-104h-103z" />
    <glyph glyph-name="yacute.sc" unicode="&#xf7fd;" horiz-adv-x="530" 
d="M209 0v199l-205 321h125l137 -222h2l142 222h116l-209 -318v-202h-108zM227 600l102 164h120l-146 -164h-76z" />
    <glyph glyph-name="thorn.sc" unicode="&#xf7fe;" horiz-adv-x="565" 
d="M84 0v520h109v-77h137q91 0 142 -48.5t51 -126.5q0 -79 -50.5 -128t-142.5 -49h-137v-91h-109zM322 356h-129v-178h129q44 0 68 24.5t24 64.5t-24 64.5t-68 24.5z" />
    <glyph glyph-name="ydieresis.sc" unicode="&#xf7ff;" horiz-adv-x="530" 
d="M209 0v199l-205 321h125l137 -222h2l142 222h116l-209 -318v-202h-108zM319 632v104h102v-104h-102zM109 632v104h103v-104h-103z" />
    <glyph glyph-name="at.sc" horiz-adv-x="840" 
d="M237 96q0 47 32.5 77.5t97.5 37.5l71 8q29 3 40 9.5t11 19.5q0 29 -18.5 46.5t-52.5 17.5q-31 0 -50.5 -16.5t-22.5 -46.5h-89q5 66 51 98t111 32q79 0 122 -35.5t43 -103.5v-115q0 -75 59 -75q34 0 57.5 38t23.5 116q0 122 -83.5 193.5t-215.5 71.5q-139 0 -223 -83
t-84 -210t81 -207.5t215 -80.5q108 0 161 50h90q-88 -113 -251 -113q-162 0 -263.5 100.5t-101.5 250.5q0 151 104 253.5t272 102.5q161 0 264.5 -91t103.5 -237q0 -107 -48 -159.5t-122 -52.5q-91 0 -118 57q-39 -60 -136 -60q-62 0 -96.5 29.5t-34.5 77.5zM397 55
q38 0 65 23t27 66v34q-12 -12 -39 -15l-58 -7q-57 -7 -57 -50q0 -22 16.5 -36.5t45.5 -14.5z" />
    <glyph glyph-name="fi.sc" horiz-adv-x="792" 
d="M84 0v520h391v-87h-282v-156h225v-85h-225v-192h-109zM599 0v520h109v-520h-109z" />
    <glyph glyph-name="fl.sc" horiz-adv-x="993" 
d="M84 0v520h391v-87h-282v-156h225v-85h-225v-192h-109zM599 0v520h109v-426h263v-94h-372z" />
    <glyph glyph-name="t_t" horiz-adv-x="651" 
d="M394 156v248h-198v-242q0 -39 14.5 -55.5t47.5 -16.5h43v-90h-55q-84 0 -121 37t-37 119v248h-89v84h89v148h108v-148h198v148h109v-148h124v-84h-124v-242q0 -38 15.5 -55t49.5 -17h59v-90h-75q-83 0 -120.5 37t-37.5 119z" />
    <glyph glyph-name="t_f" horiz-adv-x="626" 
d="M397 0v404h-199v-242q0 -41 10.5 -56.5t42.5 -15.5h50v-90h-63q-82 0 -115 36.5t-33 119.5v248h-89v84h89v148h108v-148h199v69q0 89 42.5 132t133.5 43h64v-88h-50q-45 0 -63.5 -20.5t-18.5 -66.5v-69h116v-84h-116v-404h-108z" />
    <glyph glyph-name="caronquoteleft" horiz-adv-x="573" 
d="M235 568v83l43 105h47l-30 -94h43v-94h-103z" />
    <glyph glyph-name="caronquoteright" horiz-adv-x="573" 
d="M248 568l30 94h-43v94h103v-83l-43 -105h-47z" />
    <glyph glyph-name="slashedzero" horiz-adv-x="568" 
d="M284 -12q-125 0 -185.5 97.5t-60.5 258.5t60.5 258.5t185.5 97.5t185.5 -97.5t60.5 -258.5t-60.5 -258.5t-185.5 -97.5zM151 344q0 -103 21 -166l186 398q-29 31 -74 31q-133 0 -133 -263zM284 81q133 0 133 263q0 102 -21 165l-187 -398q30 -30 75 -30z" />
    <glyph glyph-name="zero.sc" horiz-adv-x="504" 
d="M252 -12q-109 0 -161.5 75t-52.5 197t52.5 197t161.5 75t161.5 -75t52.5 -197t-52.5 -197t-161.5 -75zM252 72q102 0 102 188t-102 188t-102 -188t102 -188z" />
    <glyph glyph-name="one.sc" horiz-adv-x="504" 
d="M105 322l-43 75l194 123h72v-435h131v-85h-377v85h139v308z" />
    <glyph glyph-name="two.sc" horiz-adv-x="504" 
d="M50 0q3 94 34.5 147t102.5 93l69 38q46 27 65.5 46.5t19.5 51.5q0 30 -22.5 51t-65.5 21q-90 0 -96 -89h-99q4 89 58.5 131t137.5 42q86 0 138 -40.5t52 -110.5q0 -58 -29 -93.5t-90 -71.5l-69 -38q-49 -29 -65.5 -49t-18.5 -44h277v-85h-399z" />
    <glyph glyph-name="three.sc" horiz-adv-x="504" 
d="M46 155h101q0 -46 28.5 -68.5t74.5 -22.5q47 0 75 21.5t28 64.5q0 39 -28 60.5t-73 21.5h-41v75h42q37 0 61.5 21t24.5 54q0 34 -24 54t-65 20q-38 0 -63.5 -20.5t-25.5 -57.5h-93q0 71 50.5 112.5t131.5 41.5q87 0 137.5 -40t50.5 -108q0 -39 -21.5 -68.5t-58.5 -41.5
v-4q46 -15 74 -49t28 -81q0 -73 -59 -112.5t-152 -39.5q-96 0 -149.5 41t-53.5 126z" />
    <glyph glyph-name="four.sc" horiz-adv-x="504" 
d="M27 108v68l274 344h89v-329h79v-83h-79v-108h-106v108h-257zM132 191h152v193z" />
    <glyph glyph-name="five.sc" horiz-adv-x="504" 
d="M47 138h106q13 -70 99 -70q44 0 71.5 25.5t27.5 70.5q0 43 -27 68t-69 25q-55 0 -92 -50l-100 10l17 303h344v-88h-252l-8 -134h4q41 37 107 37q75 0 128 -44t53 -126q0 -83 -59 -130t-144 -47q-94 0 -146 39.5t-60 110.5z" />
    <glyph glyph-name="six.sc" horiz-adv-x="504" 
d="M267 452q-103 0 -112 -170q16 24 51 38.5t74 14.5q78 0 129.5 -43.5t51.5 -126.5q0 -82 -58 -129.5t-142 -47.5q-217 0 -217 260q0 149 62 216.5t161 67.5q86 0 131.5 -40t53.5 -106h-103q-14 66 -82 66zM260 254q-43 0 -69.5 -24.5t-26.5 -68.5q0 -41 27 -65.5t69 -24.5
q43 0 69.5 25t26.5 68q0 41 -26.5 65.5t-69.5 24.5z" />
    <glyph glyph-name="seven.sc" horiz-adv-x="504" 
d="M113 0l230 426h-297v94h417v-63l-236 -457h-114z" />
    <glyph glyph-name="eight.sc" horiz-adv-x="504" 
d="M65 384q0 68 51 108t136 40t136 -40t51 -108q0 -38 -21 -68t-58 -42v-4q46 -15 74 -49t28 -81q0 -73 -57.5 -112.5t-152.5 -39.5t-152.5 39.5t-57.5 112.5q0 47 28 81t74 49v4q-37 12 -58 42t-21 68zM149 147q0 -38 29 -60.5t74 -22.5t74 22.5t29 60.5q0 39 -29 62
t-74 23t-74 -23t-29 -62zM163 382q0 -35 25 -55t64 -20t64 20t25 55q0 34 -25.5 54.5t-63.5 20.5t-63.5 -20.5t-25.5 -54.5z" />
    <glyph glyph-name="nine.sc" horiz-adv-x="504" 
d="M242 68q47 0 74.5 38t31.5 132q-16 -24 -51 -38.5t-74 -14.5q-78 0 -129.5 43.5t-51.5 126.5q0 82 58 129.5t142 47.5q217 0 217 -260q0 -149 -59.5 -216.5t-157.5 -67.5q-86 0 -134.5 40t-56.5 106h103q6 -28 27.5 -47t60.5 -19zM243 266q43 0 69.5 23.5t26.5 69.5
q0 43 -26.5 66.5t-69.5 23.5t-68 -25t-25 -68q0 -41 25 -65.5t68 -24.5z" />
    <glyph glyph-name="slashedzero.sc" horiz-adv-x="504" 
d="M252 -12q-109 0 -161.5 75t-52.5 197t52.5 197t161.5 75t161.5 -75t52.5 -197t-52.5 -197t-161.5 -75zM150 260q0 -72 15 -117l136 290q-20 15 -49 15q-102 0 -102 -188zM252 72q102 0 102 188q0 72 -15 117l-136 -290q19 -15 49 -15z" />
    <glyph glyph-name="currency.sc" horiz-adv-x="504" 
d="M103 60l-51 50l59 60q-28 44 -28 90q0 47 30 91l-60 60l51 50l59 -61q42 24 89 24q46 0 88 -24l60 61l51 -50l-60 -60q30 -44 30 -91q0 -45 -29 -90l60 -60l-51 -50l-60 60q-37 -24 -89 -24q-53 0 -89 24zM252 166q39 0 64.5 26t25.5 68t-25.5 68t-64.5 26t-64.5 -26
t-25.5 -68t25.5 -68t64.5 -26z" />
    <glyph glyph-name="dollar.sc" horiz-adv-x="504" 
d="M38 150h104q1 -37 30.5 -60.5t74.5 -23.5q46 0 72.5 19t26.5 53q0 30 -20.5 45t-65.5 27l-69 18q-138 34 -138 147q0 61 40 102.5t111 51.5v87h88v-88q63 -11 102.5 -49t43.5 -93h-100q-6 32 -30 50t-60 18q-38 0 -63 -16.5t-25 -48.5q0 -28 19 -43.5t63 -27.5l69 -18
q71 -18 107 -53t36 -97q0 -66 -43 -107.5t-119 -51.5v-91h-88v91q-76 9 -120 51t-46 108z" />
    <glyph glyph-name="cent.sc" horiz-adv-x="504" 
d="M220 -12v78q-78 13 -122 66t-44 131q0 77 45 129.5t125 64.5v75h87v-76q65 -11 103.5 -50t43.5 -90h-104q-5 25 -28 43.5t-59 18.5q-51 0 -77.5 -32.5t-26.5 -82.5q0 -51 26.5 -84.5t74.5 -33.5q38 0 61 19.5t29 45.5h101q-5 -52 -44.5 -92.5t-103.5 -51.5v-78h-87z" />
    <glyph glyph-name="Euro.sc" horiz-adv-x="504" 
d="M11 188l14 48h50v24q0 20 1 30h-51l15 48h41q16 89 68.5 141t143.5 52q81 0 126.5 -42t57.5 -114h-97q-5 33 -27 53t-57 20q-84 0 -104 -110h150l-15 -48h-141v-54h137l-14 -48h-118q19 -116 105 -116q63 0 81 65h98q-31 -148 -182 -148q-93 0 -146 53.5t-67 145.5h-69z
" />
    <glyph glyph-name="yen.sc" horiz-adv-x="504" 
d="M84 175v50h112l-182 295h124l119 -203h2l120 203h111l-179 -295h112v-50h-115v-51h115v-50h-115v-74h-105v74h-119v50h119v51h-119z" />
    <glyph glyph-name="sterling.sc" horiz-adv-x="504" 
d="M66 241v58h66q-24 52 -24 88q0 67 44 106t122 39q145 0 156 -138h-92q-9 62 -64 62q-29 0 -46.5 -17t-17.5 -48q0 -36 26 -92h126v-58h-101q10 -32 10 -62q0 -36 -12 -72q63 -42 90 -42q23 0 32.5 15.5t11.5 48.5h82q-2 -68 -29 -104.5t-88 -36.5q-57 0 -128 63
q-43 -60 -109 -60q-48 0 -75.5 22.5t-27.5 61.5q0 43 29 67t75 24q25 0 56 -12v7q0 35 -18 80h-94zM119 44q42 0 54 53q-26 18 -50 18q-21 0 -31.5 -10.5t-10.5 -25.5t10 -25t28 -10z" />
    <glyph glyph-name="florin.sc" horiz-adv-x="504" 
d="M75 199v63h102l15 129q16 141 153 141q66 0 102 -32.5t28 -94.5l-4 -31h-89l3 28q6 55 -39 55q-40 0 -47 -66l-15 -129h118v-63h-125l-24 -219q-9 -75 -47.5 -108t-105.5 -33q-66 0 -102 32.5t-28 94.5l4 31h89l-3 -28q-6 -55 39 -55q22 0 32.5 16t14.5 50l24 219h-95z
" />
    <glyph glyph-name="zero.TOSF" horiz-adv-x="568" 
d="M38 244q0 113 68 184.5t178 71.5q114 0 180 -71t66 -185q0 -113 -68 -184.5t-178 -71.5q-114 0 -180 71t-66 185zM149 244q0 -77 37.5 -122.5t97.5 -45.5t97.5 46t37.5 122q0 78 -37 123t-98 45q-60 0 -97.5 -45.5t-37.5 -122.5z" />
    <glyph glyph-name="one.TOSF" horiz-adv-x="568" 
d="M117 266l-46 75l211 147h75v-401h167v-87h-455v87h182v272z" />
    <glyph glyph-name="two.TOSF" horiz-adv-x="568" 
d="M54 0q0 102 46 156.5t128 82.5l62 22q67 23 83 36q23 18 23 49q0 30 -26.5 51t-83.5 21q-120 0 -129 -105h-101q1 50 21.5 88t54.5 58.5t72.5 30.5t81.5 10q99 0 158 -40.5t59 -110.5q0 -31 -10.5 -55.5t-22.5 -39t-38.5 -28.5t-41.5 -20t-48 -17l-61 -21
q-100 -35 -100 -82h324v-86h-451z" />
    <glyph glyph-name="three.TOSF" horiz-adv-x="568" 
d="M38 8h106q0 -66 36 -99.5t96 -33.5q59 0 95.5 31t36.5 87q0 53 -38 85.5t-94 32.5h-53v89h53q48 0 80.5 30.5t32.5 79.5q0 48 -32.5 75.5t-80.5 27.5q-49 0 -81 -29.5t-32 -85.5h-98q0 93 58.5 147.5t152.5 54.5q96 0 156 -51.5t60 -134.5q0 -49 -29.5 -93.5t-70.5 -60.5
v-4q55 -16 90.5 -62.5t35.5 -108.5q0 -91 -68.5 -144t-173.5 -53q-111 0 -174.5 55t-63.5 165z" />
    <glyph glyph-name="four.TOSF" horiz-adv-x="568" 
d="M28 -12v73l328 431h90v-414h94v-90h-94v-188h-108v188h-310zM138 78h200v258z" />
    <glyph glyph-name="five.TOSF" horiz-adv-x="568" 
d="M52 -16h108q7 -45 39.5 -76.5t91.5 -31.5q54 0 92.5 36.5t38.5 100.5t-37 101.5t-94 37.5q-66 0 -118 -65l-99 8l21 393h396v-93h-299l-11 -197h4q45 42 124 42q96 0 158.5 -59t62.5 -161q0 -112 -69 -172t-170 -60q-107 0 -169 52.5t-70 143.5z" />
    <glyph glyph-name="six.TOSF" horiz-adv-x="568" 
d="M40 328q0 100 22 174.5t60 116t83.5 61.5t98.5 20q97 0 150 -49.5t62 -134.5h-107q-13 96 -106 96q-61 0 -103 -60.5t-47 -192.5q20 36 66 58.5t98 22.5q93 0 154 -60t61 -163q0 -106 -69.5 -167.5t-166.5 -61.5q-115 0 -185.5 81t-70.5 259zM299 352q-58 0 -96 -38
t-38 -99q0 -60 36 -99.5t92 -39.5q57 0 94 37.5t37 102.5q0 60 -36 98t-89 38z" />
    <glyph glyph-name="seven.TOSF" horiz-adv-x="568" 
d="M131 -200l280 592h-363v96h480v-71l-285 -617h-112z" />
    <glyph glyph-name="eight.TOSF" horiz-adv-x="568" 
d="M39 185q0 62 35.5 108.5t90.5 62.5v4q-43 15 -71.5 58.5t-28.5 94.5q0 84 60 135.5t159 51.5t159 -51.5t60 -135.5q0 -51 -28.5 -94.5t-71.5 -58.5v-4q55 -16 90.5 -62.5t35.5 -108.5q0 -92 -67 -144.5t-178 -52.5t-178 52.5t-67 144.5zM149 193q0 -56 37 -87t98 -31
t98 31t37 87q0 53 -38.5 85.5t-96.5 32.5t-96.5 -32.5t-38.5 -85.5zM284 400q50 0 83 30.5t33 79.5q0 48 -33 77t-83 29t-83 -29t-33 -77q0 -49 33 -79.5t83 -30.5z" />
    <glyph glyph-name="nine.TOSF" horiz-adv-x="568" 
d="M528 160q0 -372 -257 -372q-99 0 -153 49t-66 135h107q17 -96 113 -96q66 0 102 59t40 194q-20 -37 -65 -59t-97 -22q-94 0 -155 59.5t-61 163.5q0 106 69.5 167.5t166.5 61.5q115 0 185.5 -81t70.5 -259zM269 136q57 0 95.5 38.5t38.5 97.5q0 61 -36 100.5t-91 39.5
q-56 0 -93.5 -37.5t-37.5 -102.5q0 -60 36 -98t88 -38z" />
    <glyph glyph-name="slashedzero.TOSF" horiz-adv-x="568" 
d="M38 244q0 113 68 184.5t178 71.5q114 0 180 -71t66 -185q0 -113 -68 -184.5t-178 -71.5q-114 0 -180 71t-66 185zM149 244q0 -60 23 -101l182 249q-31 20 -70 20q-60 0 -97.5 -45.5t-37.5 -122.5zM419 244q0 61 -23 101l-182 -249q31 -20 70 -20q60 0 97.5 46t37.5 122z
" />
    <glyph glyph-name="zero.PPF" horiz-adv-x="591" 
d="M295 -12q-86 0 -144.5 48.5t-83.5 126.5t-25 181t25 181t83.5 126.5t144.5 48.5q128 0 191 -98.5t63 -257.5t-63 -257.5t-191 -98.5zM295 81q69 0 105 67.5t36 195.5t-36 195.5t-105 67.5q-141 0 -141 -263q0 -128 36 -195.5t105 -67.5z" />
    <glyph glyph-name="one.PPF" horiz-adv-x="364" 
d="M61 475l-47 80l195 133h76v-688h-108v554z" />
    <glyph glyph-name="two.PPF" horiz-adv-x="539" 
d="M37 0q4 115 40.5 181.5t120.5 122.5l72 48q44 30 62.5 44.5t34.5 42t16 61.5q0 46 -26.5 78t-83.5 32q-117 0 -128 -129h-102q5 116 69.5 167.5t161.5 51.5q100 0 159.5 -51.5t59.5 -143.5q0 -42 -11.5 -75t-36.5 -60.5t-45.5 -44t-58.5 -41.5l-72 -48
q-43 -30 -67.5 -57.5t-31 -45.5t-8.5 -43h336v-90h-461z" />
    <glyph glyph-name="three.PPF" horiz-adv-x="556" 
d="M32 208h105q0 -64 37.5 -98.5t99.5 -34.5q61 0 98.5 32t37.5 86q0 53 -38.5 85.5t-97.5 32.5h-52v89h52q49 0 81.5 31t32.5 79t-32.5 75.5t-81.5 27.5q-51 0 -83 -29.5t-32 -85.5h-100q0 93 59 147.5t156 54.5t157.5 -51.5t60.5 -134.5q0 -50 -30 -94.5t-72 -59.5v-4
q56 -14 92.5 -60t36.5 -107q0 -93 -69.5 -147t-175.5 -54q-112 0 -177 56t-65 164z" />
    <glyph glyph-name="four.PPF" horiz-adv-x="562" 
d="M18 161v73l335 454h88v-437h96v-90h-96v-161h-109v161h-314zM130 251h202v270z" />
    <glyph glyph-name="five.PPF" horiz-adv-x="540" 
d="M31 184h107q7 -45 39.5 -76.5t89.5 -31.5q54 0 91.5 36.5t37.5 99.5q0 65 -36.5 102.5t-89.5 37.5q-68 0 -118 -64l-97 6l22 394h388v-93h-292l-11 -199h4q46 44 123 44q90 0 153 -58t63 -162q0 -110 -69 -171t-167 -61q-106 0 -168 52.5t-70 143.5z" />
    <glyph glyph-name="six.PPF" horiz-adv-x="571" 
d="M42 325q0 194 71.5 284.5t186.5 90.5q99 0 153.5 -50t63.5 -136h-106q-12 98 -111 98q-138 0 -146 -253q20 37 63.5 59t97.5 22q95 0 156.5 -59.5t61.5 -163.5q0 -106 -69 -167.5t-167 -61.5q-255 0 -255 337zM297 352q-58 0 -94.5 -38t-36.5 -99t35.5 -100t92.5 -39
q58 0 94.5 37.5t36.5 102.5q0 60 -36.5 98t-91.5 38z" />
    <glyph glyph-name="seven.PPF" horiz-adv-x="475" 
d="M65 0l280 592h-326v96h443v-71l-285 -617h-112z" />
    <glyph glyph-name="eight.PPF" horiz-adv-x="569" 
d="M36 185q0 63 37 110t92 61v4q-44 14 -73 57.5t-29 95.5q0 83 61 135t161 52q99 0 160 -51.5t61 -135.5q0 -52 -29 -95.5t-73 -57.5v-4q55 -14 92 -61t37 -110q0 -92 -67.5 -144.5t-180.5 -52.5t-181 52.5t-68 144.5zM145 193q0 -55 38.5 -86.5t101.5 -31.5
q62 0 100.5 31.5t38.5 86.5q0 53 -39.5 85.5t-99.5 32.5q-61 0 -100.5 -32.5t-39.5 -85.5zM285 400q51 0 84 31t33 79t-33 77t-84 29t-84.5 -29t-33.5 -77t33.5 -79t84.5 -31z" />
    <glyph glyph-name="nine.PPF" horiz-adv-x="571" 
d="M522 366q0 -378 -258 -378q-98 0 -155 51t-62 135h106q5 -44 33 -71t78 -27q67 0 104 58t41 195q-20 -37 -62.5 -59t-96.5 -22q-95 0 -157 59.5t-62 163.5q0 106 69 167.5t167 61.5q255 0 255 -334zM267 336q60 0 95.5 39.5t35.5 102.5q0 56 -36.5 95t-91.5 39
q-58 0 -94.5 -37.5t-36.5 -102.5q0 -60 37 -98t91 -38z" />
    <glyph glyph-name="slashedzero.PPF" horiz-adv-x="591" 
d="M295 -12q-86 0 -144.5 48.5t-83.5 126.5t-25 181t25 181t83.5 126.5t144.5 48.5q128 0 191 -98.5t63 -257.5t-63 -257.5t-191 -98.5zM154 344q0 -110 25 -173l191 407q-31 29 -75 29q-141 0 -141 -263zM295 81q69 0 105 67.5t36 195.5q0 106 -26 172l-191 -407
q33 -28 76 -28z" />
    <glyph glyph-name="currency.PPF" horiz-adv-x="484" 
d="M93 144l-51 50l59 60q-28 44 -28 90t29 91l-59 60l51 50l59 -61q40 24 89 24q47 0 87 -24l61 61l51 -50l-60 -60q30 -44 30 -91q0 -45 -29 -90l60 -60l-51 -50l-60 60q-37 -24 -89 -24t-90 24zM242 250q39 0 64 26t25 68t-25 68t-64 26t-64.5 -26t-25.5 -68t25.5 -68
t64.5 -26z" />
    <glyph glyph-name="dollar.PPF" horiz-adv-x="540" 
d="M27 194h107q4 -57 39.5 -88t91.5 -31q59 0 92.5 28.5t33.5 81.5q0 43 -28.5 65.5t-83.5 40.5l-85 26q-154 47 -154 189q0 74 48.5 125.5t128.5 64.5v108h95v-108q73 -13 121 -61.5t52 -120.5h-107q-6 50 -37.5 74t-76.5 24q-48 0 -80.5 -24t-32.5 -71q0 -44 25 -66.5
t80 -39.5l84 -26q162 -50 162 -191q0 -83 -51.5 -137t-138.5 -66v-111h-95v111q-86 11 -136.5 65t-53.5 138z" />
    <glyph glyph-name="cent.PPF" horiz-adv-x="535" 
d="M234 -12v107q-92 14 -143.5 81t-51.5 172q0 103 54.5 170.5t144.5 81.5v100h95v-100q75 -12 118.5 -59.5t52.5 -115.5h-107q-7 41 -36 66.5t-79 25.5q-57 0 -94 -47t-37 -122t37 -122t94 -47q98 0 115 92h107q-9 -69 -53.5 -116.5t-121.5 -59.5v-107h-95z" />
    <glyph glyph-name="Euro.PPF" horiz-adv-x="614" 
d="M31 390l18 61h54q22 114 89 181.5t174 67.5q99 0 157.5 -49.5t76.5 -137.5h-104q-29 100 -130 100q-56 0 -95 -42t-55 -120h191l-17 -61h-183q-1 -15 -1 -46q0 -25 1 -37h179l-18 -62h-154q14 -82 53 -126t96 -44q98 0 128 85h104q-20 -82 -78.5 -127t-153.5 -45
q-112 0 -177.5 69.5t-84.5 187.5h-89l18 62h65q-1 12 -1 37q0 31 1 46h-64z" />
    <glyph glyph-name="yen.PPF" horiz-adv-x="547" 
d="M120 688l155 -279h4l157 279h115l-223 -386h146v-61h-146v-71h146v-61h-146v-109h-109v109h-146v61h146v71h-146v61h146v2l-223 384h124z" />
    <glyph glyph-name="sterling.PPF" horiz-adv-x="564" 
d="M51 322v68h83q-27 76 -27 132q0 81 52.5 129.5t141.5 48.5q85 0 134 -45.5t54 -130.5h-102q-9 95 -88 95q-36 0 -60.5 -24t-24.5 -65q0 -48 32 -140h160v-68h-138q13 -44 13 -84q0 -52 -14 -103q4 -2 15.5 -9.5l16 -10.5t15 -9l16 -9t14.5 -7.5t15 -6.5l14 -4.5
t14.5 -3.5t13.5 -1q60 0 64 90h87q-10 -176 -150 -176q-29 0 -61 13t-52 26.5t-53 38.5q-48 -78 -132 -78q-51 0 -81.5 26.5t-30.5 71.5q0 51 33 80.5t87 29.5q32 0 66 -13q1 9 1 27q0 44 -22 112h-106zM105 46q45 0 63 68q-34 21 -62 21q-20 0 -33 -13t-13 -32
q0 -20 11.5 -32t33.5 -12z" />
    <glyph glyph-name="florin.PPF" horiz-adv-x="503" 
d="M45 285v72h126l18 171q18 172 177 172q152 0 142 -160l-3 -38h-94l2 38q5 77 -51 77t-65 -89l-18 -171h149v-72h-156l-31 -305q-18 -172 -177 -172q-152 0 -142 160l3 38h94l-2 -38q-5 -77 51 -77t65 89l31 305h-119z" />
    <glyph glyph-name="zero.scppf" horiz-adv-x="531" 
d="M266 -12q-112 0 -166.5 76t-54.5 196t54.5 196t166.5 76q111 0 165.5 -76t54.5 -196t-54.5 -196t-165.5 -76zM266 72q53 0 80.5 49t27.5 139q0 188 -108 188q-109 0 -109 -188q0 -90 28 -139t81 -49z" />
    <glyph glyph-name="one.scppf" horiz-adv-x="337" 
d="M51 335l-42 75l172 110h72v-520h-107v393z" />
    <glyph glyph-name="two.scppf" horiz-adv-x="481" 
d="M38 0q3 93 36 146.5t104 93.5l69 38q48 27 67.5 46.5t19.5 51.5q0 30 -23 51t-68 21q-93 0 -98 -89h-100q4 89 60 131t139 42q87 0 140 -40.5t53 -110.5q0 -57 -29.5 -93t-91.5 -72l-69 -38q-49 -29 -66.5 -49t-19.5 -44h281v-85h-404z" />
    <glyph glyph-name="three.scppf" horiz-adv-x="478" 
d="M27 155h102q0 -46 29 -68.5t76 -22.5q48 0 77 21.5t29 64.5q0 39 -28.5 60.5t-74.5 21.5h-42v75h43q38 0 63 21t25 54q0 35 -24.5 54.5t-67.5 19.5q-39 0 -65 -20.5t-26 -57.5h-94q0 71 51.5 112.5t133.5 41.5q89 0 140 -40t51 -108q0 -39 -21.5 -68.5t-58.5 -41.5v-4
q46 -15 74 -49t28 -81q0 -72 -59.5 -112t-153.5 -40q-98 0 -152.5 41t-54.5 126z" />
    <glyph glyph-name="four.scppf" horiz-adv-x="486" 
d="M20 108v68l275 344h90v-329h77v-83h-77v-108h-107v108h-258zM125 191h153v193z" />
    <glyph glyph-name="five.scppf" horiz-adv-x="481" 
d="M40 138h106q7 -31 31.5 -50.5t68.5 -19.5q42 0 70.5 26t28.5 70q0 42 -28 67.5t-68 25.5q-59 0 -93 -50l-100 10l17 303h345v-88h-253l-8 -134h4q41 37 108 37q76 0 128.5 -44t52.5 -126q0 -83 -58.5 -130t-145.5 -47q-94 0 -146 39.5t-60 110.5z" />
    <glyph glyph-name="six.scppf" horiz-adv-x="506" 
d="M272 452q-107 0 -116 -170q16 24 52 38.5t77 14.5q80 0 132 -43.5t52 -126.5q0 -82 -59 -129.5t-144 -47.5q-221 0 -221 260q0 149 63 216.5t164 67.5q87 0 133.5 -40t54.5 -106h-103q-12 66 -85 66zM265 254q-44 0 -72 -24.5t-28 -68.5q0 -41 28 -65.5t72 -24.5t71.5 25
t27.5 68q0 41 -27.5 65.5t-71.5 24.5z" />
    <glyph glyph-name="seven.scppf" horiz-adv-x="430" 
d="M64 0l227 426h-266v94h386v-63l-236 -457h-111z" />
    <glyph glyph-name="eight.scppf" horiz-adv-x="493" 
d="M34 140q0 47 27.5 81t73.5 49v4q-36 12 -57.5 42t-21.5 68q0 67 52 107.5t138 40.5q87 0 139 -40.5t52 -107.5q0 -38 -21.5 -68t-58.5 -42v-4q46 -15 74 -49t28 -81q0 -73 -58 -112.5t-155 -39.5q-96 0 -154 39.5t-58 112.5zM141 147q0 -38 29 -60.5t76 -22.5t76.5 22.5
t29.5 60.5q0 39 -30 62t-76 23t-75.5 -23t-29.5 -62zM155 382q0 -35 25.5 -55t65.5 -20t66 20t26 55q0 34 -26 54.5t-66 20.5t-65.5 -20.5t-25.5 -54.5z" />
    <glyph glyph-name="nine.scppf" horiz-adv-x="509" 
d="M244 68q49 0 77 38t32 132q-16 -24 -52.5 -38.5t-76.5 -14.5q-80 0 -132 43.5t-52 126.5q0 82 59 129.5t145 47.5q220 0 220 -260q0 -149 -60.5 -216.5t-159.5 -67.5q-88 0 -137.5 40t-57.5 106h103q6 -28 29 -47t63 -19zM245 266q43 0 71 24.5t28 68.5q0 41 -28 65.5
t-71 24.5q-45 0 -72.5 -25t-27.5 -68q0 -41 27.5 -65.5t72.5 -24.5z" />
    <glyph glyph-name="slashedzero.scppf" horiz-adv-x="531" 
d="M266 -12q-112 0 -166.5 76t-54.5 196t54.5 196t166.5 76q111 0 165.5 -76t54.5 -196t-54.5 -196t-165.5 -76zM266 72q53 0 80.5 49t27.5 139q0 73 -19 122l-140 -296q22 -14 51 -14zM157 260q0 -76 19 -121l139 295q-22 14 -49 14q-109 0 -109 -188z" />
    <glyph glyph-name="currency.scppf" horiz-adv-x="478" 
d="M90 60l-51 50l59 60q-28 44 -28 90q0 48 29 91l-59 60l50 50l60 -61q40 24 89 24q47 0 87 -24l61 61l51 -50l-60 -60q30 -44 30 -91q0 -45 -29 -90l59 -60l-50 -50l-60 60q-38 -24 -89 -24q-53 0 -90 24zM239 166q39 0 64 26t25 68t-25 68t-64 26t-64.5 -26t-25.5 -68
t25.5 -68t64.5 -26z" />
    <glyph glyph-name="dollar.scppf" horiz-adv-x="483" 
d="M37 150h101q3 -38 31 -61t73 -23q46 0 72.5 19t26.5 53q0 32 -20 47.5t-65 27.5l-70 18q-27 7 -48 15.5t-43 24.5t-34.5 42.5t-12.5 61.5q0 60 40.5 102t111.5 52v87h87v-88q63 -11 102.5 -49t43.5 -93h-100q-6 32 -30.5 50t-59.5 18q-39 0 -63 -16.5t-24 -48.5
q0 -28 18 -43.5t63 -27.5l69 -18q71 -18 107 -53t36 -97q0 -66 -43.5 -107.5t-118.5 -51.5v-91h-87v91q-74 10 -117.5 52t-45.5 107z" />
    <glyph glyph-name="cent.scppf" horiz-adv-x="470" 
d="M203 -12v78q-80 13 -125 66t-45 131q0 77 46.5 129.5t127.5 64.5v75h86v-76q66 -10 106 -49t45 -91h-105q-5 25 -28.5 43.5t-60.5 18.5q-53 0 -80 -32t-27 -83t27 -84.5t76 -33.5q40 0 63.5 19.5t29.5 45.5h102q-5 -52 -46 -92.5t-106 -51.5v-78h-86z" />
    <glyph glyph-name="Euro.scppf" horiz-adv-x="524" 
d="M8 188l14 48h52v24q0 20 1 30h-52l14 48h44q17 88 74.5 140.5t152.5 52.5q87 0 137 -42.5t61 -113.5h-96q-5 33 -31 53t-67 20q-94 0 -119 -110h149l-15 -48h-140q-1 -10 -1 -30v-24h137l-14 -48h-117q21 -116 120 -116q76 0 95 65h97q-13 -68 -63 -108t-133 -40
q-97 0 -154.5 54t-73.5 145h-72z" />
    <glyph glyph-name="yen.scppf" horiz-adv-x="453" 
d="M110 520l121 -203h3l121 203h111l-180 -295h111v-50h-114v-51h114v-50h-114v-74h-106v74h-118v50h118v51h-118v50h111l-183 295h123z" />
    <glyph glyph-name="sterling.scppf" horiz-adv-x="491" 
d="M65 241v58h63q-23 50 -23 86q0 68 45 107.5t124 39.5q75 0 115.5 -36.5t45.5 -103.5h-93q-7 64 -68 64q-30 0 -48.5 -17.5t-18.5 -49.5t27 -90h127v-58h-103q10 -32 10 -62q0 -35 -12 -70q67 -44 96 -44q42 0 45 64h82q-2 -68 -30 -104.5t-91 -36.5q-24 0 -49 10.5
t-41 22t-40 31.5q-42 -61 -110 -61q-48 0 -75.5 22.5t-27.5 61.5q0 43 29 67t75 24q28 0 56 -11v6q0 35 -19 80h-91zM116 44q44 0 54 54q-27 17 -50 17q-42 0 -42 -36q0 -15 10 -25t28 -10z" />
    <glyph glyph-name="florin.scppf" horiz-adv-x="449" 
d="M49 199v63h102l15 129q16 141 155 141q65 0 100 -32t29 -95l-3 -31h-89l3 28q6 55 -40 55q-41 0 -48 -66l-15 -129h118v-63h-125l-24 -219q-16 -141 -155 -141q-66 0 -101.5 32.5t-27.5 94.5l4 31h89l-4 -28q-6 -55 40 -55q22 0 33 16t15 50l24 219h-95z" />
    <glyph glyph-name="slashedzero.oldstyle" horiz-adv-x="597" 
d="M38 244q0 112 72.5 184t187.5 72q119 0 190 -71.5t71 -184.5q0 -112 -72.5 -184t-188.5 -72q-118 0 -189 71.5t-71 184.5zM149 244q0 -64 32 -109l190 259q-33 18 -73 18q-64 0 -106.5 -46t-42.5 -122zM448 244q0 66 -32 109l-190 -259q32 -18 72 -18q65 0 107.5 46
t42.5 122z" />
    <glyph glyph-name="plus.sc" horiz-adv-x="504" 
d="M61 218v88h145v149h92v-149h145v-88h-145v-148h-92v148h-145z" />
    <glyph glyph-name="minus.sc" horiz-adv-x="504" 
d="M61 218v88h382v-88h-382z" />
    <glyph glyph-name="multiply.sc" horiz-adv-x="504" 
d="M131 79l-60 60l120 122l-122 125l61 60l120 -124l121 124l61 -60l-122 -125l120 -122l-60 -60l-120 122z" />
    <glyph glyph-name="divide.sc" horiz-adv-x="504" 
d="M203 372v97h98v-97h-98zM61 218v88h382v-88h-382zM203 51v98h98v-98h-98z" />
    <glyph glyph-name="equal.sc" horiz-adv-x="504" 
d="M61 305v87h382v-87h-382zM61 131v87h382v-87h-382z" />
    <glyph glyph-name="less.sc" horiz-adv-x="504" 
d="M432 157v-93l-360 156v87l360 156v-93l-260 -107z" />
    <glyph glyph-name="greater.sc" horiz-adv-x="504" 
d="M72 370v93l360 -156v-87l-360 -156v93l259 106z" />
    <glyph glyph-name="plusminus.sc" horiz-adv-x="504" 
d="M80 250v82h127v119h87v-119h127v-82h-127v-120h-87v120h-127zM80 0v82h341v-82h-341z" />
    <glyph glyph-name="lessequal.sc" horiz-adv-x="504" 
d="M421 369l-237 -80l237 -79v-87l-341 124v86l341 123v-87zM80 0v82h341v-82h-341z" />
    <glyph glyph-name="greaterequal.sc" horiz-adv-x="504" 
d="M83 369v87l341 -123v-86l-341 -124v87l236 79zM83 82h341v-82h-341v82z" />
    <glyph glyph-name="notequal.sc" horiz-adv-x="504" 
d="M61 305v87h223l56 98l62 -33l-37 -65h78v-87h-127l-49 -87h176v-87h-225l-55 -98l-62 33l36 65h-76v87h125l49 87h-174z" />
    <glyph glyph-name="logicalnot.sc" horiz-adv-x="504" 
d="M61 218v88h382v-236h-91v148h-291z" />
    <glyph glyph-name="asciitilde.sc" horiz-adv-x="504" 
d="M53 193q1 74 34 109.5t81 35.5q42 0 93.5 -27.5t70.5 -27.5q39 0 39 56h82q-1 -73 -33.5 -107.5t-81.5 -34.5q-38 0 -90.5 27.5t-73.5 27.5q-40 0 -40 -59h-81z" />
    <glyph glyph-name="approxequal.sc" horiz-adv-x="504" 
d="M53 95q1 74 34 109.5t81 35.5q42 0 93.5 -27.5t70.5 -27.5q39 0 39 56h82q-1 -73 -33.5 -107.5t-81.5 -34.5q-38 0 -90.5 27.5t-73.5 27.5q-40 0 -40 -59h-81zM53 279q1 74 34 109.5t81 35.5q42 0 93.5 -27.5t70.5 -27.5q39 0 39 56h82q-1 -73 -33.5 -107.5t-81.5 -34.5
q-38 0 -90.5 27.5t-73.5 27.5q-40 0 -40 -59h-81z" />
    <glyph glyph-name="infinity.sc" horiz-adv-x="606" 
d="M165 123q-63 0 -101.5 37.5t-38.5 99.5t38.5 99.5t101.5 37.5q81 0 138 -80q57 80 138 80q63 0 101.5 -37.5t38.5 -99.5t-38.5 -99.5t-101.5 -37.5q-81 0 -138 80q-59 -80 -138 -80zM166 194q46 0 91 66q-45 66 -91 66q-29 0 -47.5 -18t-18.5 -48t18.5 -48t47.5 -18z
M350 260q43 -66 90 -66q29 0 47.5 18t18.5 48t-18.5 48t-47.5 18q-47 0 -90 -66z" />
    <glyph glyph-name="numbersign.sc" horiz-adv-x="521" 
d="M43 337v72h101l20 111h84l-20 -111h131l20 111h84l-20 -111h77v-72h-90l-25 -145h87v-73h-100l-21 -119h-84l21 119h-131l-21 -119h-84l21 119h-77v73h90l25 145h-88zM215 337l-25 -145h131l25 145h-131z" />
    <glyph glyph-name="percent.sc" horiz-adv-x="600" 
d="M136 254q-59 0 -88 36.5t-29 99.5t29 99.5t88 36.5t88 -36.5t29 -99.5t-29 -99.5t-88 -36.5zM136 309q47 0 47 81q0 82 -47 82q-48 0 -48 -82q0 -81 48 -81zM122 -9l297 538h60l-298 -538h-59zM464 -6q-58 0 -87 36.5t-29 99.5t29 99.5t87 36.5q59 0 88 -36.5t29 -99.5
t-29 -99.5t-88 -36.5zM464 49q48 0 48 81q0 82 -48 82q-47 0 -47 -82q0 -81 47 -81z" />
    <glyph glyph-name="perthousand.sc" horiz-adv-x="883" 
d="M136 254q-59 0 -88 36.5t-29 99.5t29 99.5t88 36.5t88 -36.5t29 -99.5t-29 -99.5t-88 -36.5zM136 309q47 0 47 81q0 82 -47 82q-48 0 -48 -82q0 -81 48 -81zM122 -9l297 538h60l-298 -538h-59zM464 -6q-58 0 -87 36.5t-29 99.5t29 99.5t87 36.5q59 0 88 -36.5t29 -99.5
t-29 -99.5t-88 -36.5zM464 49q48 0 48 81q0 82 -48 82q-47 0 -47 -82q0 -81 47 -81zM748 -6q-59 0 -88 36.5t-29 99.5t29 99.5t88 36.5t88 -36.5t29 -99.5t-29 -99.5t-88 -36.5zM748 49q47 0 47 81q0 82 -47 82q-48 0 -48 -82q0 -81 48 -81z" />
    <glyph glyph-name="hyphen.sc" horiz-adv-x="396" 
d="M56 217v93h284v-93h-284z" />
    <glyph glyph-name="endash.sc" horiz-adv-x="556" 
d="M56 217v93h444v-93h-444z" />
    <glyph glyph-name="emdash.sc" horiz-adv-x="840" 
d="M56 217v93h728v-93h-728z" />
    <glyph glyph-name="dagger.sc" horiz-adv-x="382" 
d="M44 319v73h104v128h86v-128h104v-73h-104v-319h-86v319h-104z" />
    <glyph glyph-name="daggerdbl.sc" horiz-adv-x="382" 
d="M44 331v74h104v115h86v-115h104v-74h-104v-146h104v-74h-104v-111h-86v111h-104v74h104v146h-104z" />
    <glyph glyph-name="parenleft.sc" horiz-adv-x="306" 
d="M291 -92h-93q-45 59 -80.5 155t-35.5 197t35.5 197t80.5 155h93q-43 -57 -78 -154.5t-35 -197.5q0 -99 35 -197t78 -155z" />
    <glyph glyph-name="parenright.sc" horiz-adv-x="306" 
d="M15 -92q43 56 78 154t35 198t-35 198t-78 154h94q45 -60 80.5 -155.5t35.5 -196.5q0 -100 -35.5 -196t-80.5 -156h-94z" />
    <glyph glyph-name="bracketleft.sc" horiz-adv-x="303" 
d="M82 -92v704h206v-81h-113v-542h113v-81h-206z" />
    <glyph glyph-name="bracketright.sc" horiz-adv-x="303" 
d="M15 -11h113v542h-113v81h207v-704h-207v81z" />
    <glyph glyph-name="braceleft.sc" horiz-adv-x="320" 
d="M109 42v79q0 59 -20 83t-73 24v68q53 0 73 24t20 84v74q0 68 32.5 101t112.5 33h51v-78h-36q-41 0 -55 -13.5t-14 -51.5v-91q0 -90 -90 -114v-4q90 -24 90 -113v-94q0 -39 14.5 -53t54.5 -14h36v-78h-51q-80 0 -112.5 33t-32.5 101z" />
    <glyph glyph-name="braceright.sc" horiz-adv-x="320" 
d="M15 -14h36q40 0 54.5 14t14.5 53v94q0 45 21 73t69 40v4q-90 24 -90 114v91q0 38 -14 51.5t-55 13.5h-36v78h51q79 0 111.5 -33t32.5 -101v-74q0 -60 20 -84t73 -24v-68q-53 0 -73 -24t-20 -83v-79q0 -68 -32.5 -101t-111.5 -33h-51v78z" />
    <glyph glyph-name="slash.sc" horiz-adv-x="336" 
d="M6 -12l232 544h92l-232 -544h-92z" />
    <glyph glyph-name="backslash.sc" horiz-adv-x="336" 
d="M238 -12l-232 544h92l232 -544h-92z" />
    <glyph glyph-name="quoteleft.sc" horiz-adv-x="262" 
d="M72 253v110l43 157h54l-30 -149h50v-118h-117z" />
    <glyph glyph-name="quotedblleft.sc" horiz-adv-x="454" 
d="M72 253v110l43 157h54l-30 -149h50v-118h-117zM265 253v110l43 157h54l-30 -149h50v-118h-117z" />
    <glyph glyph-name="quoteright.sc" horiz-adv-x="262" 
d="M92 253l31 149h-51v118h117v-110l-43 -157h-54z" />
    <glyph glyph-name="quotedblright.sc" horiz-adv-x="454" 
d="M92 253l31 149h-51v118h117v-110l-43 -157h-54zM285 253l31 149h-51v118h117v-110l-43 -157h-54z" />
    <glyph glyph-name="guilsinglleft.sc" horiz-adv-x="295" 
d="M160 104l-110 159l110 159h85l-90 -159l90 -159h-85z" />
    <glyph glyph-name="guilsinglright.sc" horiz-adv-x="295" 
d="M50 104l90 159l-90 159h85l110 -159l-110 -159h-85z" />
    <glyph glyph-name="guillemotleft.sc" horiz-adv-x="465" 
d="M330 104l-109 159l109 159h85l-89 -159l89 -159h-85zM159 104l-109 159l109 159h85l-90 -159l90 -159h-85z" />
    <glyph glyph-name="guillemotright.sc" horiz-adv-x="465" 
d="M221 104l90 159l-90 159h85l109 -159l-109 -159h-85zM50 104l90 159l-90 159h85l109 -159l-109 -159h-85z" />
    <glyph glyph-name="quotesingle.sc" horiz-adv-x="225" 
d="M78 253l-17 176v91h103v-91l-17 -176h-69z" />
    <glyph glyph-name="quotedbl.sc" horiz-adv-x="411" 
d="M78 253l-17 176v91h103v-91l-17 -176h-69zM264 253l-17 176v91h103v-91l-17 -176h-69z" />
    <glyph glyph-name="asterisk.sc" horiz-adv-x="463" 
d="M190 529h83l-15 -128l116 55l26 -80l-127 -25l88 -93l-67 -49l-63 112l-62 -112l-67 49l86 94l-124 24l25 80l116 -54z" />
    <glyph glyph-name="degree.sc" horiz-adv-x="378" 
d="M189 245q-64 0 -106.5 40t-42.5 104q0 63 42.5 103t106.5 40t106.5 -40t42.5 -103q0 -64 -42.5 -104t-106.5 -40zM189 461q-29 0 -48.5 -20t-19.5 -52t19.5 -52t48.5 -20q30 0 49 19.5t19 52.5q0 32 -19 52t-49 20z" />
    <glyph glyph-name="bullet.sc" horiz-adv-x="408" 
d="M204 131q-55 0 -93.5 38.5t-38.5 93.5t38.5 93.5t93.5 38.5t93.5 -38.5t38.5 -93.5t-38.5 -93.5t-93.5 -38.5z" />
    <glyph glyph-name="periodcentered.sc" horiz-adv-x="259" 
d="M70 205v117h119v-117h-119z" />
    <glyph glyph-name="paragraph.sc" horiz-adv-x="521" 
d="M351 0v520h92v-520h-92zM194 0v188q-72 11 -113 53.5t-41 112.5q0 76 50.5 121t140.5 45h56v-520h-93z" />
    <glyph glyph-name="section.sc" horiz-adv-x="426" 
d="M37 -51h90q4 -27 26 -40.5t54 -13.5q80 0 80 61q0 25 -16 37.5t-53 24.5l-72 24q-59 18 -85.5 46.5t-26.5 77.5q0 38 22.5 68.5t61.5 46.5q-73 37 -73 110q0 61 46 100t128 39q74 0 120 -31t50 -90h-91q-7 53 -80 53q-38 0 -59 -15.5t-21 -44.5q0 -25 16 -37.5t54 -25.5
l72 -23q59 -19 85 -47t26 -77q0 -38 -22 -69t-61 -47q73 -37 73 -109q0 -61 -46 -100t-129 -39q-74 0 -119.5 31t-49.5 90zM230 243l-38 12q-31 -8 -50.5 -28.5t-19.5 -43.5q0 -28 16 -41.5t58 -26.5l38 -13q31 9 50 29t19 44q0 28 -16 41.5t-57 26.5z" />
    <glyph glyph-name="copyright.sc" horiz-adv-x="611" 
d="M38 263q0 115 75.5 192t190.5 77t192 -77t77 -192t-76.5 -195t-192.5 -80q-115 0 -190.5 79.5t-75.5 195.5zM99 263q0 -91 58 -155t147 -64q88 0 148 64t60 155t-59 152t-149 61q-89 0 -147 -61t-58 -152zM174 263q0 59 35.5 97.5t99.5 38.5q47 0 79 -26t39 -68h-68
q-11 36 -50 36q-30 0 -48 -21.5t-18 -56.5t17.5 -56t48.5 -21q40 0 50 35h68q-7 -42 -39 -68t-79 -26q-64 0 -99.5 39t-35.5 97z" />
    <glyph glyph-name="registered.sc" horiz-adv-x="611" 
d="M38 263q0 115 75.5 192t190.5 77t192 -77t77 -192t-76.5 -195t-192.5 -80q-115 0 -190.5 79.5t-75.5 195.5zM99 263q0 -91 58 -155t147 -64q88 0 148 64t60 155t-59 152t-149 61q-89 0 -147 -61t-58 -152zM192 135v256h130q50 0 76 -23t26 -63q0 -58 -55 -80l60 -90h-74
l-53 81h-38v-81h-72zM312 336h-48v-67h48q40 0 40 35q0 32 -40 32z" />
    <glyph glyph-name="trademark.sc" horiz-adv-x="632" 
d="M279 260v260h95l62 -167h2l63 167h92v-260h-66l4 173h-3l-69 -173h-49l-66 173h-3l4 -173h-66zM5 461v59h241v-59h-84v-201h-71v201h-86z" />
    <glyph glyph-name="ordfeminine.sc" horiz-adv-x="299" 
d="M114 254q-42 0 -65 20t-23 54q0 67 88 79l48 6q21 3 27.5 7.5t6.5 15.5q0 18 -11.5 30t-34.5 12q-45 0 -48 -43h-64q3 47 34 69.5t78 22.5q115 0 115 -97v-170h-66v29h-1q-25 -35 -84 -35zM196 362v23q-4 -8 -25 -11l-38 -6q-37 -5 -37 -34q0 -34 40 -34q25 0 42.5 16
t17.5 46z" />
    <glyph glyph-name="ordmasculine.sc" horiz-adv-x="318" 
d="M159 254q-63 0 -99.5 36.5t-36.5 99.5q0 62 37 99.5t99 37.5q63 0 100 -37t37 -100q0 -62 -37.5 -99t-99.5 -37zM159 308q30 0 48 22.5t18 59.5t-18 59.5t-48 22.5t-48 -22.5t-18 -59.5q0 -36 18 -59t48 -23z" />
    </font>
</defs>
</svg>
