<svg xmlns="http://www.w3.org/2000/svg" viewBox="0 0 64 64"><defs><style>.cls-1,.cls-2,.cls-3{fill:none;}.cls-2{stroke:#ff5a39;}.cls-2,.cls-3{stroke-linecap:round;stroke-linejoin:round;stroke-width:2px;}.cls-3{stroke:#666;}</style></defs><title>15</title><g id="Layer_2" data-name="Layer 2"><g id="svg4380"><rect id="rect4047" class="cls-1" width="64" height="64"/><path id="path4361" class="cls-2" d="M61,38,3,52H61Z"/><path id="path4363" class="cls-3" d="M25,35.13l12-3.25m14-3.8L55,27l-2-9H38l-8-6L5,19,3,27,7,40l4.13-1.12"/><path id="path4367" class="cls-3" d="M28.22,16.23l-9.88,3,1.22,4.44L32,20ZM14.56,20.36,9,22,8.19,27l7.53-2.19Z"/><path id="path4369" class="cls-3" d="M22,27l3-1"/><path id="path4375" class="cls-3" d="M25,37a6.94,6.94,0,0,1-7,7,7.06,7.06,0,0,1-7-7,7,7,0,0,1,7-7A7,7,0,0,1,25,37Z"/><path id="path4377" class="cls-2" d="M21,37a3,3,0,0,1-3,3,3,3,0,0,1-3-3,3,3,0,0,1,3-3A3,3,0,0,1,21,37Z"/><path id="path4379" class="cls-3" d="M51,30a6.94,6.94,0,0,1-7,7,7.06,7.06,0,0,1-7-7,7,7,0,0,1,7-7A7,7,0,0,1,51,30Z"/><path id="path4381" class="cls-2" d="M47,30a3,3,0,0,1-3,3,3,3,0,0,1-3-3,3,3,0,0,1,3-3A3,3,0,0,1,47,30Z"/></g></g></svg>