<svg xmlns="http://www.w3.org/2000/svg" viewBox="0 0 64 64"><defs><style>.cls-1,.cls-2,.cls-4{fill:none;}.cls-2{stroke:#666;}.cls-2,.cls-4{stroke-linecap:round;stroke-linejoin:round;stroke-width:2px;}.cls-3{fill:#666;}.cls-4{stroke:#ff5a39;}.cls-5{fill:#ff5a39;}</style></defs><title>16</title><g id="Layer_2" data-name="Layer 2"><g id="svg4380"><rect id="rect4220" class="cls-1" width="64" height="64"/><path id="path4321" class="cls-2" d="M48,35V30.78l-4.29-14.2c-.25-.83-.64-1.58-1.43-1.58H4.43A1.51,1.51,0,0,0,3,16.58V20.4"/><path id="path4327" class="cls-2" d="M3,35v6.42A1.51,1.51,0,0,0,4.43,43H8"/><path id="path4331" class="cls-2" d="M18,43H33.88"/><path id="path4333" class="cls-2" d="M18,43A5,5,0,0,1,8,43H8a5,5,0,0,1,10,0Z"/><path id="path4335" class="cls-2" d="M48,31H38V19h6"/><path id="path4337" class="cls-3" d="M15,43a2,2,0,0,1-4,0h0a2,2,0,0,1,4,0Z"/><path id="path4339" class="cls-4" d="M1,24H7"/><path id="path4341" class="cls-5" d="M42,45a1,1,0,1,1-1-1A1,1,0,0,1,42,45Z"/><path id="path4343" class="cls-4" d="M45.87,47.15a3.87,3.87,0,0,0,2.48.85H58.5a1.5,1.5,0,0,0,0-3h1a1.5,1.5,0,0,0,0-3h1a1.5,1.5,0,0,0,0-3h1a1.5,1.5,0,0,0,0-3H55V30a2,2,0,0,0-3.58-1.23L47.6,36.12a2.85,2.85,0,0,1-1.74,1.25"/><rect id="rect4345" class="cls-2" x="28" y="19" width="6" height="7"/><rect id="rect4347" class="cls-2" x="18" y="19" width="6" height="7"/><path id="path4349" class="cls-4" d="M4,28h6"/><path id="path4351" class="cls-4" d="M6,32h6"/><path id="path4353" class="cls-2" d="M37,38.42a5,5,0,0,0,0,9.16"/><path id="path4355" class="cls-4" d="M38.17,35h5.66A1.17,1.17,0,0,1,45,36.17V47.83A1.17,1.17,0,0,1,43.83,49H38.17A1.17,1.17,0,0,1,37,47.83V36.17A1.17,1.17,0,0,1,38.17,35Z"/><path id="path4357" class="cls-2" d="M8,19h6v7"/></g></g></svg>