<svg xmlns="http://www.w3.org/2000/svg" viewBox="0 0 64 64"><defs><style>.cls-1,.cls-2,.cls-3{fill:none;}.cls-2{stroke:#666;}.cls-2,.cls-3{stroke-linecap:round;stroke-linejoin:round;stroke-width:2px;}.cls-3{stroke:#ff5a39;}</style></defs><title>2</title><g id="Layer_2" data-name="Layer 2"><g id="svg4380"><rect id="rect4081" class="cls-1" width="64" height="64"/><path id="path4083" class="cls-2" d="M32,9a26.17,26.17,0,1,1-7,1"/><path id="path4085" class="cls-2" d="M23.73,3H40.27"/><path id="path4087" class="cls-2" d="M32,9V3"/><path id="path4089" class="cls-3" d="M32,57V53"/><path id="path4091" class="cls-3" d="M10,35h4"/><path id="path4093" class="cls-3" d="M16.44,19.44l2.83,2.83"/><path id="path4095" class="cls-2" d="M25,10,18,8"/><path id="path4097" class="cls-2" d="M25,10l-3.54,6.36"/><path id="path4099" class="cls-3" d="M32,15V35.13l3.79,3.53,10.93,10.2A20.14,20.14,0,0,0,32,15Z"/><path id="path4101" class="cls-3" d="M16.45,50.56l2.83-2.83"/><path id="path4103" class="cls-2" d="M47.9,14.11,51,11l5,5-3.16,3.17"/></g></g></svg>