<svg xmlns="http://www.w3.org/2000/svg" viewBox="0 0 64 64"><defs><style>.cls-1,.cls-2,.cls-3{fill:none;}.cls-2{stroke:#666;}.cls-2,.cls-3{stroke-linecap:round;stroke-linejoin:round;stroke-width:2px;}.cls-3{stroke:#ff5a39;}</style></defs><title>6</title><g id="Layer_2" data-name="Layer 2"><g id="svg4380"><rect id="rect4133" class="cls-1" width="64" height="64"/><path id="path4222" class="cls-2" d="M9,36a4,4,0,1,0,4-4A4,4,0,0,0,9,36Z"/><path id="path4225" class="cls-2" d="M60,32v7H57L54,55H48L45,39H42V32"/><path id="path4227" class="cls-3" d="M3,28H7"/><path id="path4229" class="cls-3" d="M12,28h4"/><path id="path4231" class="cls-3" d="M21,28h4"/><path id="path4233" class="cls-3" d="M30,28h4"/><path id="path4236" class="cls-3" d="M39,28h4"/><path id="path4238" class="cls-3" d="M48,28h4"/><path id="path4240" class="cls-3" d="M57,28h4"/><path id="path4242" class="cls-2" d="M42,32v7H39L36,55H30L27,39H24V32"/><path id="path4244" class="cls-2" d="M42,24a12.13,12.13,0,0,0-18,0"/><path id="path4246" class="cls-2" d="M60,24a12.13,12.13,0,0,0-18,0"/><path id="path4248" class="cls-2" d="M56,14a5,5,0,1,1-5-5A5,5,0,0,1,56,14Z"/><path id="path4250" class="cls-2" d="M38,14a5,5,0,1,1-5-5A5,5,0,0,1,38,14Z"/><path id="path4252" class="cls-2" d="M13,41c-3.32,0-6,2-6,5.49V51H9.57l1.72,4h3.42l1.72-4H19V46.5C19,43,16.32,41,13,41Z"/></g></g></svg>