<svg xmlns="http://www.w3.org/2000/svg" viewBox="0 0 64 64"><defs><style>.cls-1,.cls-2,.cls-3{fill:none;}.cls-2{stroke:#666;}.cls-2,.cls-3{stroke-linecap:round;stroke-linejoin:round;stroke-width:2px;}.cls-3{stroke:#ff5a39;}</style></defs><title>5</title><g id="Layer_2" data-name="Layer 2"><g id="svg4380"><rect id="rect4055" class="cls-1" width="64" height="64"/><rect id="rect4105" class="cls-2" x="3" y="7" width="40" height="43.06" rx="3" ry="3"/><path id="path4107" class="cls-3" d="M55,36.5V56.76"/><path id="path4109" class="cls-3" d="M51,57h8"/><path id="path4111" class="cls-2" d="M27,11H19"/><path id="path4113" class="cls-2" d="M43,15H3.34"/><path id="path4115" class="cls-2" d="M23,15V33"/><path id="path4117" class="cls-2" d="M15,50.39V57H7V50.39"/><path id="path4119" class="cls-2" d="M43,33H3"/><rect id="rect4121" class="cls-2" x="3" y="39" width="6" height="6"/><rect id="rect4123" class="cls-2" x="37" y="39" width="6" height="6"/><path id="path4125" class="cls-2" d="M14,39h7m0,6H14"/><path id="path4127" class="cls-2" d="M32,39H25m0,6h7"/><path id="path4129" class="cls-3" d="M49,30a6,6,0,1,0,6-6A6,6,0,0,0,49,30Z"/><path id="path4131" class="cls-2" d="M31,50.39V57h8V50.39"/></g></g></svg>