<svg xmlns="http://www.w3.org/2000/svg" viewBox="0 0 64 64"><defs><style>.cls-1,.cls-2,.cls-3{fill:none;}.cls-2{stroke:#666;}.cls-2,.cls-3{stroke-linecap:round;stroke-linejoin:round;stroke-width:2px;}.cls-3{stroke:#ff5a39;}</style></defs><title>3</title><g id="Layer_2" data-name="Layer 2"><g id="svg4380"><rect id="rect4057" class="cls-1" width="64" height="64"/><path id="path4184" class="cls-2" d="M5.07,39.11V54.93l19-7,18,7,19-7v-38l-7,2.58M39,15.72,24.07,9.93l-19,7v8.56"/><path id="path4186" class="cls-2" d="M24.07,10.93v37m18,7V27"/><path id="path4188" class="cls-3" d="M11,22.93a8.11,8.11,0,0,0-8,8.18c0,5.28,3.59,11.74,8,14.82,4.41-3.08,8-9.54,8-14.82A8.11,8.11,0,0,0,11,22.93Z"/><path id="path4190" class="cls-3" d="M14.07,30.93a3,3,0,1,1-3-3A3,3,0,0,1,14.07,30.93Z"/><path id="path4192" class="cls-3" d="M47.07,8.93a8.11,8.11,0,0,0-8,8.18c0,5.28,3.59,11.74,8,14.82,4.41-3.08,8-9.54,8-14.82A8.11,8.11,0,0,0,47.07,8.93Z"/><path id="path4194" class="cls-3" d="M50.14,16.93a3,3,0,1,1-3-3A3,3,0,0,1,50.14,16.93Z"/></g></g></svg>