<svg xmlns="http://www.w3.org/2000/svg" viewBox="0 0 64 64"><defs><style>.cls-1,.cls-2,.cls-3{fill:none;}.cls-2{stroke:#666;}.cls-2,.cls-3{stroke-linecap:round;stroke-linejoin:round;stroke-width:2px;}.cls-3{stroke:#ff5a39;}</style></defs><title>1</title><g id="Layer_2" data-name="Layer 2"><g id="svg4380"><rect id="rect4060" class="cls-1" width="64" height="64"/><path id="path4172" class="cls-2" d="M48.07,9.1v8.33c0,8-7.14,14.5-16,14.5s-16-6.47-16-14.5V9.1"/><path id="path4174" class="cls-3" d="M32.07,26.93c-6.07,0-11-4-11-9h22C43.07,22.9,38.15,26.93,32.07,26.93Z"/><path id="path4176" class="cls-3" d="M32.07,36.93a15.19,15.19,0,0,1-6.91,7.79c-2.48,1.47-4.09,3.72-4.09,6.22h22c0-2.5-1.61-4.75-4.09-6.22A15.19,15.19,0,0,1,32.07,36.93Z"/><rect id="rect4178" class="cls-2" x="11" y="2.93" width="42" height="6" rx="1.2" ry="1.2"/><rect id="rect4180" class="cls-2" x="11" y="54.93" width="42" height="6" rx="1.2" ry="1.2"/><path id="path4182" class="cls-2" d="M16.07,54.9V46.57c0-8,7.14-14.5,16-14.5s16,6.47,16,14.5V54.9"/></g></g></svg>