<svg xmlns="http://www.w3.org/2000/svg" viewBox="0 0 64 64"><defs><style>.cls-1,.cls-2,.cls-3{fill:none;}.cls-2{stroke:#666;}.cls-2,.cls-3{stroke-linecap:round;stroke-linejoin:round;stroke-width:2px;}.cls-3{stroke:#ff5a39;}</style></defs><title>4</title><g id="Layer_2" data-name="Layer 2"><g id="svg4380"><rect id="rect4051" class="cls-1" width="64" height="64"/><path id="path4196" class="cls-2" d="M38.07,47.93h5l3,12h7l3-12h4V35.82c0-5.49-4.74-9.89-10.62-9.89a11,11,0,0,0-7,2.42"/><path id="path4198" class="cls-2" d="M43.07,14.93a7,7,0,1,0,7-7A7,7,0,0,0,43.07,14.93Z"/><path id="path4200" class="cls-3" d="M25,10.93a7,7,0,1,0,7-7A7,7,0,0,0,25,10.93Z"/><path id="path4202" class="cls-2" d="M25.93,47.93h-5l-3,12h-7l-3-12h-4V35.82c0-5.49,4.74-9.89,10.62-9.89a11,11,0,0,1,7,2.42"/><path id="path4204" class="cls-3" d="M32,21.93c-6.09,0-11,4.33-11,9.74v9.26h4l3,19h8l3-19h4V31.67C43,26.26,38.09,21.93,32,21.93Z"/><path id="path4206" class="cls-2" d="M20.93,14.93a7,7,0,1,1-7-7A7,7,0,0,1,20.93,14.93Z"/></g></g></svg>