<?xml version="1.0" encoding="utf-8"?>
<!-- Generator: Adobe Illustrator 22.1.0, SVG Export Plug-In . SVG Version: 6.00 Build 0)  -->
<svg version="1.1" id="Layer_1" xmlns="http://www.w3.org/2000/svg" xmlns:xlink="http://www.w3.org/1999/xlink" x="0px" y="0px"
	 viewBox="0 0 240 240" style="enable-background:new 0 0 240 240;" xml:space="preserve">
<style type="text/css">
	.st0{display:none;}
	.st1{display:inline;}
	.st2{fill:#001C47;}
	.st3{display:none;fill:url(#SVGID_1_);}
	.st4{display:inline;fill:url(#SVGID_2_);}
	.st5{display:inline;fill:url(#SVGID_3_);}
	.st6{display:inline;fill:url(#SVGID_4_);}
	.st7{display:inline;fill:url(#SVGID_5_);}
	.st8{display:inline;fill:url(#SVGID_6_);}
	.st9{display:inline;fill:url(#SVGID_7_);}
	.st10{fill:url(#SVGID_8_);}
	.st11{fill:url(#SVGID_9_);}
	.st12{display:none;fill:url(#SVGID_10_);}
	.st13{fill:url(#SVGID_11_);}
	.st14{fill:#FFFFFF;}
	.st15{display:inline;fill:#FFFFFF;}
	.st16{display:none;fill:#FFFFFF;}
	.st17{fill:url(#SVGID_12_);}
	.st18{fill:url(#SVGID_13_);}
	.st19{fill:url(#SVGID_14_);}
	.st20{fill:url(#SVGID_15_);}
	.st21{fill:url(#SVGID_16_);}
	.st22{fill:url(#SVGID_17_);}
	.st23{fill:url(#SVGID_18_);}
	.st24{fill:url(#SVGID_19_);}
	.st25{fill:url(#SVGID_20_);}
	.st26{fill:url(#SVGID_21_);}
	.st27{fill:url(#SVGID_22_);}
	.st28{fill:url(#SVGID_23_);}
</style>
<g id="Lisk-Logo-Symbol-Blue-On-White" class="st0">
	<g class="st1">
		<g>
			<path class="st2" d="M67.2,176l1.2-1.3v-0.1H67l0,0l-1.1-1.3l0,0l1.9-3.2l0,0l-0.8-1.4c0,0,0,0-0.1,0l-2.8,4.7l0,0l2.2,2.5l0,0
				L67.2,176L67.2,176z"/>
			<path class="st2" d="M68,166.9l-0.8,1.3l0,0l0.8,1.4l0,0l2.1,3.7l0,0l-1.1,1.3l0,0l-1.2,1.4v0.1h1.8l0,0l2.2-2.5l0,0L68,166.9
				L68,166.9z"/>
		</g>
	</g>
</g>
<g id="Layer_2_1_">
	<g class="st0">
		
			<linearGradient id="SVGID_1_" gradientUnits="userSpaceOnUse" x1="94.7516" y1="52.2552" x2="148.1512" y2="21.4256" gradientTransform="matrix(1 0 0 1 0 105.65)">
			<stop  offset="0" style="stop-color:#4EBC8B"/>
			<stop  offset="0.5458" style="stop-color:#02BCC3"/>
			<stop  offset="1" style="stop-color:#00BCF2"/>
		</linearGradient>
		<polygon style="display:inline;fill:url(#SVGID_1_);" points="86.3,139.1 90,149 151.2,149 155,139.1 		"/>
		
			<linearGradient id="SVGID_2_" gradientUnits="userSpaceOnUse" x1="88.9594" y1="32.6466" x2="152.2842" y2="-3.9141" gradientTransform="matrix(1 0 0 1 0 105.65)">
			<stop  offset="0" style="stop-color:#4EBC8B"/>
			<stop  offset="0.5458" style="stop-color:#02BCC3"/>
			<stop  offset="1" style="stop-color:#00BCF2"/>
		</linearGradient>
		<polygon class="st4" points="78.8,120.7 81.3,124.9 160,124.9 161.2,120.7 160,115.1 81.3,115.1 		"/>
		
			<linearGradient id="SVGID_3_" gradientUnits="userSpaceOnUse" x1="99.4607" y1="-59.1392" x2="132.4391" y2="-78.18" gradientTransform="matrix(1 0 0 1 0 105.65)">
			<stop  offset="0" style="stop-color:#4EBC8B"/>
			<stop  offset="0.5458" style="stop-color:#02BCC3"/>
			<stop  offset="1" style="stop-color:#00BCF2"/>
		</linearGradient>
		<polygon class="st5" points="113.8,52.9 120,36 126.2,52.9 137.5,52.9 120,6.3 103.8,52.9 		"/>
		
			<linearGradient id="SVGID_4_" gradientUnits="userSpaceOnUse" x1="99.2862" y1="-20.2977" x2="139.5608" y2="-43.55" gradientTransform="matrix(1 0 0 1 0 105.65)">
			<stop  offset="0" style="stop-color:#4EBC8B"/>
			<stop  offset="0.5458" style="stop-color:#02BCC3"/>
			<stop  offset="1" style="stop-color:#00BCF2"/>
		</linearGradient>
		<polygon class="st6" points="98.8,67 95,76.9 146.2,76.9 142.5,67 		"/>
		
			<linearGradient id="SVGID_5_" gradientUnits="userSpaceOnUse" x1="101.2828" y1="72.4845" x2="141.5687" y2="49.2258" gradientTransform="matrix(1 0 0 1 0 105.65)">
			<stop  offset="0" style="stop-color:#4EBC8B"/>
			<stop  offset="0.5458" style="stop-color:#02BCC3"/>
			<stop  offset="1" style="stop-color:#00BCF2"/>
		</linearGradient>
		<polygon class="st7" points="142.5,173 146.2,163.1 95,163.1 98.8,173 		"/>
		
			<linearGradient id="SVGID_6_" gradientUnits="userSpaceOnUse" x1="92.7051" y1="7.5019" x2="146.0933" y2="-23.3214" gradientTransform="matrix(1 0 0 1 0 105.65)">
			<stop  offset="0" style="stop-color:#4EBC8B"/>
			<stop  offset="0.5458" style="stop-color:#02BCC3"/>
			<stop  offset="1" style="stop-color:#00BCF2"/>
		</linearGradient>
		<polygon class="st8" points="90,91 86.3,100.9 155,100.9 151.2,91 		"/>
		<g class="st1">
			
				<linearGradient id="SVGID_7_" gradientUnits="userSpaceOnUse" x1="119.1421" y1="40.1921" x2="133.2129" y2="32.0682" gradientTransform="matrix(1 0 0 -1 0 240)">
				<stop  offset="0" style="stop-color:#4EBC8B"/>
				<stop  offset="0.5458" style="stop-color:#02BCC3"/>
				<stop  offset="1" style="stop-color:#00BCF2"/>
			</linearGradient>
			<polygon style="fill:url(#SVGID_7_);" points="123.1,225.4 137.5,187.1 126.2,187.1 123.1,195.6 			"/>
			
				<linearGradient id="SVGID_8_" gradientUnits="userSpaceOnUse" x1="98.8305" y1="43.6376" x2="124.6727" y2="28.7174" gradientTransform="matrix(1 0 0 -1 0 240)">
				<stop  offset="0" style="stop-color:#4EBC8B"/>
				<stop  offset="0.5458" style="stop-color:#02BCC3"/>
				<stop  offset="1" style="stop-color:#00BCF2"/>
			</linearGradient>
			<polygon class="st10" points="116.9,195.6 113.8,187.1 103.8,187.1 116.9,224.7 			"/>
		</g>
	</g>
	
		<linearGradient id="SVGID_9_" gradientUnits="userSpaceOnUse" x1="89.4377" y1="33.7314" x2="161.2454" y2="-7.7257" gradientTransform="matrix(1 0 0 1 0 105.65)">
		<stop  offset="0" style="stop-color:#4EBC8B"/>
		<stop  offset="0.5458" style="stop-color:#02BCC3"/>
		<stop  offset="1" style="stop-color:#00BCF2"/>
	</linearGradient>
	<polygon style="display:none;fill:url(#SVGID_9_);" points="125,201.5 95.8,118.1 125,36.2 155.6,118.1 	"/>
	<g class="st0">
		<g class="st1">
			
				<linearGradient id="SVGID_10_" gradientUnits="userSpaceOnUse" x1="75.5109" y1="40.0362" x2="163.8461" y2="-10.9649" gradientTransform="matrix(1 0 0 1 0 105.65)">
				<stop  offset="0" style="stop-color:#4EBC8B"/>
				<stop  offset="0.5458" style="stop-color:#02BCC3"/>
				<stop  offset="1" style="stop-color:#00BCF2"/>
			</linearGradient>
			<polygon style="fill:url(#SVGID_10_);" points="120,222 69.9,119.1 120,18 170.1,119.1 			"/>
			<polygon class="st14" points="120,170.6 132.1,170.6 120,196.3 107.9,170.6 			"/>
			<polygon class="st14" points="120,67.7 107.9,67.7 120,42 132.1,67.7 			"/>
			<rect x="66.1" y="96.9" class="st14" width="107.7" height="15.4"/>
			<rect x="66.1" y="67.7" class="st14" width="107.7" height="15.4"/>
			<rect x="66.1" y="126" class="st14" width="107.7" height="15.4"/>
			<rect x="66.1" y="155.1" class="st14" width="107.7" height="15.4"/>
		</g>
		<rect x="114.7" y="185.1" class="st15" width="10.6" height="41.6"/>
	</g>
	<path class="st16" d="M120,36.8c-26.5,53.6-39.1,79-39.1,79l39.1,81l39.1-81L120,36.8z"/>
	<g>
		<linearGradient id="SVGID_11_" gradientUnits="userSpaceOnUse" x1="102.077" y1="194.9293" x2="116.1541" y2="186.8018">
			<stop  offset="0" style="stop-color:#4EBC8B"/>
			<stop  offset="0.5458" style="stop-color:#02BCC3"/>
			<stop  offset="1" style="stop-color:#00BCF2"/>
		</linearGradient>
		<polygon class="st13" points="92.9,172 114.3,216.1 114.3,185.8 107.6,172 		"/>
		<linearGradient id="SVGID_12_" gradientUnits="userSpaceOnUse" x1="154.4954" y1="121.3463" x2="171.9632" y2="111.2611">
			<stop  offset="0" style="stop-color:#4EBC8B"/>
			<stop  offset="0.5458" style="stop-color:#02BCC3"/>
			<stop  offset="1" style="stop-color:#00BCF2"/>
		</linearGradient>
		<polygon class="st17" points="155.9,123.7 170.6,123.7 174.3,116.3 170.6,108.9 155.9,108.9 159.5,116.2 		"/>
		<linearGradient id="SVGID_13_" gradientUnits="userSpaceOnUse" x1="95.9531" y1="130.0993" x2="144.0248" y2="102.3448">
			<stop  offset="0" style="stop-color:#4EBC8B"/>
			<stop  offset="0.5458" style="stop-color:#02BCC3"/>
			<stop  offset="1" style="stop-color:#00BCF2"/>
		</linearGradient>
		<polygon class="st18" points="147.8,108.9 92.1,108.9 88.5,116.1 92.3,123.7 147.6,123.7 151.4,116.1 		"/>
		<linearGradient id="SVGID_14_" gradientUnits="userSpaceOnUse" x1="68.0368" y1="121.339" x2="85.4919" y2="111.2611">
			<stop  offset="0" style="stop-color:#4EBC8B"/>
			<stop  offset="0.5458" style="stop-color:#02BCC3"/>
			<stop  offset="1" style="stop-color:#00BCF2"/>
		</linearGradient>
		<polygon class="st19" points="84.1,108.9 69.4,108.9 65.7,116.3 69.4,123.7 84.1,123.7 80.5,116.2 		"/>
		<linearGradient id="SVGID_15_" gradientUnits="userSpaceOnUse" x1="91.6646" y1="57.6674" x2="134.9857" y2="32.6556">
			<stop  offset="0" style="stop-color:#4EBC8B"/>
			<stop  offset="0.5458" style="stop-color:#02BCC3"/>
			<stop  offset="1" style="stop-color:#00BCF2"/>
		</linearGradient>
		<polygon class="st20" points="120,36.4 121.3,39.1 131.9,60.5 146.7,60.5 120,6.7 93.3,60.5 108.1,60.5 118.7,39.1 		"/>
		<linearGradient id="SVGID_16_" gradientUnits="userSpaceOnUse" x1="77.2648" y1="91.3462" x2="100.2373" y2="78.0829">
			<stop  offset="0" style="stop-color:#4EBC8B"/>
			<stop  offset="0.5458" style="stop-color:#02BCC3"/>
			<stop  offset="1" style="stop-color:#00BCF2"/>
		</linearGradient>
		<polygon class="st21" points="85.1,77.3 77.7,92.1 92.5,92.1 99.8,77.3 		"/>
		<linearGradient id="SVGID_17_" gradientUnits="userSpaceOnUse" x1="145.2707" y1="88.1564" x2="157.1936" y2="81.2726">
			<stop  offset="0" style="stop-color:#4EBC8B"/>
			<stop  offset="0.5458" style="stop-color:#02BCC3"/>
			<stop  offset="1" style="stop-color:#00BCF2"/>
		</linearGradient>
		<polygon class="st22" points="162.3,92.1 154.9,77.3 140.2,77.3 147.5,92.1 		"/>
		<linearGradient id="SVGID_18_" gradientUnits="userSpaceOnUse" x1="103.0074" y1="96.5977" x2="133.2226" y2="79.1527">
			<stop  offset="0" style="stop-color:#4EBC8B"/>
			<stop  offset="0.5458" style="stop-color:#02BCC3"/>
			<stop  offset="1" style="stop-color:#00BCF2"/>
		</linearGradient>
		<polygon class="st23" points="132.2,77.3 107.7,77.3 100.4,92.1 139.5,92.1 		"/>
		<linearGradient id="SVGID_19_" gradientUnits="userSpaceOnUse" x1="116.9729" y1="200.9843" x2="152.1188" y2="180.6926">
			<stop  offset="0" style="stop-color:#4EBC8B"/>
			<stop  offset="0.5458" style="stop-color:#02BCC3"/>
			<stop  offset="1" style="stop-color:#00BCF2"/>
		</linearGradient>
		<polygon class="st24" points="125.7,216.1 147.1,172 132.3,172 125.7,185.4 		"/>
		<linearGradient id="SVGID_20_" gradientUnits="userSpaceOnUse" x1="139.9657" y1="154.5091" x2="162.9758" y2="141.224">
			<stop  offset="0" style="stop-color:#4EBC8B"/>
			<stop  offset="0.5458" style="stop-color:#02BCC3"/>
			<stop  offset="1" style="stop-color:#00BCF2"/>
		</linearGradient>
		<polygon class="st25" points="155.3,155.3 162.5,140.4 147.7,140.4 140.4,155.3 		"/>
		<linearGradient id="SVGID_21_" gradientUnits="userSpaceOnUse" x1="82.4228" y1="151.3558" x2="94.5349" y2="144.3628">
			<stop  offset="0" style="stop-color:#4EBC8B"/>
			<stop  offset="0.5458" style="stop-color:#02BCC3"/>
			<stop  offset="1" style="stop-color:#00BCF2"/>
		</linearGradient>
		<polygon class="st26" points="77.5,140.4 84.7,155.3 99.5,155.3 92.2,140.4 		"/>
		<linearGradient id="SVGID_22_" gradientUnits="userSpaceOnUse" x1="106.5594" y1="153.4638" x2="136.8955" y2="135.949">
			<stop  offset="0" style="stop-color:#4EBC8B"/>
			<stop  offset="0.5458" style="stop-color:#02BCC3"/>
			<stop  offset="1" style="stop-color:#00BCF2"/>
		</linearGradient>
		<polygon class="st27" points="107.6,155.3 132.2,155.3 139.5,140.4 100.4,140.4 		"/>
	</g>
</g>
</svg>
